<?xml version="1.0" encoding="UTF-8"?><svg xmlns="http://www.w3.org/2000/svg" width="1640" height="995" viewBox="0 0 1640 995"><defs><style>.cls-1{fill:#4f4e4d;}.cls-2{fill:#d6d6d6;}.cls-3{fill:none;stroke:#1f1f1f;stroke-miterlimit:10;}.cls-4{fill:#1f1f1f;}.cls-5{fill:#a8a8a8;}.cls-6{fill:#fbf8ef;}</style></defs><g id="Layer_38"><rect class="cls-6" width="1640" height="995"/></g><g id="Layer_24"><path class="cls-2" d="M2312.53,704.06c.42,88.65,.83,177.3,1.25,265.94-440.01-.66-880.03-1.31-1320.04-1.97-.42-78.14-.83-156.28-1.25-234.42,6.24-4.6,12.49-9.19,18.73-13.79,.42-7.22,.83-14.45,1.25-21.67h-11.24c18.32-26.92,36.63-53.85,54.95-80.77,19.15,9.85,38.3,19.7,57.45,29.55h36.22c2.08-5.25,4.16-10.51,6.24-15.76h34.97c.42-8.54,.83-17.07,1.25-25.61,3.75,2.63,7.49,5.25,11.24,7.88,1.67,5.91,3.33,11.82,5,17.73h51.2l11.24-23.64c15.82-.66,31.64-1.31,47.46-1.97-.42-9.19-.83-18.39-1.25-27.58,5.83,.66,11.66,1.31,17.48,1.97,.42,7.88,.83,15.76,1.25,23.64h44.96c3.75-9.19,7.49-18.39,11.24-27.58h41.21c.42-11.16,.83-22.33,1.25-33.49l11.24-1.97h0c2.08,4.6,4.16,9.19,6.24,13.79v23.64c13.32-.66,26.64-1.31,39.96-1.97,2.91,15.76,5.83,31.52,8.74,47.28,9.16,9.85,18.32,19.7,27.47,29.55,.42-9.85,.83-19.7,1.25-29.55h18.73c5.83,13.13,11.66,26.27,17.48,39.4,.83-8.54,1.67-17.07,2.5-25.61h11.24v-51.22c5.83-.66,11.66-1.31,17.48-1.97v51.22h57.45c2.08-4.6,4.16-9.19,6.24-13.79,3.33,4.6,6.66,9.19,9.99,13.79,24.56,.66,49.12,1.31,73.68,1.97,3.33,3.94,6.66,7.88,9.99,11.82,12.49-.66,24.98-1.31,37.47-1.97,.42-11.16,.83-22.33,1.25-33.49,4.16-.66,8.33-1.31,12.49-1.97v31.52c10.41-.66,20.81-1.31,31.22-1.97,6.24-36.12,12.49-72.23,18.73-108.35,2.91,5.91,5.83,11.82,8.74,17.73,18.73,.66,37.47,1.31,56.2,1.97,1.25-13.13,2.5-26.27,3.75-39.4,3.75-.66,7.49-1.31,11.24-1.97,.42,14.45,.83,28.89,1.25,43.34,11.24-.66,22.48-1.31,33.72-1.97,3.75-9.19,7.49-18.39,11.24-27.58,10.41,22.33,20.81,44.65,31.22,66.98v21.67c10.41-.66,20.81-1.31,31.22-1.97,.83-19.04,1.67-38.09,2.5-57.13,6.24-1.31,12.49-2.63,18.73-3.94v61.07h48.71c6.66,7.88,13.32,15.76,19.98,23.64h31.22c.42-6.57,.83-13.13,1.25-19.7l14.99-5.91v21.67h62.44c5.41,3.94,10.82,7.88,16.24,11.82h24.98v17.73c14.15,15.1,28.31,30.21,42.46,45.31-5-.66-9.99-1.31-14.99-1.97Z"/><path class="cls-2" d="M994.44,683.03c.31,54.66,.63,109.31,.94,163.97-332.06-.4-664.13-.81-996.19-1.21-.31-48.18-.63-96.36-.94-144.54,4.71-2.83,9.42-5.67,14.14-8.5,.31-4.45,.63-8.91,.94-13.36H4.85c13.82-16.6,27.65-33.2,41.47-49.8,14.45,6.07,28.9,12.15,43.35,18.22h27.33c1.57-3.24,3.14-6.48,4.71-9.72h26.39c.31-5.26,.63-10.53,.94-15.79,2.83,1.62,5.65,3.24,8.48,4.86,1.26,3.64,2.51,7.29,3.77,10.93h38.64l8.48-14.58c11.94-.4,23.88-.81,35.81-1.21-.31-5.67-.63-11.34-.94-17,4.4,.4,8.8,.81,13.19,1.21,.31,4.86,.63,9.72,.94,14.58h33.93c2.83-5.67,5.65-11.34,8.48-17h31.1c.31-6.88,.63-13.77,.94-20.65l8.48-1.21h0c1.57,2.83,3.14,5.67,4.71,8.5v14.58c10.05-.4,20.11-.81,30.16-1.21,2.2,9.72,4.4,19.43,6.6,29.15,6.91,6.07,13.82,12.15,20.73,18.22,.31-6.07,.63-12.15,.94-18.22h14.14c4.4,8.1,8.8,16.19,13.19,24.29,.63-5.26,1.26-10.53,1.88-15.79h8.48v-31.58c4.4-.4,8.8-.81,13.19-1.21v31.58h43.35c1.57-2.83,3.14-5.67,4.71-8.5,2.51,2.83,5.03,5.67,7.54,8.5,18.54,.4,37.07,.81,55.61,1.21,2.51,2.43,5.03,4.86,7.54,7.29,9.42-.4,18.85-.81,28.27-1.21,.31-6.88,.63-13.77,.94-20.65,3.14-.4,6.28-.81,9.42-1.21v19.43c7.85-.4,15.71-.81,23.56-1.21,4.71-22.27,9.42-44.54,14.14-66.8,2.2,3.64,4.4,7.29,6.6,10.93,14.14,.4,28.27,.81,42.41,1.21,.94-8.1,1.88-16.19,2.83-24.29,2.83-.4,5.65-.81,8.48-1.21,.31,8.91,.63,17.81,.94,26.72,8.48-.4,16.96-.81,25.45-1.21,2.83-5.67,5.65-11.34,8.48-17,7.85,13.77,15.71,27.53,23.56,41.3v13.36c7.85-.4,15.71-.81,23.56-1.21,.63-11.74,1.26-23.48,1.88-35.22,4.71-.81,9.42-1.62,14.14-2.43v37.65h36.76c5.03,4.86,10.05,9.72,15.08,14.58h23.56c.31-4.05,.63-8.1,.94-12.15l11.31-3.64v13.36h47.12c4.08,2.43,8.17,4.86,12.25,7.29h18.85v10.93c10.68,9.31,21.36,18.62,32.04,27.94-3.77-.4-7.54-.81-11.31-1.21Z"/><path class="cls-5" d="M129.93,180c.1,2.6-.63,4.03-1.39,4.86-1.12,1.24-2.63,1.54-2.78,2.78-.08,.7,.37,.77,.69,2.08,.37,1.51,.12,2.85,0,3.47-.34,1.73-1.01,2.43-.69,2.78,.22,.24,.87,.27,2.78-.69,.94,3.64,.55,6.07,0,7.64-.36,1.04-.92,2.04-.69,3.47,.19,1.19,.76,1.72,1.39,3.47,.42,1.16,.6,2.15,.69,2.78v20.15c-.43,.05-8.49,1.09-11.81,8.34-2.6,5.67-.87,12.01,2.78,15.98,4.24,4.62,9.99,4.84,11.12,4.86,.23,2.78,.46,5.56,.69,8.34-.37,.1-2.91,.83-4.17,3.47-1.29,2.72-.16,5.23,0,5.56-1.07,.25-2.53,.66-4.17,1.39-2.34,1.04-3.76,1.67-4.17,2.78-.66,1.79,1.35,4.62,4.86,6.95-.93,.93-1.85,1.85-2.78,2.78,.23,3.01,.46,6.02,.69,9.03-.34,.31-3.08,2.9-2.78,6.95,.28,3.83,3.07,5.95,3.47,6.25v3.47c-2.24,1.02-5.53,2.74-9.03,5.56-2.13,1.71-3.68,2.97-4.86,4.86-3.14,5.05-1.53,11.32-.69,13.89-.39,.52-4.2,5.84-2.08,11.81,1.06,3,3.12,4.78,4.17,5.56,.46,7.18,.93,14.36,1.39,21.54-2.5,.92-7.13,3.03-11.12,7.64-2.94,3.4-4.3,6.75-4.86,8.34-1.67,4.71-1.6,8.82-1.39,11.12-.86,1.73-1.87,4.35-2.08,7.64-.48,7.55,3.6,13.03,4.86,14.59l2.08,45.85c-4.09,3.14-7.34,6.05-9.73,8.34-5.57,5.34-6.54,7.35-6.95,8.34-.75,1.81-2.09,6.09,0,12.5-.82,1.37-1.57,2.99-2.08,4.86-2.4,8.72,2.07,16.51,3.47,18.76,.23,9.73,.46,19.45,.69,29.18-4.63,.93-9.26,1.85-13.89,2.78-.23,5.56-.46,11.12-.69,16.67l-4.17,2.08c-.37,.74-1.98,4.19-.69,8.34,1.48,4.77,5.62,6.67,6.25,6.95v68.08c-1.85,.93-3.71,1.85-5.56,2.78,.23,2.78,.46,5.56,.69,8.34,.73,.48,2.48,1.77,3.47,4.17,1.32,3.19,.34,6.08,0,6.95-1.02,2.6-2.92,3.98-4.17,4.86-4.84,3.42-10.41,3.03-12.5,2.78v-20.84c-1.62-.46-3.24-.93-4.86-1.39,.13-.29,1-2.29,0-4.17-1.07-2.02-3.89-3.12-5.56-2.08-1.64,1.02-1.43,3.64-1.39,4.17,.18,2.3,1.65,3.76,2.08,4.17-1.85,.93-3.71,1.85-5.56,2.78-1.16,2.08-2.32,4.17-3.47,6.25,.93,.46,1.85,.93,2.78,1.39-.93,.93-1.85,1.85-2.78,2.78v6.25c-1.16,.23-2.32,.46-3.47,.69v4.86h-5.56c-.23,.93-.46,1.85-.69,2.78-5.09,.69-10.19,1.39-15.28,2.08,2.55,.93,5.09,1.85,7.64,2.78-.23,1.16-.46,2.32-.69,3.47,.78-.31,4.33-1.61,8.34,0,3.42,1.37,5.08,4.03,5.56,4.86v109.07H248.73c-.46-36.59-.93-73.18-1.39-109.76,.54-.86,2.04-2.97,4.86-4.17,3.98-1.69,7.6-.3,8.34,0,.23-1.16,.46-2.32,.69-3.47,1.62-.93,3.24-1.85,4.86-2.78l-18.76-2.08c-2.32-2.08-4.63-4.17-6.95-6.25-.23-3.01-.46-6.02-.69-9.03l-6.25-4.17c1.72,.93,3.75,.59,4.86-.69,1.22-1.41,.74-3.31,.69-3.47-1.85,.23-3.71,.46-5.56,.69,.46-1.39,.93-2.78,1.39-4.17-.93-.23-1.85-.46-2.78-.69,2.13-.71,3.21-2.68,2.78-4.17-.37-1.25-1.73-1.94-2.78-2.08-1.84-.26-3.15,1.06-3.47,1.39-1.34,1.36-1.39,3.08-1.39,3.47-1.39,.23-2.78,.46-4.17,.69-.23,1.39-.46,2.78-.69,4.17-3.13,.73-4.66,3.24-4.17,4.86,.45,1.5,2.56,2.03,2.78,2.08l4.17,4.17c-.46,2.08-.93,4.17-1.39,6.25-6.89,2.04-13.79-.48-16.67-5.56-2.55-4.5-1.04-9.39-.69-10.42,1.39-.46,2.78-.93,4.17-1.39,1.16-3.71,2.32-7.41,3.47-11.12-2.78-1.16-5.56-2.32-8.34-3.47l-2.08-66.69c2.28-1.49,3.86-3.04,4.86-4.17,1.34-1.5,2.23-2.52,2.78-4.17,.28-.83,1.03-3.11,0-5.56-1.29-3.06-4.39-4.03-4.86-4.17,.23-6.25,.46-12.5,.69-18.76-6.48-1.85-12.97-3.71-19.45-5.56-.46-28.48-.93-56.97-1.39-85.45,1.39-.23,2.78-.46,4.17-.69-.23-6.95-.46-13.89-.69-20.84-2.82-.81-6.08-1.56-9.73-2.08-3.02-.43-5.82-.63-8.34-.69-.23-19.92-.46-39.83-.69-59.75,1.39-.46,2.78-.93,4.17-1.39v-18.76c-2.08-.99-4.89-2.08-8.34-2.78-3.57-.73-6.68-.81-9.03-.69-.23-10.42-.46-20.84-.69-31.26l4.17-2.08c.23-5.56,.46-11.12,.69-16.67-1.61-.77-4.24-1.79-7.64-2.08-3.27-.28-5.95,.23-7.64,.69v-5.56c1.16-.23,2.32-.46,3.47-.69v-7.64c-1.39-.23-2.78-.46-4.17-.69v-5.56c.57,.06,2.91,.23,4.86-1.39,1.38-1.14,2.77-3.36,2.08-4.86-.26-.57-.72-.82-4.17-2.08-4.11-1.51-4.42-1.51-4.86-2.08-1.25-1.63,.06-3.22-1.39-5.56-.7-1.13-1.32-1.25-2.08-2.08-1.13-1.22-2.16-3.53-1.39-8.34,.46,.03,9.56,.44,14.59-6.95,.43-.63,4.21-6.4,2.08-13.2-1.95-6.24-8.06-10.72-15.28-11.12-.46-3.24-.93-6.48-1.39-9.73,.38-.02,2.75-.16,4.17-2.08,1.46-1.97,1.07-4.67,0-6.25-1.31-1.93-3.54-2.08-3.47-2.78,.04-.46,1.06-1.02,5.56-1.39-.12-.73-.62-3.14-2.78-4.86-1.03-.82-2.07-1.2-2.78-1.39,.02-.75-.04-2.67-1.39-4.17-.28-.31-1.59-1.77-2.78-1.39-1.04,.33-1.35,1.88-1.39,2.08-.46,2.45,1.78,3.74,1.39,5.56-.18,.82-.92,1.87-3.47,2.78-.25-1.59-.48-3.22-.69-4.86-1.04-8.08-1.43-15.75-1.39-22.93Z"/><path class="cls-5" d="M417.53,726.72v26.43h-7.53v52.86h382v-8.13h-31.99v-42.69c-5.2-2.31-12.21-4.79-20.7-6.1-9.9-1.53-18.36-.94-24.46,0,3.37-29.61,9.5-64.91,20.7-103.68,12.25-42.38,27.35-77.79,41.4-105.71-5.65-11.52-11.29-23.04-16.94-34.56-15.87,1.64-35.17,5.09-56.45,12.2-27.69,9.25-49.76,21.69-65.86,32.53-13.17-.68-26.34-1.36-39.52-2.03,.19-4.24-.01-12.04-3.76-20.33-3.54-7.83-8.49-12.21-13.17-16.26-4.76-4.12-13.42-10.48-26.34-14.23l-90.33,73.18c5.94,22.46,11.5,49.09,15.05,79.28,3.57,30.4,4.34,57.85,3.76,81.32-15.68,5.42-31.36,10.84-47.04,16.26v-20.33h-18.82Z"/><path class="cls-5" d="M1451.78,144.13c-.69,18.52-1.73,37.34-3.14,56.45-.25,3.41-.51,6.81-.78,10.19-.43,.12-4.01,1.13-5.49,4.7-1.18,2.85-.57,6.21,1.57,8.62-2.6,.91-8.46,3.38-12.54,9.41-5.25,7.75-5.45,18.27-.78,27.44-1.23-1.16-5.18-4.57-10.98-4.7-2.18-.05-7.72-.18-10.19,3.92-1.74,2.88-1.35,6.85,.78,10.19-5.75,3.4-11.5,6.8-17.25,10.19,6.8-2.87,13.59-5.75,20.39-8.62,2.22,1.15,5.79,2.54,10.19,2.35,2.87-.12,6.69-.29,8.62-3.14,1.6-2.36,1.03-5.25,.78-6.27,1.83,2.35,3.66,4.7,5.49,7.06,.26,41.56,.52,83.11,.78,124.67-7.32-1.05-14.64-2.09-21.95-3.14-1.83,2.87-3.66,5.75-5.49,8.62l-21.17-2.35c-23,18.56-46,37.11-69,55.67-1.3,.27-2.93,.74-4.7,1.57-1.62,.75-2.92,1.6-3.92,2.35,1.57,2.61,3.14,5.23,4.7,7.84,2.61-.52,5.23-1.05,7.84-1.57,1.05-1.31,2.09-2.61,3.14-3.92,19.78-17.87,39.56-35.75,59.34-53.62h0c0-.09,1.44-1.42,5.74-5.19,3.14,1.31,6.27,2.61,9.41,3.92-3.66,1.05-7.32,2.09-10.98,3.14,2.09,.78,4.18,1.57,6.27,2.35-2.61,1.05-5.23,2.09-7.84,3.14-15.94,18.03-31.88,36.07-47.83,54.1-1.57,1.05-3.14,2.09-4.7,3.14,.52,1.57,1.05,3.14,1.57,4.7,1.05-.78,2.09-1.57,3.14-2.35,.7,1.57,2.3,2.52,3.92,2.35,1.37-.14,2.57-1.05,3.14-2.35,14.9-19.08,29.79-38.16,44.69-57.24,2.09-.52,4.18-1.05,6.27-1.57-6.27,8.1-12.54,16.2-18.82,24.31-3.25,.32-5.47,2.53-5.49,4.7-.01,1.59,1.17,2.77,1.57,3.14,1.31,1.57,2.61,3.14,3.92,4.7,1.05-2.09,2.09-4.18,3.14-6.27l18.82-30.58c3.92,1.05,7.84,2.09,11.76,3.14l-21.17,54.1c-1.57,1.31-3.14,2.61-4.7,3.92-.52,1.57-1.05,3.14-1.57,4.7,.78,1.31,1.57,2.61,2.35,3.92,.78-1.83,1.57-3.66,2.35-5.49,1.31,1.31,2.61,2.61,3.92,3.92,1.83-1.31,3.66-2.61,5.49-3.92,5.75-20.12,11.5-40.25,17.25-60.37,6.53,1.57,13.07,3.14,19.6,4.7,2.09,141.39,4.18,282.78,6.27,424.18h29.01c-2.35-141.39-4.7-282.78-7.06-424.18,5.23-1.31,10.45-2.61,15.68-3.92,11.76,19.86,23.52,39.73,35.28,59.59,.71-.7,1.6-1.74,2.35-3.14,1.19-2.2,1.49-4.25,1.57-5.49-.78-1.83-1.57-3.66-2.35-5.49-10.98-15.42-21.95-30.84-32.93-46.26,4.18-1.05,8.36-2.09,12.54-3.14,6.01,11.5,12.02,23,18.03,34.5,2.31-.27,3.78,.24,4.7,.78,1.6,.93,2.01,2.19,3.92,3.14,1.2,.6,2.35,.75,3.14,.78-.78-1.31-1.57-2.61-2.35-3.92l2.35-2.35c-1.31-1.57-2.61-3.14-3.92-4.7,2.35-.52,4.7-1.05,7.06-1.57-2.35-.52-4.7-1.05-7.06-1.57-7.32-8.62-14.64-17.25-21.95-25.87l5.49-1.57c19.08,20.65,38.16,41.29,57.24,61.94,.61-.53,2.58-2.37,3.14-5.49,.66-3.72-1.19-6.5-1.57-7.06l-54.1-49.4c-1.05-1.05-2.09-2.09-3.14-3.14,3.4-.78,6.8-1.57,10.19-2.35,15.42,14.11,30.84,28.23,46.26,42.34-.65,2.09,0,4.3,1.57,5.49,1.65,1.25,3.61,.85,3.92,.78l.04,.05c1.55,1.82,3.1,3.63,4.66,5.44l-2.35-7.06h6.27l2.35-2.35c-1.57-1.31-3.14-2.61-4.7-3.92-.26-1.05-.52-2.09-.78-3.14-2.09-.52-4.18-1.05-6.27-1.57-18.29-15.42-36.59-30.84-54.88-46.26-6.01,1.31-12.02,2.61-18.03,3.92-1.83-2.09-3.66-4.18-5.49-6.27-8.89,1.31-17.77,2.61-26.66,3.92-.78-42.86-1.57-85.72-2.35-128.59,2.38-1.09,6.87-3.59,10.19-8.62,6.59-9.97,2.88-21.23,2.35-22.74,.38,.5,1.9,2.37,3.92,2.35,2.61-.02,5.47-3.18,5.49-7.84,1.5,1.6,3.88,1.87,5.49,.78,1.9-1.28,2.41-4.2,.78-6.27,8.36-4.18,16.73-8.36,25.09-12.54-8.89,3.14-17.77,6.27-26.66,9.41-.41-.15-2.05-.72-3.92,0-2.2,.85-3.01,2.81-3.14,3.14-1.88-2-4.75-2.61-7.06-1.57-2.76,1.25-4.23,4.66-3.14,7.84-1.12-1.85-3.09-4.57-6.27-7.06-2.64-2.06-5.2-3.24-7.06-3.92,.17-.17,3.4-3.44,2.35-7.84-.78-3.27-3.58-5.78-7.06-6.27-1.31-22.21-2.61-44.43-3.92-66.64Z"/><path class="cls-5" d="M1008.5,317.5c-.33,16.33-.67,32.67-1,49l-.1,.15c-2.46,3.77-4.94,7.58-7.4,11.35v22c-3.33,2-6.67,4-10,6,2.33,1,4.67,2,7,3v19c-4.33,4-8.67,8-13,12l9,3c.33,9,.67,18,1,27-7.33,8.33-14.67,16.67-22,25,2.33,.67,4.67,1.33,7,2-.33,12.33-.67,24.67-1,37-4,.33-8,.67-12,1v46c-3.33,.33-6.67,.67-10,1,.33,2.67,.67,5.33,1,8,3,.33,6,.67,9,1v47c-2.33,.67-4.67,1.33-7,2v7c2.33,.33,4.67,.67,7,1,.33,13,.67,26,1,39-2.33,.67-4.67,1.33-7,2-.33,2.67-.67,5.33-1,8h8c-.33,19-.67,38-1,57h-8v7c2.33,.67,4.67,1.33,7,2,.33,18,.67,36,1,54h-8v7c3,.33,6,.67,9,1v60c98,.67,196,1.33,294,2-.33-28.33-.67-56.67-1-85h6v-11c-2.33-.33-4.67-.67-7-1v-71c2.67-.67,5.33-1.33,8-2v-9l-8-1v-63h8v-8l-8-1v-57h7v-8c-2.33-.33-4.67-.67-7-1,.33-12.67,.67-25.33,1-38h9c-5.67-4-11.33-8-17-12-2-5.67-4-11.33-6-17v-35h7c-6-6.67-12-13.33-18-20,.33-8,.67-16,1-24-2.33-2.33-4.67-4.67-7-7-.33-20-.67-40-1-60h-7c.33,20,.67,40,1,60-3,2.67-6,5.33-9,8v21c-6,7.33-12,14.67-18,22h7v32c-2,6.33-4,12.67-6,19-6.67,4-13.33,8-20,12,4,.33,8,.67,12,1v68h-16c.88-3.03,1.99-8.7,0-15-3.1-9.8-12.44-17.03-24-19v-23c3.67-.33,7.33-.67,11-1-6.67-4-13.33-8-20-12-5.33-10.33-10.67-20.67-16-31h7c-2.67-2.33-5.33-4.67-8-7v-16h-6c.33-6.33,.67-12.67,1-19-5.33-6.67-10.67-13.33-16-20-4.67,6.67-9.33,13.33-14,20v18l-8-1c-.33,5.67-.67,11.33-1,17-2.33,2.33-4.67,4.67-7,7l8,1c-4.67,10-9.33,20-14,30-7,2.33-14,4.67-21,7-.67-13-1.33-26-2-39l8-1c-7.67-7.67-15.33-15.33-23-23v-27c2.83-1.5,5.67-3,8.5-4.5-4.5-4.17-9-8.33-13.5-12.5v-18c2.33-1,4.67-2,7-3-3.33-2.33-6.67-4.67-10-7-.33-7.33-.67-14.67-1-22-2.67-3.67-5.33-7.33-8-11l-1.5-49.5Z"/><path class="cls-1" d="M-4.19,809.03c-.31,54.66-.63,109.31-.94,163.97,332.06-.4,664.13-.81,996.19-1.21,.31-48.18,.63-96.36,.94-144.54-4.71-2.83-9.42-5.67-14.14-8.5-.31-4.45-.63-8.91-.94-13.36h8.48c-13.82-16.6-27.65-33.2-41.47-49.8-14.45,6.07-28.9,12.15-43.35,18.22h-27.33c-1.57-3.24-3.14-6.48-4.71-9.72h-26.39c-.31-5.26-.63-10.53-.94-15.79-2.83,1.62-5.65,3.24-8.48,4.86-1.26,3.64-2.51,7.29-3.77,10.93h-38.64l-8.48-14.58c-11.94-.4-23.88-.81-35.81-1.21,.31-5.67,.63-11.34,.94-17-4.4,.4-8.8,.81-13.19,1.21-.31,4.86-.63,9.72-.94,14.58h-33.93c-2.83-5.67-5.65-11.34-8.48-17h-31.1c-.31-6.88-.63-13.77-.94-20.65l-8.48-1.21h0c-1.57,2.83-3.14,5.67-4.71,8.5v14.58c-10.05-.4-20.11-.81-30.16-1.21-2.2,9.72-4.4,19.43-6.6,29.15-6.91,6.07-13.82,12.15-20.73,18.22-.31-6.07-.63-12.15-.94-18.22h-14.14c-4.4,8.1-8.8,16.19-13.19,24.29-.63-5.26-1.26-10.53-1.88-15.79h-8.48v-31.58c-4.4-.4-8.8-.81-13.19-1.21v31.58h-43.35c-1.57-2.83-3.14-5.67-4.71-8.5-2.51,2.83-5.03,5.67-7.54,8.5-18.54,.4-37.07,.81-55.61,1.21-2.51,2.43-5.03,4.86-7.54,7.29-9.42-.4-18.85-.81-28.27-1.21-.31-6.88-.63-13.77-.94-20.65-3.14-.4-6.28-.81-9.42-1.21v19.43c-7.85-.4-15.71-.81-23.56-1.21-4.71-22.27-9.42-44.54-14.14-66.8-2.2,3.64-4.4,7.29-6.6,10.93-14.14,.4-28.27,.81-42.41,1.21-.94-8.1-1.88-16.19-2.83-24.29-2.83-.4-5.65-.81-8.48-1.21-.31,8.91-.63,17.81-.94,26.72-8.48-.4-16.96-.81-25.45-1.21-2.83-5.67-5.65-11.34-8.48-17-7.85,13.77-15.71,27.53-23.56,41.3v13.36c-7.85-.4-15.71-.81-23.56-1.21-.63-11.74-1.26-23.48-1.88-35.22-4.71-.81-9.42-1.62-14.14-2.43v37.65h-36.76c-5.03,4.86-10.05,9.72-15.08,14.58h-23.56c-.31-4.05-.63-8.1-.94-12.15l-11.31-3.64v13.36H47.65c-4.08,2.43-8.17,4.86-12.25,7.29H16.54v10.93c-10.68,9.31-21.36,18.62-32.04,27.94,3.77-.4,7.54-.81,11.31-1.21Z"/><g id="Layer_23"><g><path class="cls-1" d="M1141.78,680.36v13.25h-16.32c-2.74,6.12-7.86,15.78-16.32,23.86-11.07,10.58-21.89,12.73-27.2,13.25,.33,2.61,1.63,14.72-3.63,26.51-5.69,12.74-14.74,15.47-16.32,15.91v7.95h5.44v103.38h-5.44v10.6h3.63v68.92h208.53v-161.7h-7.25v-18.56h-5.44v-13.25c.39-4.56-1.82-7.95-3.63-7.95s-4.02,3.39-3.63,7.95v10.6h-36.27v-13.25c-1.81-1.77-3.63-3.53-5.44-5.3-.6-4.42-1.21-8.84-1.81-13.25l-16.32-15.91c-8.46-13.25-16.92-26.51-25.39-39.76h-12.69v-13.25h-14.51Z"/><path class="cls-1" d="M1555.22,680.36v13.25h16.32c2.74,6.12,7.86,15.78,16.32,23.86,11.07,10.58,21.89,12.73,27.2,13.25-.33,2.61-1.63,14.72,3.63,26.51,5.69,12.74,14.74,15.47,16.32,15.91v7.95h-5.44v103.38h5.44v10.6h-3.63v68.92h-208.53v-161.7h7.25v-18.56h5.44v-13.25c-.39-4.56,1.82-7.95,3.63-7.95s4.02,3.39,3.63,7.95v10.6h36.27v-13.25c1.81-1.77,3.63-3.53,5.44-5.3,.6-4.42,1.21-8.84,1.81-13.25l16.32-15.91c8.46-13.25,16.92-26.51,25.39-39.76h12.69v-13.25h14.51Z"/><path class="cls-1" d="M1245.14,799.64v164.36h203.09v-164.36h-43.52v-15.91h-7.25v13.25h-21.76v-18.56h-5.44v-76.88c-1.81-1.77-3.63-3.53-5.44-5.3,1.04-2.32,4.33-10.27,3.63-21.21-.63-9.86-4.13-16.35-5.44-18.56v-42.41c-1.81-3.53-3.63-7.07-5.44-10.6v-37.11l-5.44-7.95v-39.76c-.14-.26-1.41-2.65-3.63-2.65-.23,0-2.29,.05-3.63,2.65v39.76c-1.81,1.77-3.63,3.53-5.44,5.3v39.76c-1.81,3.53-3.63,7.07-5.44,10.6v42.41c-1.26,1.89-4.58,7.34-5.44,15.91-1.13,11.2,2.76,19.46,3.63,21.21-1.81,1.77-3.63,3.53-5.44,5.3v76.88h-7.25v23.86h-19.95v-15.91h-7.25v15.91h-47.15Z"/></g><path class="cls-4" d="M795.62,968v-95.56c-5.86,.88-10.62-3.61-10.62-7.96s4.76-8.84,10.62-7.96l3.01-15.03c.77-3.84,1.53-7.67,2.3-11.51,2.65,4.42,5.31,8.85,7.96,13.27,.88-6.19,1.77-12.39,2.65-18.58h5.31v-47.78c-4.37,0-7.96-3.59-7.96-7.96s3.59-7.96,7.96-7.96v-18.58h5.31v-10.62h5.31c.08-9.44,1.55-22.83,7.96-37.16,16.61-37.08,52.95-50.35,61.05-53.09-.16-.28-2.93-5.49,0-10.62,2.57-4.5,7.4-5.23,7.96-5.31v-23.89c.32-4.13,1.39-11.04,5.31-18.58,4.27-8.22,9.92-13.32,13.27-15.93v-10.62h2.65c1.77-6.19,3.54-12.39,5.31-18.58,.88,6.19,1.77,12.39,2.65,18.58h2.65v10.62c3.88,2.66,9.94,7.7,13.27,15.93,.65,1.61,1.92,5.11,2.65,15.93,.4,5.85,.66,14.01,0,23.89,.77,.02,6.7,.24,10.62,5.31,3.55,4.6,2.8,9.75,2.65,10.62,12.65,6.48,41.67,23.66,58.4,58.4,6.14,12.74,9.13,24.76,10.62,34.51h5.31v5.31h5.31v21.23c4.22,.79,7.43,4.07,7.96,7.96,.64,4.71-2.74,9.53-7.96,10.62v47.78h7.96c.88,5.31,1.77,10.62,2.65,15.93,1.77-5.31,3.54-10.62,5.31-15.93,1.77,9.73,3.54,19.47,5.31,29.2,4.44,.39,7.81,3.93,7.96,7.96,.13,3.35-1.99,6.56-5.31,7.96v98.21h-273.4Z"/><g><path class="cls-4" d="M1146.8,782.16c1.56-1.44,2.34-2.16,3.6-2.64,.49-.18,3.67-1.32,6.71,.48,.21,.12,2.74,1.67,3.36,4.32,.13,.55,.04,.56,.24,1.68,.43,2.38,.86,2.53,.96,3.84,.03,.46,.17,2.37-.96,3.84-.66,.86-1.14,.78-1.68,1.68-.07,.12-.89,1.54-.48,2.88,.33,1.08,1.29,1.4,4.8,3.36,2.68,1.5,3.21,1.92,3.6,2.64,.71,1.34,.4,2.78,.24,3.6-1.43,7.19,.4,7.21-1.2,13.67-.75,3.02-1.4,4.16-.96,6.23,.48,2.23,1.8,3.57,2.4,4.32,1.76,2.2,3.04,6.51,.48,15.83,.61-.17,1.54-.36,2.64-.24,1.8,.19,2.91,1.08,4.56,2.16,3.63,2.38,3.53,1.56,5.52,3.12,2.73,2.15,2.19,3.15,5.04,5.52,2.56,2.12,3.34,1.6,4.8,3.36,1.68,2.02,1.37,3.61,2.4,6.23,1.58,4.03,3.86,4.26,5.76,7.19,3.08,4.76,1.47,10.94-1.44,22.06-1.17,4.5-2.44,8.12-3.36,10.55,.8,1.6,1.6,3.2,2.4,4.8,2.22,.23,5.5,.8,9.11,2.4,4.16,1.84,5.28,3.51,11.03,7.67,4.8,3.48,4.58,2.72,12.47,8.15,4.53,3.11,7.43,5.32,9.59,9.11,1.1,1.93,1.63,3.63,1.92,4.8,.36,1.48,1.25,5.12,0,8.15-1.34,3.26-4.75,4.85-7.19,5.76-26.18,9.7-49.4,9.59-49.4,9.59-35.62-.16-53.9,1.44-82.49-3.84-6.14-1.13-19.65-3.85-20.62-10.07-.46-2.95,2.01-5.98,5.76-10.55,4.03-4.93,5.97-5.69,11.03-10.55,6.6-6.34,6.67-8.28,14.39-16.31,3.92-4.09,7.36-7.18,9.59-9.11-1.14-.57-2.94-1.65-4.56-3.6-2.43-2.94-2.97-6.09-3.12-7.43-3.62-.64-5.83-2.17-6.95-3.12-3.33-2.8-4.53-6.65-5.76-10.55-.64-2.05-.99-3.8-1.2-5.04-2.18-4.85-3.26-8.8-3.84-11.51-.28-1.31-.48-2.51,0-3.84,.77-2.11,2.55-2.55,6.23-4.8,1.42-.86,3.98-2.81,9.11-6.71,1.88-1.43,3.39-2.62,4.32-3.36,.54-.79,1.46-1.9,2.88-2.88,2.11-1.45,4.2-1.81,5.28-1.92,.24-2.52,.66-5.99,1.44-10.07,.67-3.52,1.06-5.58,1.92-8.15,2.02-6.05,3.57-5.75,5.76-11.51,2.42-6.38,1.47-9.23,4.32-11.03,.91-.57,1.29-.47,5.28-2.4,2.58-1.25,3.53-1.83,3.84-2.88,.39-1.34-.48-2.71-.96-3.36-1.22-.4-1.71-.98-1.92-1.44-.32-.68-.09-1.23,0-2.88,.09-1.62-.1-1.65,0-2.4,.24-1.92,1.65-3.22,3.36-4.8Z"/><path class="cls-4" d="M1138.08,815.19c-.42,.01-.16,2.15-1.83,4.58-.53,.77-.85,.97-1.83,2.29,0,0-.93,1.25-1.83,2.75-1.16,1.93-3.28,8.01-4.58,16.49l7.33-.92c.14-.46,.4-1.14,.92-1.83,.39-.52,.76-.85,1.37-1.37,.44-.37,1.05-.86,1.83-1.37,.25-2.05,.52-5.06,.46-8.71-.1-6.43-1.16-11.93-1.83-11.91Z"/></g></g><path class="cls-4" d="M1209,856.36c2.86,10.53,5.73,21.07,8.59,31.6,21.26,.96,42.53,1.92,63.79,2.87-1.9,2.46-4.74,6.8-6.13,12.93-1.47,6.46-.59,12.06,1.23,22.98,.7,4.19,1.83,10.15,3.68,17.24-15.54,.48-31.08,.96-46.62,1.44-.41,4.31-.82,8.62-1.23,12.93h452.69v-20.11h-77.29v-40.22h-36.8v-8.62c16.36-5.27,32.71-10.53,49.07-15.8-22.08-.48-44.16-.96-66.25-1.44v-7.18c-20.86-.48-41.71-.96-62.57-1.44v-25.86c-27.81-.96-55.62-1.92-83.42-2.87-6.54,3.83-13.09,7.66-19.63,11.49v10.06h-179.11Z"/><g id="Layer_25"><rect class="cls-4" y="955" width="1640" height="40"/></g><path class="cls-4" d="M431.43,805.41c-6.81,20.39-13.62,40.78-20.43,61.17v97.42h378.51c.8-32.47,1.6-64.95,2.4-97.42-2.8-1.89-5.61-3.78-8.41-5.66-1.6-19.26-3.2-38.51-4.81-57.77h-8.41c-.4,4.53-.8,9.06-1.2,13.59h-34.85c-4.01-6.8-8.01-13.59-12.02-20.39-.4-6.42-.8-12.84-1.2-19.26-2-2.64-4.01-5.29-6.01-7.93-.4-4.15-.8-8.31-1.2-12.46-1.2-1.51-2.4-3.02-3.6-4.53-.4-4.15-.8-8.31-1.2-12.46-.8,4.15-1.6,8.31-2.4,12.46-.8,1.51-1.6,3.02-2.4,4.53-.4,4.53-.8,9.06-1.2,13.59-2,2.64-4.01,5.29-6.01,7.93v16.99c-4.81,7.17-9.61,14.35-14.42,21.52h-8.41c-.4-3.02-.8-6.04-1.2-9.06h-4.81c-.4,3.02-.8,6.04-1.2,9.06h-42.06v-31.72c-3.2-2.27-6.41-4.53-9.61-6.8,.4-11.33,.8-22.66,1.2-33.98-2.8-3.78-5.61-7.55-8.41-11.33v-30.58l-7.21-6.8v-21.52c-2.8-2.27-5.61-4.53-8.41-6.8v-15.86c-1.2-1.51-2.4-3.02-3.6-4.53-.4-3.02-.8-6.04-1.2-9.06-.8,3.02-1.6,6.04-2.4,9.06-.8,1.51-1.6,3.02-2.4,4.53v14.73c-3.2,2.64-6.41,5.29-9.61,7.93v20.39l-7.21,6.8v29.45c-3.2,4.15-6.41,8.31-9.61,12.46v28.32h-4.81v44.18h-3.6c-.45-2.2-1.6-6.19-4.81-10.19-3.85-4.82-8.57-7.04-10.81-7.93v-19.26c-2.4-1.51-4.81-3.02-7.21-4.53v-13.59c-1.6-3.4-3.2-6.8-4.81-10.19-1.6,3.02-3.2,6.04-4.81,9.06v13.59c-2.4,1.89-4.81,3.78-7.21,5.66v18.12c-2.45,.85-7.6,2.99-12.02,7.93-3.96,4.42-5.43,8.96-6.01,11.33h-50.47v-10.19h-8.41Z"/><g><rect class="cls-4" x="-5.3" y="921.26" width="424" height="7.82"/><rect class="cls-4" x="46.69" y="924.61" width="10.4" height="39.11"/><rect class="cls-4" x="109.08" y="929.08" width="8.09" height="34.64"/><rect class="cls-4" x="125.25" y="929.08" width="8.09" height="34.64"/><rect class="cls-4" x="109.08" y="929.08" width="24.26" height="6.7"/><rect class="cls-4" x="303.17" y="929.08" width="8.09" height="34.64"/><rect class="cls-4" x="319.35" y="929.08" width="8.09" height="34.64"/><rect class="cls-4" x="303.17" y="929.08" width="24.26" height="6.7"/><rect class="cls-4" x="375.96" y="926.84" width="10.4" height="39.11"/><rect class="cls-4" x="111.39" y="824.05" width="4.62" height="99.44"/><rect class="cls-4" x="320.5" y="831.87" width="4.62" height="99.44"/><rect class="cls-4" x="304.33" y="831.87" width="4.62" height="99.44"/><rect class="cls-4" x="128.72" y="824.05" width="4.62" height="99.44"/><path class="cls-3" d="M66.91,922.93c21.57-20.86,43.13-41.71,64.7-62.57l62.39,63.69"/><path class="cls-3" d="M105.03,924.05c8.86-8.57,17.71-17.13,26.57-25.7,8.47,8.57,16.94,17.13,25.42,25.7"/><path class="cls-3" d="M243.67,928.52c26.96-27.19,53.91-54.38,80.87-81.56,26.19,26.44,52.37,52.89,78.56,79.33"/><path class="cls-3" d="M226.34,925.17c26.96-26.82,53.91-53.63,80.87-80.45,28.5,26.82,57,53.63,85.49,80.45"/><path class="cls-3" d="M236.74,924.05c23.49-23.46,46.98-46.93,70.47-70.39,25.42,23.84,50.83,47.67,76.25,71.51"/><path class="cls-3" d="M256.38,924.05c22.34-21.97,44.67-43.95,67.01-65.92"/><path class="cls-3" d="M306.06,871.54c18.87,17.88,37.74,35.75,56.61,53.63"/><path class="cls-3" d="M276.02,924.05c10.01-10.43,20.03-20.86,30.04-31.28,10.01,10.06,20.03,20.11,30.04,30.17"/><path class="cls-3" d="M8.85,925.17l104.85-96.55,99.93,98.78c30.81-30.17,61.62-60.33,92.43-90.5l90.11,87.15"/><polyline class="cls-3" points="21.15 924.05 113.7 838.14 202.51 927.4"/><polyline class="cls-3" points="34.23 924.05 113.7 849.44 186.9 924.05"/><polyline class="cls-3" points="48.71 923.49 113.7 862.92 173.02 923.49"/><polyline class="cls-3" points="60.21 923.49 113.7 873.77 163.7 924.61"/><polyline class="cls-3" points="77.65 923.49 113.7 887.74 150.81 924.05"/><polyline class="cls-3" points="88.36 923.49 114.23 898.35 140.5 924.05"/><line class="cls-3" x1="131.03" y1="846.96" x2="113.7" y2="862.92"/><polyline class="cls-3" points="113.7 849.44 131.03 834.17 222.89 924.61"/><polyline class="cls-3" points="114.23 889.41 131.03 873.77 179.76 923.49"/><polyline class="cls-3" points="307.21 853.66 322.81 839.53 410.85 925.17"/><line class="cls-3" x1="269.28" y1="923.49" x2="323.39" y2="868.83"/><line class="cls-3" x1="323.39" y1="878.01" x2="371.29" y2="923.49"/><line class="cls-3" x1="307.21" y1="882.35" x2="350.77" y2="924.61"/><line class="cls-3" x1="286.83" y1="923.49" x2="323.39" y2="889.41"/><line class="cls-3" x1="306.06" y1="900.75" x2="327.43" y2="923.49"/></g></g></svg>