<?xml version="1.0" encoding="UTF-8"?><svg id="beer4" xmlns="http://www.w3.org/2000/svg" width="99.37" height="133.64" viewBox="0 0 99.37 133.64"><defs><style>.cls-1{fill:#fff;}.cls-1,.cls-2{stroke:#000;stroke-miterlimit:10;stroke-width:.5px;}.cls-2{fill:#f4bb1f;}.cls-3{fill:#919191;}</style></defs><path class="cls-2" d="M22.12,52.41c.1,1.45,.16,4.21,.33,9.75,.09,2.94,.11,5.09,.13,7.34,.02,2.26,.04,6.48-.08,11.84-.17,7.83-.39,7.6-.49,13.93-.09,5.73,.11,4.93,.06,12.29-.06,8.44-.32,9.18,.26,11.24,1.62,5.78,6.12,9.19,7.79,10.46,11.18,8.47,37.28,1.25,47.07,1.6,.5,.02,2.27,.1,4.54-.38,0,0,2.93-.62,5.56-2.16,4.56-2.67,7.12-7.67,7.94-9.77,3.86-9.83,3.37-22.64,2.55-38.17-.74-13.85-1.35-21.44-.78-33.73,.2-4.22,1.79-6.21,.55-8.53-2.1-3.94-7.58-3.58-42.18-2.58-9.6,.28-18.85,4.05-28.36,5.57-.91,.15-3.13,.61-4.48,2.33-1.31,1.68-.8,3.32-.42,8.98Z"/><path class="cls-2" d="M22.24,103.81c-1.81,.03-4.42-.06-7.46-.71-2.84-.61-7.16-1.53-10.1-4.35-1.31-1.25-2.86-3.37-3.86-11.15-.81-6.28-.93-13.72,.77-23.37,1.41-8.03,2.18-12.11,5.37-14.9,2.09-1.83,6.14-4.23,11.13-4.33,1.56-.03,2.85,.17,3.73,.36,.16,3.4,.31,6.8,.47,10.2-1.23-.19-3.25-.35-5.63,.22-1.29,.31-2.87,.68-4.14,1.74-1.52,1.27-1.98,2.99-2.59,8.65-.42,3.94-.33,4.37-.76,9.58-.18,2.27-.48,5.59-.14,9.89,.16,2.07,.39,3.36,1.35,4.52,.36,.43,1.22,1.32,4.88,2.47,1.61,.51,3.86,1.09,6.65,1.45l.33,9.75Z"/><path class="cls-1" d="M22,31.28c.13,2.17-2.11,2.98-3.26,6.39-.34,1-.73,2.16-.48,3.59,.4,2.24,2.26,4.42,4.61,5.01,2.46,.62,3.75-.94,5.15-.07,1.34,.83,1,2.78,1.28,6.01,.24,2.72,.9,4.87,2.23,9.17,1.72,5.58,2.58,8.38,4.74,8.91,2.1,.52,4.61-1.14,5.9-2.76,1.51-1.89,1.16-3.44,1.64-8.37,.04-.38,.56-5.55,2.25-11.5,.96-3.37,1.91-5.65,4.08-7.13,.54-.37,1.83-1.25,2.85-.86,1.4,.55,.71,2.9,2.3,4.23,1.69,1.41,4.64,.57,4.82,.52,3.64-1.08,3.37-4.64,6.86-6.49,2.81-1.49,7.16-1.39,9.49,.59,2.78,2.37,.58,5.62,3.86,11.15,.97,1.65,2.48,4.19,4.95,4.42,.95,.09,2.71-.1,5.77-3.21,6.93-7.03,7.86-16.02,8.02-18.16,.22-3.02-.13-4.9-.26-5.5-.6-2.92-1.66-4.18-3.05-7.29-2.41-5.38-1.01-5.58-2.66-8.09-3.28-4.99-10.87-7.32-15.74-5.99-.6,.16-.95,.36-1.74,.44-3.94,.4-6.91-1.65-8.61-2.83-1.27-.88-1.07-1.03-1.89-1.58-3.8-2.58-10.98-2.15-15.27,1.32-3.89,3.14-2.03,6-5.71,8.61-3.15,2.23-5.12,.53-12.75,2.36-4.9,1.17-7.7,1.85-9.57,4.35-2,2.68-2.64,7.09-1.09,10.17,.63,1.26,1.22,1.48,1.29,2.57Z"/><path class="cls-3" d="M46.45,18.11c.73-1.85,2.37-2.94,4.28-3.33,1.77-.49,3.71-.65,5.58-.24,2.53,.59,4.46,2.44,7.13,2.32,.78,.33,1.63,.55,2.54,.8-1.56,1.22-3.52,1.44-5.39,.78-1.71-.43-3.06-1.62-4.7-1.94-3.29-.83-6.24,1.09-9.44,1.62h0Z"/><path class="cls-3" d="M86.48,45.77c.33-.55,.58-1.02,.71-1.49,.32-.21,.59-.5,.81-.8,.43-.61,.71-1.49,.93-2.38,.33-1.35,.48-2.76,.5-4.15,1.04-1.71,.93-1.78,2,.02-.05,2.68-.79,10.33-4.95,8.8h0Z"/><path class="cls-3" d="M68.43,55.69c-.38-5.47,6.77-7.18,9.33-2.48,1.86,3.75,1.81,7.92,2.15,11.92,.15,2.62,.24,5.24,.29,7.86,.16,4.55-.15,11.07-.36,15.68l-.33,7.83c-.42,2.6-.82,5.19-1.33,7.78-.29-2.62-.47-5.24-.67-7.85,.17-3.91,.5-11.73,.67-15.64,.15-5.16,.01-10.39-.26-15.55-.41-3.42-.06-12.13-4.29-12.75-2.37-.95-4.64,.75-5.19,3.2h0Z"/><path class="cls-3" d="M26.6,62.8c.39,3.54,.67,7.09,.94,10.65-.07,3.55-.23,7.1-.35,10.65-.27,7.09-.6,14.1-.23,21.17,.19,2.47,.05,5.22,.95,7.45,.14,.3,.31,.4,.26,.37,.68-.2,1.47-1.23,2-1.92,2.29-3.23,2.08-8.48,2.66-12.32,.4-5.31,1.02-10.58,1.88-15.85,.2,4.44,.64,8.89,.39,13.32-.14,1.79-.67,6.16-.85,8.01-.33,3.12-1.01,6.73-3.36,9.12-3.01,3.44-5.2,.95-5.54-2.7-.57-5.39-.58-10.69-.53-16.09,.44-10.67,.37-21.26,1.78-31.86h0Z"/><path class="cls-3" d="M46.82,73.14c.36,2.54,.6,5.07,.84,7.6-.15,4.53-.13,10.75-.47,15.21-.36,3.87-.94,7.38-.52,11.18,.23,1.68,.2,4.95,2.39,4.83,.86-.11,1.97-.64,2.45-1.4,1.05-1.88,1.16-4.69,1.49-6.91,.53-2.47,1.05-4.94,1.68-7.43,.22,5.21,.92,10.54-1.5,15.44-1.35,1.94-4.32,3.16-6.42,1.61-1.78-1.52-1.87-3.97-2.09-5.98-.43-3.8,.18-7.82,.53-11.49,.33-4.35,.31-10.67,.45-15.09,.35-2.52,.71-5.04,1.18-7.56h0Z"/><path class="cls-3" d="M66.69,64.14c.59,4.06,.56,8.05,.39,12.12-.01,4,.16,8.14-.16,12.15-.18,4.04-.47,8.13-.53,12.12,.04,4.03-.8,7.8,1.45,11.44-1.65-1.23-2.96-3.1-3.48-5.32-.18-1.86,.01-4.35,.03-6.2,.07-4.09,.35-8.08,.53-12.11,.69-8.07-.91-16.38,1.77-24.2h0Z"/></svg>