<?xml version="1.0" encoding="UTF-8"?><svg id="lifeBeer" xmlns="http://www.w3.org/2000/svg" width="60.56" height="174.9" viewBox="0 0 60.56 174.9"><defs><style>.cls-1{fill:#fff;}.cls-2{fill:none;stroke:#f4bb1f;stroke-miterlimit:10;stroke-width:.25px;}.cls-3{fill:#3c6909;}</style></defs><path class="cls-3" d="M21.83,1.6c-.2,.22-1.49,1.52-.99,2.83,.52,1.36,2.56,1.72,2.72,1.74,.23,.89,.54,2.25,.74,3.92,.28,2.34,0,3.61-.25,8.93,0,0-.06,1.17-.12,2.96-.19,4.89-.06,7.87-.12,10.75-.16,6.61-.24,9.94-.5,11.1-1.18,5.33-3.37,7.07-6.69,13.06-1.76,3.17-3.48,8.21-6.94,18.29-2.95,8.61-4.43,12.92-5.7,18.72-.37,1.7-1.2,5.67-2.23,15.24-.72,6.67-.81,9.31-1.73,35.92-.06,1.67-.33,9.63,2.48,18.94,.58,1.91,.93,2.85,1.49,3.7,4.56,6.96,17.21,7.08,27.99,7.18,10.27,.1,23.37,.22,27-6.1,.41-.72,.6-2.15,.99-5.01,.77-5.7,.57-9.46,.5-16.54-.06-5.8,.06-4.48,0-9.8-.24-21.95-.36-32.92-3.22-46.37-1.15-5.42-2.28-10.72-4.95-17.63-1.67-4.32-3.27-7.51-8.92-20.9-1.73-4.09-2.4-5.73-2.97-8.27-.82-3.62-.5-4.84-.99-13.93-.27-5.03-.44-5.95-.5-9.58,0,0-.05-3.57,.74-9.58,.36-2.73,.64-3.75,1.49-4.79,1.08-1.32,2.38-1.79,2.48-3.05,.1-1.23-1.03-2.22-1.24-2.39-1.66-1.4-3.93-.9-8.42-.65-7.84,.43-10.47-.56-12.14,1.31Z"/><path class="cls-1" d="M19.85,78.88c-6.09,3.3-7.57,9.29-9.41,17.41-2.06,9.07-.35,10.94-.74,26.56-.38,15.21-2.16,19.4,1.98,23.73,4.13,4.32,10.62,5.07,13.87,5.44,1.61,.19,14.45,1.51,21.06-5.66,2.36-2.56,2.93-5.44,3.96-11.1,.93-5.1,1.29-10.41,.74-19.59-.65-10.78-.97-16.18-3.22-22.2-2.55-6.85-4.55-12.2-10.65-15.02-5.3-2.45-12.4-2.37-17.59,.44Z"/><g><path class="cls-2" d="M40.22,134.77c-2.8-3.23-5.91-7.38-8.7-12.46-3.65-6.64-5.59-12.74-6.66-17.5"/><path class="cls-2" d="M24.48,104.86c-.79-.13-1.15-1.47-1.21-2.17-.09-1.02,.36-1.91,.65-2.46,.2-.4,.42-.72,.58-.93,.42,.24,1.16,.73,1.67,1.59,.2,.33,.49,.82,.49,1.44,0,1.29-1.28,2.68-2.17,2.54Z"/><path class="cls-2" d="M30.24,120.21c.05,.79-1.46,1.46-2.28,1.68-1.2,.33-2.38,.1-3.13-.04-.54-.1-.97-.23-1.27-.33,.18-.46,.57-1.29,1.47-1.99,.34-.27,.85-.67,1.6-.81,1.55-.3,3.56,.6,3.62,1.49Z"/><path class="cls-2" d="M28.35,116.84c-.04,.89-1.74,1.43-2.66,1.58-1.33,.21-2.57-.2-3.34-.46-.56-.19-1.01-.39-1.32-.54,.25-.49,.78-1.36,1.82-2.03,.4-.25,.99-.63,1.82-.69,1.7-.13,3.73,1.15,3.68,2.15Z"/><path class="cls-2" d="M26.88,112.83c-.06,.7-1.52,1.18-2.31,1.31-1.14,.2-2.2-.09-2.86-.28-.48-.13-.86-.28-1.12-.39,.22-.39,.7-1.1,1.6-1.64,.35-.21,.87-.52,1.57-.59,1.46-.15,3.18,.81,3.12,1.6Z"/><path class="cls-2" d="M25.73,109.73c-.18,.69-1.71,.96-2.51,.99-1.16,.05-2.16-.38-2.78-.65-.45-.19-.8-.39-1.04-.54,.29-.36,.88-.99,1.87-1.41,.38-.16,.95-.4,1.66-.38,1.47,.05,3.01,1.22,2.81,1.99Z"/><path class="cls-2" d="M24.7,107c-.52,.54-2.02,.15-2.75-.15-1.05-.44-1.71-1.22-2.12-1.71-.3-.36-.5-.68-.64-.9,.44-.2,1.3-.52,2.4-.49,.42,.01,1.05,.03,1.67,.34,1.28,.65,2.02,2.31,1.43,2.91Z"/><path class="cls-2" d="M34.57,126.77c-.54-.52,.1-1.78,.54-2.37,.63-.86,1.61-1.32,2.22-1.61,.44-.21,.83-.35,1.1-.43,.17,.41,.41,1.2,.23,2.16-.07,.36-.18,.91-.61,1.4-.9,1.02-2.88,1.44-3.48,.86Z"/><path class="cls-2" d="M32.69,123.25c-.47-.57,.33-1.76,.84-2.3,.74-.79,1.77-1.15,2.41-1.38,.46-.16,.87-.26,1.15-.32,.11,.43,.25,1.23-.05,2.16-.12,.35-.29,.89-.79,1.34-1.03,.93-3.04,1.15-3.56,.5Z"/><path class="cls-2" d="M30.89,120.14c-.46-.58,.35-1.76,.86-2.3,.75-.79,1.78-1.14,2.43-1.36,.47-.16,.87-.26,1.16-.31,.11,.43,.24,1.24-.08,2.16-.12,.35-.3,.88-.8,1.33-1.03,.92-3.05,1.13-3.57,.48Z"/><path class="cls-2" d="M29.46,116.92c-.53-.53,.13-1.78,.57-2.37,.65-.85,1.63-1.3,2.24-1.59,.44-.21,.83-.34,1.11-.42,.16,.42,.39,1.21,.2,2.16-.08,.36-.19,.91-.63,1.4-.91,1.01-2.89,1.41-3.49,.82Z"/><path class="cls-2" d="M27.59,112.73c-.33-.64,.72-1.67,1.34-2.11,.9-.65,1.99-.83,2.67-.94,.49-.08,.91-.11,1.2-.12,.02,.44-.03,1.25-.53,2.11-.19,.33-.48,.82-1.07,1.17-1.21,.73-3.24,.6-3.61-.12Z"/><path class="cls-2" d="M26.61,109.4c-.39-.62,.56-1.71,1.14-2.2,.84-.71,1.91-.96,2.58-1.13,.48-.12,.9-.17,1.19-.2,.06,.44,.09,1.25-.34,2.14-.16,.34-.41,.85-.96,1.25-1.14,.82-3.17,.83-3.61,.14Z"/><path class="cls-2" d="M25.51,106.25c-.44-.59,.4-1.75,.93-2.28,.77-.77,1.81-1.1,2.46-1.31,.47-.15,.88-.24,1.16-.29,.1,.43,.21,1.24-.14,2.16-.13,.35-.33,.88-.84,1.31-1.06,.9-3.09,1.06-3.58,.4Z"/><path class="cls-2" d="M33.55,126.54c.18,.69-1.07,1.52-1.77,1.85-1.03,.49-2.13,.48-2.83,.47-.5,0-.92-.05-1.21-.09,.08-.43,.3-1.23,.98-1.98,.26-.29,.65-.72,1.3-.97,1.35-.52,3.31-.05,3.52,.72Z"/><path class="cls-2" d="M32,123.78c.09,.83-1.37,1.5-2.18,1.73-1.18,.33-2.36,.07-3.1-.08-.54-.11-.98-.26-1.28-.37,.15-.48,.51-1.34,1.36-2.06,.32-.27,.81-.68,1.55-.83,1.53-.29,3.56,.68,3.66,1.61Z"/><path class="cls-2" d="M23.13,103.88c-.4-.99-.7-1.85-.93-2.53-.41-1.22-.67-2.18-.86-2.9-.2-.72-.35-1.34-.46-1.79"/><path class="cls-2" d="M27.14,103.5c-.08-1.05-.18-1.95-.28-2.65-.17-1.26-.36-2.24-.5-2.96-.14-.73-.28-1.35-.38-1.8"/><path class="cls-2" d="M26.06,101.14c-.31-.91-.54-1.69-.71-2.31-.3-1.12-.48-1.99-.62-2.64-.14-.66-.24-1.22-.31-1.63"/><path class="cls-2" d="M21.88,104.11c-.54-1.28-.97-2.39-1.29-3.25-.58-1.57-.98-2.8-1.27-3.72-.3-.93-.54-1.71-.71-2.29"/><path class="cls-2" d="M23.63,101.79c-.29-1.17-.51-2.18-.66-2.96-.28-1.43-.44-2.54-.56-3.37-.12-.84-.21-1.55-.27-2.07"/></g></svg>