<?xml version="1.0" encoding="utf-8"?>
<!-- Generator: Adobe Illustrator 26.2.1, SVG Export Plug-In . SVG Version: 6.00 Build 0)  -->
<svg version="1.1" id="Layer_1" xmlns="http://www.w3.org/2000/svg" xmlns:xlink="http://www.w3.org/1999/xlink" x="0px" y="0px"
	 viewBox="0 0 338 131.9" style="enable-background:new 0 0 338 131.9;" xml:space="preserve">
<style type="text/css">
	.st0{fill:#FA6116;}
</style>
<g id="a">
</g>
<rect class="st0" width="338" height="131.9"/>
<g>
	<path d="M66.3,50.6c0-0.3,0.1-0.6,0.3-0.8c0.2-0.2,0.5-0.4,0.8-0.5c1.3-0.2,2.6-0.3,3.8-0.4c1.2-0.1,2.4-0.2,3.6-0.2
		c1.8,0,3.4,0.1,4.8,0.4c1.4,0.3,2.7,0.7,3.8,1.3c1.1,0.6,1.9,1.3,2.5,2.3c0.6,0.9,1,2.1,1.1,3.5c0.1,1.7-0.1,3.2-0.8,4.5
		c-0.7,1.3-1.6,2.3-2.7,3.1c-1.1,0.8-2.4,1.5-3.9,2c-1.5,0.5-2.9,0.9-4.4,1.1c-0.3,0.1-0.5,0.3-0.5,0.6l0.7,14.8
		c0,0.3-0.1,0.6-0.4,0.9c-0.2,0.3-0.5,0.4-0.8,0.5L69,84c-0.4,0-0.7-0.1-1-0.3c-0.3-0.2-0.4-0.5-0.4-0.9L66.3,50.6z M74.7,61.8
		c0.1,0.4,0.3,0.6,0.7,0.5c0.7,0,1.5-0.2,2.2-0.4c0.8-0.2,1.5-0.6,2.1-1.1s1.1-1.1,1.4-1.9c0.3-0.8,0.5-1.7,0.3-2.8
		c-0.1-0.8-0.3-1.5-0.8-2c-0.4-0.5-0.9-0.9-1.6-1.1c-0.6-0.2-1.3-0.4-2-0.4c-0.7,0-1.5,0-2.2,0.1c-0.4,0.1-0.5,0.3-0.5,0.7
		L74.7,61.8z"/>
	<path d="M94.2,84c-0.3,0-0.6-0.1-0.9-0.3c-0.3-0.2-0.4-0.5-0.4-0.9l-2.2-29.6c0-0.4,0.1-0.7,0.4-0.9c0.2-0.3,0.5-0.4,0.9-0.4
		l5.2-0.1c0.4,0,0.7,0.1,0.9,0.3c0.2,0.2,0.4,0.5,0.4,0.9l0.8,27c0,0.2,0.1,0.4,0.2,0.5c0.1,0.1,0.3,0.2,0.5,0.1l2.6-0.3
		c0.3-0.1,0.6,0,0.9,0.2c0.3,0.2,0.4,0.5,0.5,0.9l0.1,0.7c0,0.4-0.1,0.7-0.4,1c-0.2,0.3-0.5,0.4-0.8,0.4L94.2,84z"/>
	<path d="M116.8,51.8c3,0.1,5.3,0.9,6.8,2.4c1.6,1.5,2.7,3.7,3.3,6.4c0.6,2.7,0.9,6,0.8,9.8c-0.1,3.8-0.3,8.1-0.7,12.8
		c0,0.4-0.1,0.7-0.4,0.9s-0.6,0.3-0.9,0.3l-4.6-0.3c-0.8-0.1-1.2-0.5-1.2-1.3c0-0.6,0.1-1.3,0.1-1.9c0-0.6,0-1.3,0.1-1.9
		c0-0.2-0.1-0.4-0.3-0.5c-0.2-0.1-0.4-0.1-0.6,0c-1.7,0.7-3.3,1.1-5,1.1c-1.9,0-3.5-0.5-4.9-1.4c-1.4-1-2.3-2.4-2.6-4.2
		c-0.3-1.9-0.1-3.5,0.6-4.9c0.7-1.4,1.7-2.5,3-3.3c1.3-0.9,2.8-1.5,4.5-1.8c1.7-0.3,3.3-0.4,4.9-0.2c0.2,0,0.4,0,0.5-0.1
		c0.1-0.1,0.2-0.3,0.2-0.5c-0.2-2.3-0.5-4.1-1.1-5.4c-0.6-1.3-1.5-2-2.9-2.1c-0.7,0-1.3,0.1-1.7,0.5c-0.5,0.4-0.9,0.9-1.2,1.5
		c-0.3,0.6-0.6,1.2-0.8,1.9c-0.2,0.7-0.4,1.3-0.5,1.9c-0.1,0.3-0.2,0.6-0.5,0.8c-0.3,0.2-0.6,0.3-0.9,0.2l-3.4-0.5
		c-0.4,0-0.6-0.2-0.8-0.5c-0.2-0.3-0.3-0.6-0.2-1c0.1-0.7,0.4-1.5,0.8-2.5c0.4-1,1-1.9,1.7-2.8c0.8-0.9,1.8-1.6,3.1-2.2
		C113.3,52,114.9,51.7,116.8,51.8z M111.7,73.2c0.2,0.6,0.5,1.1,1,1.5c0.5,0.3,1.2,0.5,2,0.5c0.8,0,1.7-0.2,2.5-0.5
		c0.9-0.4,1.8-0.9,2.7-1.7c0.3-0.2,0.4-0.4,0.4-0.8c0-0.5,0.1-1,0.1-1.5s0-1,0.1-1.4c0-0.5-0.2-0.8-0.6-1.1
		c-0.4-0.2-0.8-0.4-1.3-0.4c-0.5-0.1-0.9-0.1-1.3-0.1c-0.8,0-1.6,0.1-2.3,0.4c-0.8,0.3-1.4,0.6-2,1.1c-0.5,0.5-0.9,1.1-1.2,1.8
		C111.6,71.5,111.5,72.3,111.7,73.2z"/>
	<path d="M142.2,53.5c0.1-0.3,0.3-0.6,0.6-0.7c0.3-0.2,0.6-0.2,0.9-0.1l3.2,0.9c0.3,0.1,0.6,0.3,0.8,0.6c0.2,0.3,0.2,0.6,0.1,0.9
		l-7.4,27.8c-0.1,0.4-0.3,0.6-0.6,0.8s-0.6,0.2-0.9,0.2l-4.3-1.1c-0.3-0.1-0.6-0.3-0.8-0.6c-0.2-0.3-0.2-0.6-0.1-1l4-13.2
		c0.1-0.3,0-0.5-0.1-0.7l-7.6-8.8c-0.3-0.2-0.4-0.5-0.4-0.9c0-0.4,0.2-0.6,0.5-0.8l1.6-1.3c0.3-0.2,0.6-0.3,0.8-0.3
		c0.3,0,0.6,0.1,0.9,0.4l5.3,5.9c0.2,0.2,0.3,0.3,0.6,0.2s0.4-0.2,0.5-0.5L142.2,53.5z"/>
	<path d="M180.3,58.5c-0.4,0-0.7,0-0.9-0.2c-0.3-0.2-0.4-0.5-0.5-0.8c-0.4-1.8-0.9-3.2-1.6-4.2c-0.7-1-1.6-1.5-2.6-1.4
		c-0.6,0-1.2,0.3-1.7,0.9c-0.5,0.6-1,1.4-1.3,2.6c-0.3,1.1-0.6,2.6-0.7,4.4c-0.1,1.8-0.1,3.9,0.1,6.5c0.1,1.8,0.3,3.5,0.6,5.2
		c0.3,1.7,0.7,3.2,1.1,4.5c0.5,1.3,1,2.4,1.7,3.2c0.7,0.8,1.5,1.1,2.4,1c0.8-0.1,1.4-0.4,1.9-0.9c0.5-0.5,0.8-1.2,1.1-2
		c0.3-0.8,0.4-1.7,0.5-2.7c0.1-1,0.1-2,0.1-3c0-1-0.1-2-0.2-2.9c-0.1-0.9-0.2-1.7-0.3-2.4c-0.1-0.4-0.3-0.6-0.8-0.5l-4,0.7
		c-0.3,0.1-0.6,0-0.9-0.2c-0.3-0.2-0.5-0.5-0.5-0.8l-0.1-0.8c-0.1-0.3,0-0.6,0.2-0.9c0.2-0.3,0.5-0.5,0.8-0.5l9.9-1.9
		c0.4-0.1,0.7,0,1,0.2c0.3,0.2,0.5,0.5,0.6,0.8c0.1,0.8,0.2,1.8,0.4,3.1c0.1,1.3,0.2,2.7,0.2,4.2c0,1.5-0.2,3-0.4,4.6
		c-0.3,1.5-0.7,3-1.4,4.3c-0.7,1.3-1.6,2.5-2.8,3.4c-1.2,0.9-2.7,1.5-4.6,1.8c-2.1,0.3-4,0-5.7-0.8c-1.7-0.8-3.1-2-4.3-3.5
		c-1.2-1.5-2.2-3.3-3-5.3c-0.8-2-1.3-4.1-1.5-6.3c-0.2-2.2-0.2-4.3,0.1-6.5c0.3-2.2,0.8-4.1,1.7-5.9c0.8-1.7,1.9-3.2,3.3-4.3
		c1.4-1.1,3.1-1.8,5-2c1.9-0.2,3.5,0,4.9,0.3c1.3,0.4,2.4,1,3.3,1.7c0.9,0.8,1.5,1.6,2,2.6c0.5,1,0.8,2,1,3c0.1,0.3,0,0.6-0.2,0.9
		c-0.2,0.3-0.5,0.5-0.9,0.5L180.3,58.5z"/>
	<path d="M200.8,51.8c3,0.1,5.3,0.9,6.8,2.4c1.6,1.5,2.7,3.7,3.3,6.4c0.6,2.7,0.9,6,0.8,9.8c-0.1,3.8-0.3,8.1-0.7,12.8
		c0,0.4-0.1,0.7-0.4,0.9s-0.6,0.3-0.9,0.3l-4.6-0.3c-0.8-0.1-1.2-0.5-1.2-1.3c0-0.6,0.1-1.3,0.1-1.9c0-0.6,0-1.3,0.1-1.9
		c0-0.2-0.1-0.4-0.3-0.5c-0.2-0.1-0.4-0.1-0.6,0c-1.7,0.7-3.3,1.1-5,1.1c-1.9,0-3.5-0.5-4.9-1.4c-1.4-1-2.3-2.4-2.6-4.2
		c-0.3-1.9-0.1-3.5,0.6-4.9c0.7-1.4,1.7-2.5,3-3.3c1.3-0.9,2.8-1.5,4.5-1.8c1.7-0.3,3.3-0.4,4.9-0.2c0.2,0,0.4,0,0.5-0.1
		c0.1-0.1,0.2-0.3,0.2-0.5c-0.2-2.3-0.5-4.1-1.1-5.4c-0.6-1.3-1.5-2-2.9-2.1c-0.7,0-1.3,0.1-1.7,0.5c-0.5,0.4-0.9,0.9-1.2,1.5
		c-0.3,0.6-0.6,1.2-0.8,1.9c-0.2,0.7-0.4,1.3-0.5,1.9c-0.1,0.3-0.2,0.6-0.5,0.8c-0.3,0.2-0.6,0.3-0.9,0.2l-3.4-0.5
		c-0.4,0-0.6-0.2-0.8-0.5c-0.2-0.3-0.3-0.6-0.2-1c0.1-0.7,0.4-1.5,0.8-2.5c0.4-1,1-1.9,1.7-2.8c0.8-0.9,1.8-1.6,3.1-2.2
		C197.3,52,198.9,51.7,200.8,51.8z M195.7,73.2c0.2,0.6,0.5,1.1,1,1.5c0.5,0.3,1.2,0.5,2,0.5c0.8,0,1.7-0.2,2.5-0.5
		c0.9-0.4,1.8-0.9,2.7-1.7c0.3-0.2,0.4-0.4,0.4-0.8c0-0.5,0.1-1,0.1-1.5s0-1,0.1-1.4c0-0.5-0.2-0.8-0.6-1.1
		c-0.4-0.2-0.8-0.4-1.3-0.4c-0.5-0.1-0.9-0.1-1.3-0.1c-0.8,0-1.6,0.1-2.3,0.4c-0.8,0.3-1.4,0.6-2,1.1c-0.5,0.5-0.9,1.1-1.2,1.8
		C195.5,71.5,195.5,72.3,195.7,73.2z"/>
	<path d="M243.8,55.7c1.5,0,2.8,0.4,3.8,1.2c1,0.8,1.8,1.8,2.4,3.1c0.6,1.3,1,2.8,1.3,4.5c0.3,1.7,0.4,3.5,0.4,5.5
		c0,2-0.1,4-0.4,6.1s-0.5,4.2-0.9,6.2c-0.1,0.3-0.3,0.6-0.5,0.8c-0.3,0.2-0.6,0.3-0.9,0.2l-3.8-0.5c-0.3-0.1-0.6-0.2-0.8-0.5
		c-0.2-0.3-0.3-0.5-0.2-0.9c0.3-2.5,0.6-5,0.9-7.5s0.5-4.8,0.6-6.9c0.1-2.1,0-3.8-0.3-5.1c-0.3-1.3-0.9-2-1.8-2.1
		c-0.9-0.1-1.6,0.4-2.2,1.5c-0.5,1.1-0.9,2.6-1.2,4.6c-0.3,2-0.5,4.4-0.7,7.3c-0.2,2.9-0.4,6.1-0.6,9.7c0,0.3-0.2,0.6-0.4,0.8
		c-0.2,0.2-0.5,0.4-0.8,0.4h-4.3c-0.4,0-0.7-0.1-0.9-0.4s-0.4-0.6-0.3-1c0-3.8,0.1-7.3,0.2-10.6c0.1-3.3,0-6.1-0.2-8.6
		c-0.2-2.4-0.5-4.3-1-5.7c-0.5-1.4-1.3-2.1-2.5-2.1s-1.9,0.8-2.4,2.3c-0.5,1.5-0.8,3.5-0.8,6c-0.1,2.5,0,5.3,0.2,8.5
		c0.2,3.2,0.4,6.6,0.6,10c0,0.3-0.1,0.6-0.3,0.9s-0.5,0.4-0.9,0.4l-5.6,0.3c-0.3,0-0.6-0.1-0.9-0.3c-0.3-0.2-0.4-0.5-0.4-0.8
		l-2.6-28.9c-0.1-0.3,0-0.6,0.2-0.9c0.2-0.3,0.5-0.4,0.8-0.5l1.9-0.4c0.3-0.1,0.6,0,0.9,0.2c0.3,0.2,0.5,0.5,0.5,0.8l0.7,3.5
		c0,0.3,0.2,0.5,0.5,0.5c0.3,0,0.5-0.1,0.6-0.4c0.8-1.8,1.7-3,2.8-3.8c1.1-0.7,2.4-1.1,3.8-1.2c2.2-0.1,4,0.5,5.3,1.8
		c1.3,1.3,2.3,3.1,3.1,5.3c0.1,0.3,0.3,0.4,0.5,0.4c0.3,0,0.5-0.1,0.6-0.3C239.1,56.8,241.1,55.6,243.8,55.7z"/>
	<path d="M276,72.8c0.3,0,0.6,0.2,0.8,0.4c0.2,0.2,0.3,0.5,0.3,0.8c0,0.6-0.1,1.4-0.2,2.4c-0.2,1-0.5,1.9-1,2.9
		c-0.5,1-1.3,1.8-2.2,2.6c-1,0.8-2.3,1.3-4,1.5c-2.2,0.3-4.1,0.1-5.7-0.6c-1.7-0.7-3.1-1.7-4.3-3c-1.2-1.3-2.1-2.9-2.8-4.6
		c-0.7-1.8-1.1-3.6-1.3-5.6c-0.2-1.9-0.2-3.9,0.1-5.8c0.3-1.9,0.8-3.6,1.6-5.2c0.8-1.6,1.8-2.9,3-4c1.2-1.1,2.7-1.7,4.3-2
		c1.8-0.2,3.3-0.1,4.6,0.3c1.3,0.4,2.4,1.1,3.2,1.9c0.9,0.9,1.6,1.9,2.1,3c0.5,1.1,0.9,2.2,1.2,3.4c0.3,1.1,0.5,2.2,0.6,3.2
		s0.2,1.9,0.2,2.5c0,0.3-0.1,0.6-0.3,0.8c-0.2,0.2-0.5,0.4-0.8,0.4l-10.6,1.5c-0.4,0-0.7,0.2-0.9,0.5c-0.2,0.3-0.3,0.6-0.2,0.9
		c0.1,1.2,0.3,2.2,0.5,3.3c0.3,1,0.6,1.9,1.1,2.7c0.4,0.8,0.9,1.4,1.5,1.8c0.6,0.4,1.2,0.7,1.9,0.7c0.8,0,1.5-0.2,2-0.7
		c0.5-0.4,1-1,1.3-1.6c0.3-0.6,0.6-1.3,0.8-2c0.2-0.7,0.3-1.3,0.4-1.7c0.1-0.3,0.2-0.6,0.5-0.8c0.2-0.2,0.5-0.3,0.8-0.3L276,72.8z
		 M265.4,56.5c-0.5,0.1-1,0.4-1.3,0.9c-0.4,0.5-0.7,1.1-0.9,1.9c-0.2,0.8-0.4,1.6-0.4,2.6s0,2,0.1,3.1c0.1,0.4,0.2,0.7,0.5,1
		c0.2,0.2,0.5,0.3,0.9,0.3l4.7-0.5c0.4,0,0.6-0.2,0.9-0.5c0.2-0.3,0.3-0.5,0.3-0.9c0-0.7-0.1-1.5-0.3-2.4c-0.2-0.9-0.4-1.8-0.8-2.7
		c-0.4-0.9-0.8-1.6-1.4-2.1C267,56.5,266.3,56.3,265.4,56.5z"/>
</g>
</svg>
