<?xml version="1.0" encoding="UTF-8"?><svg id="beeer" xmlns="http://www.w3.org/2000/svg" width="80.94" height="163.43" viewBox="0 0 80.94 163.43"><defs><style>.cls-1{fill:#fff;}.cls-2{stroke-width:.5px;}.cls-2,.cls-3{stroke:#000;stroke-miterlimit:10;}.cls-3{fill:none;}.cls-4{fill:#3c6909;}</style></defs><path class="cls-4" d="M27.4,9.26c3.67,1.33,4.26,12.73,1.46,23.83-.57,2.27-2.69,10.09-11.19,23.34-7.15,11.15-9.01,10.85-12.64,17.02-1.92,3.26-5.9,10.99-4.86,50.58,.66,25.22,2.44,28.36,4.38,30.64,7.34,8.66,20.02,8.7,39.39,8.75,17.02,.05,26.3-.16,32.58-6.81,2.27-2.4,4.78-6.34,4.38-35.5-.36-26.27-.67-39.59-6.81-48.63-4.44-6.55-7.93-7.6-13.13-17.02-4.19-7.6-5.69-13.74-7.78-22.37-1.91-7.86-4.62-19.36-.49-21.88,1.64-1,3.75-.17,5.35-1.95,1.34-1.49,1.78-4.09,.97-5.84C58.25,1.78,56.08,.24,41.99,.02,23.56-.27,21.65,2.28,21.08,3.43c-.84,1.67-.74,4.21,.49,5.35,1.56,1.45,3.86-.23,5.84,.49Z"/><path class="cls-1" d="M62.42,84.15c-2.74-2.54-8.99-2.86-21.4-3.4-19.65-.86-23.08,1.44-24.8,3.4-2.26,2.59-2.51,5.49-2.92,11.19-1.61,22.66-2.37,34.05,0,36.96,5.21,6.39,14.42,6.57,27.23,6.81,10.36,.19,19.93,.37,24.8-5.84,1.7-2.17,2.29-4.43,1.46-22.37-1.03-22.18-2.22-24.74-4.38-26.75Z"/><path class="cls-3" d="M35.43,99.53c-2.68,1.34-3.59,4.24-4.9,8.42-1.44,4.59-1.28,8.33-1.11,10.1,.35,3.8,.68,7.42,3.15,8.74,2.17,1.16,4.79-.03,7.85-1.42,1.69-.77,6.1-3.01,9.68-8.14,2.13-3.05,3.6-5.16,3.26-7.9-.53-4.26-5.05-6.67-7.61-8.04-2.54-1.36-6.76-3.54-10.31-1.77Z"/><path class="cls-3" d="M30.64,108.28l15.1-6.98"/><path class="cls-3" d="M45.08,101.51c1.23,5.74,2.46,11.49,3.69,17.23"/><path class="cls-3" d="M34.14,106.8c-.1,2.54-.02,5.59,.49,8.99,.65,4.4,1.82,8.06,2.95,10.85"/><path class="cls-3" d="M39.82,104.27c-.06,2.5,.08,5.62,.75,9.15,.77,4.03,2,7.35,3.13,9.83"/><path class="cls-3" d="M29.22,116.3c2.82-.21,6.89-.86,11.35-2.89,2.62-1.2,4.73-2.58,6.36-3.83"/><path class="cls-3" d="M30,123.28c2.39-.22,6.14-.86,10.26-2.91,3.71-1.84,6.31-4.13,7.91-5.77"/><path class="cls-2" d="M42.36,98.44c-.05,.33,1.89,.46,4.5,1.91,1.73,.96,2.98,2.06,3.78,2.86-.13-.66-.65-2.97-2.69-4.29-2.39-1.55-5.53-.89-5.59-.48Z"/><path class="cls-2" d="M47.15,97.44l2.67,1.27c2.61-4.88,2.66-5.85,2.41-6.02-.25-.17-1.18,.22-5.08,4.76Z"/></svg>