<?xml version="1.0" encoding="UTF-8"?><svg id="beer3" xmlns="http://www.w3.org/2000/svg" width="67.04" height="124.5" viewBox="0 0 67.04 124.5"><defs><style>.cls-1{fill:#fff;stroke:#000;stroke-width:.5px;}.cls-1,.cls-2{stroke-miterlimit:10;}.cls-2{fill:none;stroke:#ffe190;}.cls-3{fill:#f49f1f;}</style></defs><path class="cls-1" d="M2.65,5.12C1.5,6.48-.28,9.2,.4,26.63c.85,21.61,1.39,32.41,8.79,42.93,2.52,3.58,7.28,9.19,15.81,13.79-.36,5.9-.71,11.81-1.07,17.71-4.01,2.14-8.02,4.28-12.03,6.42-6.47,3.59-10.43,8.29-9.57,11.46,.9,3.31,6.91,4.31,10.91,4.97,4.6,.76,5.89,.04,15.7-.12,4.69-.08,5.61,.07,10.87-.08,10.35-.3,12.61-1.04,13.26-2.63,.64-1.57-.42-3.57-1.25-5.05-1.53-2.75-3.66-4.21-4.87-5.02-3.12-2.09-7.18-4.67-12.13-7.49,.35-6.33,.71-12.65,1.06-18.98,3.48-1.1,8.55-3.24,13.22-7.69,3.66-3.49,6.72-8.04,11.87-26.65,9.17-33.13,5.24-39.42,3.3-41.76-1.62-1.95-3.48-3.08-4.86-3.76-6.19-1.31-14.89-2.82-25.39-3.6C16.8-.19,7.62-.75,2.65,5.12Z"/><path class="cls-2" d="M8.2,19.62c.15-1.31,2.12-2.4,2.4-2.55,.49-.26,2.17-1.07,6.04-.05,3.69,.97,4.42,2.3,8.48,3.73,1.75,.62,3.04,.87,4.84,1.23,6.24,1.23,9.86,.76,18.12,1.12,6.36,.28,9.54,.42,9.67,1.19,.25,1.52-8.59,5.67-18.06,6.46-16.1,1.34-31.94-7.17-31.49-11.14Z"/><path class="cls-3" d="M7.6,20.25c.04,11.31,.72,20.77,1.42,27.81,1.31,13.07,2.61,16.8,4.99,20.19,1.18,1.68,7.27,9.92,16.98,9.98,8.33,.06,13.97-5.94,15.64-7.71,5.62-5.97,7-13.06,9.45-26.63,1.42-7.82,2-14.4,2.27-18.99-3.8,.87-9.7,1.85-16.9,1.4-4.22-.27-6.88-.9-14.51-2.42-4.45-.89-11.09-2.17-19.35-3.64Z"/><ellipse class="cls-2" cx="36.71" cy="36.47" rx="1.91" ry="2" transform="translate(-.28 .29) rotate(-.45)"/><path class="cls-2" d="M42.17,39.59c.77-.01,2.12,.28,2.42,1.25,.3,.97-.65,1.97-1.19,2.54-.52,.55-1.46,1.54-2.41,1.28-1.16-.31-1.97-2.4-1.24-3.78,.65-1.23,2.2-1.28,2.41-1.28Z"/><path class="cls-2" d="M44.55,35.77c.15,.07,1.65,.8,2.42-.02s.05-2.38-.02-2.53c-.15-.32-.52-1.1-1.22-1.26-1.16-.26-2.66,1.34-2.4,2.55,.16,.73,.91,1.1,1.22,1.26Z"/></svg>