<?xml version="1.0" encoding="utf-8"?>
<!-- Generator: Adobe Illustrator 26.3.1, SVG Export Plug-In . SVG Version: 6.00 Build 0)  -->
<svg version="1.1" id="Layer_1" xmlns="http://www.w3.org/2000/svg" xmlns:xlink="http://www.w3.org/1999/xlink" x="0px" y="0px"
	 viewBox="0 0 256.3 256.3" style="enable-background:new 0 0 256.3 256.3;" xml:space="preserve">
<style type="text/css">
	.st0{fill:#F9D66B;}
	.st1{fill:none;}
</style>
<g id="a">
</g>
<g id="b">
	<g id="c">
		<path class="st0" d="M188.1,179.4c0.1,0.6,0.4,1,0.8,1.7c0.4,0.7,1.3,2.2,2.6,2.9c1.7,0.9,3.8,0.1,4.7-0.3
			c9.6-3.8,17.5-19.8,17.5-19.8c3.4-6.8,7.6-15.3,8.6-27.8c1.2-13.9-2.2-24.5-3.4-28c-0.6-1.8-1.6-6.2-9.4-19
			c0,0-9.1-12.3-14.4-13.1c-2.1-0.3-3.5,0.4-3.5,0.4c-1.4,0.8-2.1,2.1-2.4,2.7c-0.2,0.3-0.8,1.5-0.8,2.6c0,2.6,2.4,5.3,3.6,6.1
			c5.6,3.7,13.2,16.7,14.4,19.1c3.4,6.7,2.1,6.2,4.2,13.8c0.7,2.4,1.4,10.4-0.6,20.1c-1.6,7.7-0.3,6.6-4.5,14.6
			c-2.9,5.6-1.2,2.6-6.9,11.1c-1.7,2.6-2.2,2-5.6,5.7c-0.5,0.6-1.8,1.9-2.8,2.7C188.7,175.8,187.8,177.6,188.1,179.4L188.1,179.4z"
			/>
		<circle class="st1" cx="128.2" cy="128.2" r="128.2"/>
		<polygon points="76.1,92.8 107.2,68.4 125.6,49.6 131.2,42.9 135,39.7 138.9,37.5 158.4,37.5 160.5,39.7 160.5,119.1 160.5,216.8 
			157.5,220.4 134.8,220.4 105.3,187.9 76.1,166.3 48.6,165.6 42.3,162 37.8,154.9 37.8,104.2 42.3,96.6 48.1,93 		"/>
		<path d="M169.7,154.4c-1,1.4-1.1,2.7-1.1,3.1c0,0.3-0.1,2.1,1.1,3.6c1.6,2,4.5,2,5.5,2c6.7,0,13.4-9.5,16.6-16.9
			c0.9-2,3.9-9.6,2.8-19.7c-0.9-8.2-4-13.8-6.3-17.8c-2.6-4.6-6.1-10.6-11.4-11.4c-0.9-0.2-3.4-0.5-5.3,0.9
			c-1.6,1.2-2.1,2.9-2.2,3.4c-0.1,0.5-0.6,2.1,0,3.6c0.9,2.6,1.9,3.3,4.5,5.6c1.1,1,2.4,1.6,5.3,5.8c4.6,6.6,3.8,9.8,3.4,13.4
			c-0.5,5-1,12.2-6.4,17.8C174.5,149.9,171.8,151.4,169.7,154.4L169.7,154.4z"/>
		<path d="M188.1,179.4c0.1,0.6,0.4,1,0.8,1.7c0.4,0.7,1.3,2.2,2.6,2.9c1.7,0.9,3.8,0.1,4.7-0.3c9.6-3.8,17.5-19.8,17.5-19.8
			c3.4-6.8,7.6-15.3,8.6-27.8c1.2-13.9-2.2-24.5-3.4-28c-0.6-1.8-1.6-6.2-9.4-19c0,0-9.1-12.3-14.4-13.1c-2.1-0.3-3.5,0.4-3.5,0.4
			c-1.4,0.8-2.1,2.1-2.4,2.7c-0.2,0.3-0.8,1.5-0.8,2.6c0,2.6,2.4,5.3,3.6,6.1c5.6,3.7,13.2,16.7,14.4,19.1c3.4,6.7,2.1,6.2,4.2,13.8
			c0.7,2.4,1.4,10.4-0.6,20.1c-1.6,7.7-0.3,6.6-4.5,14.6c-2.9,5.6-1.2,2.6-6.9,11.1c-1.7,2.6-2.2,2-5.6,5.7
			c-0.5,0.6-1.8,1.9-2.8,2.7C188.7,175.8,187.8,177.6,188.1,179.4L188.1,179.4z"/>
	</g>
</g>
</svg>
