<?xml version="1.0" encoding="UTF-8"?><svg id="beer2" xmlns="http://www.w3.org/2000/svg" width="65.32" height="176.41" viewBox="0 0 65.32 176.41"><defs><style>.cls-1{fill:#fff;stroke:#000;stroke-width:.5px;}.cls-1,.cls-2{stroke-miterlimit:10;}.cls-3{fill:#f4bb1f;}.cls-2{fill:#ffe190;stroke:#ffe190;stroke-width:3px;}.cls-4{fill:#919191;}</style></defs><path class="cls-1" d="M6,3.21c-.73,.94-1.19,1.96-1.38,3.29-.22,1.54-.29,3.71-.44,7.12,0,0-.21,4.55-.72,12.3-.39,5.96-.88,6.06-1.98,15.81C.42,51.11-.09,55.84,.5,57.97c1.39,4.98,5.08,10.6,10.17,14.09,2.49,1.7,4.61,2.42,7.68,5.42,.64,.62,2.75,2.74,4.78,6.08,2.39,3.94,3.33,7.36,4.04,10.05,1.19,4.47,1.43,7.89,1.75,12.64,.17,2.52,.19,3.99,.25,12.24,.14,18.85,.05,16.33,.09,17.65,.14,4.41,.37,8.24-.14,13.74-.22,2.36-.58,4.99-1.97,7.96-.74,1.59-1.82,3.83-4.07,5.64-2.08,1.67-4.12,2.14-7.67,2.92-5.14,1.13-7.38,.56-10.63,2.61-.96,.6-2.37,1.52-2.29,2.59,.11,1.41,2.78,2.38,5.58,3.09,7.07,1.8,13.17,1.56,19.69,1.25,21.2-1,6.35-.5,18.07-1.1,2.99-.15,8.12-.4,14.05-2.82,1.83-.75,5.29-2.19,5.17-3.75-.11-1.38-2.98-2.2-4.57-2.66-4.09-1.18-5.86-.35-9.86-.87-2.08-.27-5.79-.75-8.51-2.91-3.43-2.73-4.08-7.15-4.59-11-2.51-18.92-2.43-23.88-2.43-23.88-.08-1.32-.08-1.98,0-32.36,0-1.63,0-4.79,1.45-8.42,1.03-2.61,2.4-4.45,4.01-6.62,1.96-2.64,3.66-4.39,5.96-6.74,4.81-4.91,5.53-4.6,7.4-7.31,2.52-3.67,3.25-7.08,3.43-8.05,.39-2.08,.42-4.04,.04-7.36-.67-5.9-2.02-9.73-2.76-13.07-1.29-5.86-1.79-10.25-2.45-16.03-1.34-11.82-.74-16.06-4.06-18.38-1-.7-2.83-.99-6.47-1.57-3.16-.5-6.02-.71-11.32-.78-3.18-.05-7.01,.1-14.68,.4-4.92,.19-7.94,.35-9.65,2.55Z"/><path class="cls-4" d="M23.97,173.04c1.49,.3,3.75,.68,6.55,.8,2.4,.11,4.23-.02,7.89-.29,1.69-.12,4.11-.3,7.32-.69,3.61-.44,6.01-.88,9.66-1.57,2.72-.51,4.15-.82,5.57-2.03,.66-.57,1.1-1.15,1.38-1.55-.55,.33-1.35,.77-2.38,1.13-.75,.26-1.52,.45-3.39,.7-1.13,.15-2.61,.32-4.36,.44-9.19,1.32-9.05,1.3-9.2,1.32-1.44,.18-2.5,.29-10.24,.98-3.56,.31-6.56,.58-8.79,.77Z"/><path class="cls-2" d="M3.59,46.5c-.29-.49-.31-1.11-.12-1.95,.09-.42,1.1-4.94,4.24-6.14,3.74-1.43,5.91,3.62,11.48,2.98,2.85-.33,2.99-1.73,5.67-1.57,3.71,.22,4.24,2.97,7.32,2.74,2.21-.17,2.54-1.35,6.77-2.88,.83-.3,1.83-.54,3.16-.67,4.96-.48,7.42,.4,8.85,1.42,.78,.56,1.34,1.17,1.71,1.61,.5,.66,1.31,1.93,1.13,3.36-.28,2.18-2.65,3.38-3.68,3.9-6.16,3.12-13.42-.61-26.31-.36-5.73,.11-11.42-1.56-17.15-1.41-.55,.01-2.39,.09-3.06-1.04Z"/><path class="cls-3" d="M1.73,45.88c.42-.17,1.06-.41,1.87-.6,1.77-.42,3.11-.3,4.28-.26,1.99,.06,1.74-.17,5.23-.32,2.13-.09,2.85-.03,7.64,.03,0,0,3.46,.04,7.16,.05,3.43,0,5.86,.02,9.06-.06,5.63-.14,8.45-.21,10.46-.64,.67-.14,2.36-.53,4.72-.78,1.39-.14,2.55-.19,3.33-.2,.18,.79,.44,1.96,.68,3.39,.63,3.73,1.13,6.65,.62,10.26-.2,1.45-.56,3.84-1.99,6.49-1.16,2.15-2.57,3.62-3.54,4.63-1.65,1.72-2.23,1.86-4.07,3.68-2.08,2.05-2.56,3.07-3.57,4.14-2.98,3.17-7.46,3.42-12.18,3.68-2.79,.16-7.23,.05-12.51-1.69-.45-.45-1.13-1.11-2.02-1.84-2.37-1.96-4.16-2.8-5.47-3.59-3.49-2.1-5.55-4.99-6.6-6.46-1.28-1.8-3.25-4.57-3.86-8.59-.37-2.43-.15-4.71,.06-6.87,.18-1.84,.45-3.36,.68-4.45Z"/><path class="cls-4" d="M6.35,4.54c-.07,.43,3.64,1.36,4.49,1.57,2.11,.53,5.14,1.13,9.4,1.39,1.36,.08,4.61,.24,8.82-.05,4.95-.34,8.6-1.11,11.18-1.66,3.49-.75,7.28-1.78,7.23-2.03-.02-.11-.81,0-3.42,.15t-3.91,.17c-.05,0-5.38,.23-5.38,.23-9.27,.4-9.14,.39-9.29,.4-.25,0-.49,.01-.75,.02-4.77,.08-9.54-.06-9.54-.06-6.89-.19-8.77-.42-8.82-.11Z"/></svg>