<?xml version="1.0" encoding="utf-8"?>
<!-- Generator: Adobe Illustrator 26.2.1, SVG Export Plug-In . SVG Version: 6.00 Build 0)  -->
<svg version="1.1" id="Layer_1" xmlns="http://www.w3.org/2000/svg" xmlns:xlink="http://www.w3.org/1999/xlink" x="0px" y="0px"
	 viewBox="0 0 337.9 132.5" style="enable-background:new 0 0 337.9 132.5;" xml:space="preserve">
<style type="text/css">
	.st0{fill:#FA6116;}
</style>
<g id="a">
</g>
<rect class="st0" width="337.9" height="132.5"/>
<g>
	<path d="M91.4,55.1c0,0.4-0.1,0.7-0.3,0.9c-0.2,0.3-0.5,0.4-0.9,0.4l-5.8,0.2c-0.2,0-0.4,0.1-0.5,0.2c-0.1,0.1-0.2,0.3-0.1,0.5
		l0.6,28c0,0.3-0.1,0.6-0.4,0.9c-0.2,0.3-0.5,0.4-0.8,0.5l-4.1,0.1c-0.4,0-0.7-0.1-1-0.3c-0.2-0.3-0.4-0.5-0.4-0.9l-0.9-27.9
		c0-0.4-0.2-0.6-0.7-0.6l-5,0.2c-0.3,0-0.6-0.1-0.9-0.3c-0.3-0.3-0.4-0.6-0.4-0.9v-1.1c0-0.4,0.1-0.6,0.4-0.9
		c0.2-0.2,0.5-0.3,0.8-0.4l18.8-1.3c0.8,0,1.2,0.4,1.3,1.2L91.4,55.1z"/>
	<path d="M100.5,56.1l0.1,1c0,0.2,0.2,0.4,0.4,0.5c0.2,0.1,0.4,0.1,0.6-0.1c1.6-1.2,3.4-1.6,5.5-1.3c1.4,0.2,2.4,0.6,3.2,1.3
		c0.8,0.7,1.4,1.5,1.7,2.4c0.4,0.9,0.6,1.8,0.7,2.7c0.1,0.9,0.1,1.7,0.1,2.4c0,0.4-0.1,0.7-0.5,0.9c-0.3,0.2-0.6,0.3-1,0.3l-1.9-0.3
		c-0.3,0-0.6-0.2-0.8-0.5c-0.2-0.3-0.3-0.5-0.3-0.9c0-0.4,0-0.9,0-1.4c0-0.5-0.1-1-0.2-1.5s-0.3-0.9-0.6-1.2
		c-0.3-0.3-0.7-0.5-1.1-0.6c-1-0.2-1.9,0.2-2.4,1.1c-0.6,0.9-1,2.4-1.2,4.4c-0.2,2.1-0.3,4.8-0.2,8.1c0.1,3.3,0.2,7.3,0.4,12
		c0,0.3-0.1,0.6-0.3,0.9c-0.2,0.3-0.5,0.4-0.9,0.4l-5,0.2c-0.3,0-0.6-0.1-0.9-0.3c-0.3-0.2-0.4-0.5-0.5-0.9l-1-29.4
		c-0.1-0.3,0-0.6,0.2-0.9c0.2-0.3,0.5-0.4,0.8-0.4l3.7-0.2c0.4,0,0.7,0.1,0.9,0.3C100.4,55.5,100.5,55.7,100.5,56.1z"/>
	<path d="M127.7,56.6c0.1-0.3,0.3-0.6,0.6-0.7c0.3-0.2,0.6-0.2,0.9-0.1l3.2,0.9c0.3,0.1,0.6,0.3,0.8,0.6s0.2,0.6,0.1,0.9L125.9,86
		c-0.1,0.4-0.3,0.6-0.6,0.8c-0.3,0.2-0.6,0.2-0.9,0.2l-4.3-1.1c-0.3-0.1-0.6-0.3-0.8-0.6c-0.2-0.3-0.2-0.6-0.1-1l4-13.2
		c0.1-0.3,0-0.5-0.1-0.7l-7.6-8.8c-0.3-0.2-0.4-0.5-0.4-0.9c0-0.4,0.2-0.6,0.5-0.8l1.6-1.3c0.3-0.2,0.6-0.3,0.8-0.3
		c0.3,0,0.6,0.1,0.9,0.4l5.3,5.9c0.2,0.2,0.4,0.3,0.6,0.2c0.2-0.1,0.4-0.2,0.4-0.5L127.7,56.6z"/>
	<path d="M153.6,87.4l-4.8-1.3c-0.3-0.1-0.6-0.3-0.8-0.5c-0.2-0.3-0.2-0.6-0.1-1l7.6-31.7c0.2-0.6,0.6-1,1.1-1l6.2-0.2
		c0.6,0,1.1,0.3,1.3,0.9l8.7,30.8c0.1,0.3,0,0.6-0.1,0.9s-0.4,0.5-0.8,0.6l-2.9,0.8c-0.3,0.1-0.6,0-0.9-0.1
		c-0.3-0.2-0.5-0.4-0.6-0.7l-2.1-7.1c0-0.1-0.1-0.2-0.2-0.4c-0.1-0.1-0.3-0.2-0.4-0.1l-7.3,0.9c-0.2,0-0.4,0.2-0.5,0.5l-1.9,7.9
		C154.9,87.2,154.4,87.5,153.6,87.4z M158.9,74.2l4.7-0.6c0.4-0.2,0.6-0.4,0.5-0.8l-2.5-8.8c-0.1-0.3-0.3-0.5-0.6-0.5
		c-0.3,0-0.5,0.2-0.6,0.5l-2.1,9.4c-0.1,0.2,0,0.4,0.1,0.6C158.5,74.1,158.7,74.2,158.9,74.2z"/>
	<path d="M196.1,55l1,0.5c0.4,0.2,0.6,0.6,0.7,1c0,0.4-0.1,0.7-0.4,1l-0.2,0.2c-0.2,0.2-0.3,0.4-0.4,0.7c0,0.3,0,0.5,0.2,0.8
		c0.2,0.3,0.3,0.6,0.5,0.9c0.1,0.3,0.2,0.6,0.3,0.9c0.4,1.3,0.4,2.4,0.1,3.4c-0.3,1-0.9,1.9-1.7,2.6c-0.8,0.8-1.7,1.4-2.8,2
		c-1.1,0.6-2.3,1.1-3.5,1.5c-1.3,0.5-2.6,0.9-3.9,1.3c-1.3,0.4-2.4,0.8-3.4,1.1c-1,0.4-1.8,0.7-2.4,1.1c-0.6,0.4-0.8,0.8-0.7,1.4
		c0,0.2,0.4,0.4,1,0.4c0.6,0,1.3-0.1,2.2-0.3c0.9-0.2,1.9-0.4,3.1-0.6s2.3-0.4,3.5-0.6c1.2-0.2,2.4-0.3,3.5-0.3
		c1.4,0,2.6,0.2,3.7,0.6c1.1,0.4,1.9,1.2,2.3,2.3c0.8,1.6,0.9,3,0.3,4.4c-0.5,1.4-1.5,2.5-2.7,3.6c-1.3,1-2.8,1.8-4.5,2.4
		c-1.7,0.6-3.4,0.9-5.1,0.9c-1.5,0-2.9-0.3-4.1-0.9s-2-1.5-2.4-2.8c-0.5-1.5-0.5-2.9,0.1-4.4c0.1-0.2,0-0.5-0.1-0.6
		c-0.1-0.2-0.3-0.2-0.6-0.2c-1.2,0.1-2.2,0-3.1-0.3s-1.5-1-1.7-2.1c-0.4-1.4-0.2-2.6,0.5-3.5c0.7-0.9,1.7-1.8,3.1-2.4
		c0.2-0.1,0.3-0.2,0.4-0.5c0-0.2,0-0.4-0.2-0.5c-0.6-0.5-1.1-1-1.5-1.7c-0.5-0.7-0.8-1.4-0.9-2.2c-0.2-1.3-0.2-2.5,0.3-3.7
		c0.4-1.1,1.1-2.1,2-3c0.9-0.9,1.9-1.6,3.2-2.2c1.2-0.6,2.5-1,3.8-1.3c1.1-0.2,2.1-0.4,3.2-0.4c1.5,0,2.9,0.2,4.3,0.7
		c0.3,0.1,0.6,0.1,0.8,0c0.3-0.1,0.5-0.3,0.7-0.6c0.2-0.4,0.6-0.6,1.1-0.6C195.7,54.8,196,54.8,196.1,55z M186.4,58.7
		c-1.3,0.4-2.1,1-2.6,2c-0.4,1-0.5,1.9-0.3,3s0.7,1.9,1.4,2.7c0.7,0.8,1.6,1.2,2.6,1.2c0.4,0,0.9-0.1,1.4-0.3
		c0.8-0.3,1.3-0.8,1.8-1.4s0.7-1.3,0.8-2c0.1-0.7,0-1.4-0.2-2.2c-0.2-0.7-0.5-1.3-1-1.9c-0.5-0.5-1-0.9-1.7-1.1
		C188,58.5,187.2,58.5,186.4,58.7z M190.5,84c0.8-0.3,1.3-0.8,1.5-1.7s0.2-1.7,0-2.5s-0.7-1.5-1.3-2c-0.6-0.5-1.5-0.6-2.5-0.3
		c-1,0.3-1.6,0.9-1.8,1.7c-0.2,0.8-0.2,1.7,0.1,2.5c0.3,0.8,0.8,1.5,1.6,2C188.9,84.2,189.6,84.3,190.5,84z"/>
	<path d="M212.8,54.8c3,0.1,5.3,0.9,6.8,2.4c1.6,1.5,2.7,3.7,3.3,6.4c0.6,2.7,0.9,6,0.8,9.8c-0.1,3.8-0.3,8.1-0.7,12.8
		c0,0.4-0.1,0.7-0.4,0.9c-0.3,0.2-0.6,0.3-0.9,0.3l-4.6-0.3c-0.8-0.1-1.2-0.5-1.2-1.3c0-0.6,0.1-1.3,0.1-1.9c0-0.6,0-1.3,0.1-1.9
		c0-0.2-0.1-0.4-0.3-0.5c-0.2-0.1-0.4-0.1-0.6,0c-1.7,0.7-3.3,1.1-5,1.1c-1.9,0-3.5-0.5-4.9-1.4c-1.4-1-2.3-2.4-2.6-4.2
		c-0.3-1.9-0.1-3.5,0.6-4.9c0.7-1.4,1.7-2.5,3-3.3c1.3-0.9,2.8-1.5,4.5-1.8c1.7-0.3,3.3-0.4,4.9-0.2c0.2,0,0.4,0,0.5-0.1
		c0.1-0.1,0.2-0.3,0.2-0.5c-0.2-2.3-0.5-4.1-1.1-5.4c-0.6-1.3-1.5-2-2.9-2.1c-0.7,0-1.3,0.1-1.7,0.5c-0.5,0.4-0.9,0.9-1.2,1.5
		c-0.3,0.6-0.6,1.2-0.8,1.9c-0.2,0.7-0.4,1.3-0.5,1.9c-0.1,0.3-0.2,0.6-0.5,0.8c-0.3,0.2-0.6,0.3-0.9,0.2l-3.4-0.5
		c-0.4,0-0.6-0.2-0.8-0.5c-0.2-0.3-0.3-0.6-0.2-1c0.1-0.7,0.4-1.5,0.8-2.5c0.4-1,1-1.9,1.7-2.8c0.8-0.9,1.8-1.6,3.1-2.2
		C209.3,55,210.9,54.8,212.8,54.8z M207.7,76.2c0.2,0.6,0.5,1.1,1,1.5c0.5,0.3,1.2,0.5,2,0.5c0.8,0,1.7-0.2,2.5-0.5
		c0.9-0.4,1.8-0.9,2.7-1.7c0.3-0.2,0.4-0.4,0.4-0.8c0-0.5,0.1-1,0.1-1.5c0-0.5,0-1,0.1-1.4c0-0.5-0.2-0.8-0.6-1
		c-0.4-0.2-0.8-0.4-1.3-0.5c-0.5-0.1-0.9-0.1-1.3-0.1c-0.8,0-1.6,0.1-2.3,0.4c-0.8,0.3-1.4,0.6-2,1.1c-0.5,0.5-0.9,1.1-1.2,1.8
		C207.5,74.5,207.5,75.3,207.7,76.2z"/>
	<path d="M230.2,84.8c-0.3,0-0.6-0.1-0.8-0.4c-0.2-0.2-0.4-0.5-0.4-0.9l-0.1-25.1c0-0.4,0.1-0.7,0.4-0.9c0.2-0.2,0.5-0.4,0.8-0.4
		l3.7-0.1c0.4,0,0.7,0.1,0.9,0.3c0.2,0.2,0.4,0.5,0.4,0.9l0.8,25.1c0,0.4-0.1,0.7-0.3,0.9c-0.2,0.2-0.5,0.4-0.9,0.4L230.2,84.8z"/>
	<path d="M247.1,56l0.1,0.9c0,0.2,0.1,0.4,0.4,0.5c0.2,0.1,0.5,0.1,0.7-0.1c1.5-1.5,3.5-2.3,5.9-2.3c2.1,0,3.9,0.5,5.3,1.4
		c1.4,1,2.5,2.2,3.4,3.8c0.9,1.6,1.5,3.4,2,5.4c0.4,2,0.8,4.1,0.9,6.3s0.3,4.3,0.3,6.5c0,2.2,0,4.1,0.1,5.9c0,0.8-0.4,1.2-1.2,1.3
		l-4.8,0.4c-0.4,0-0.7-0.1-0.9-0.3c-0.3-0.2-0.4-0.5-0.4-0.9c-0.1-3.8-0.2-7.2-0.4-10.5c-0.1-3.2-0.4-6-0.7-8.3s-0.8-4.2-1.5-5.5
		c-0.7-1.3-1.6-2-2.8-2c-1.2,0-2.1,0.7-2.7,2.1c-0.6,1.4-1,3.3-1.3,5.7c-0.2,2.4-0.4,5.3-0.4,8.6c0,3.3-0.1,6.9-0.1,10.7
		c0,0.4-0.1,0.7-0.3,0.9c-0.2,0.2-0.5,0.4-0.9,0.4l-5.2,0.2c-0.4,0-0.7-0.1-0.9-0.3c-0.2-0.2-0.4-0.5-0.4-0.9l-0.7-29.8
		c0-0.3,0.1-0.6,0.4-0.9c0.3-0.3,0.5-0.4,0.9-0.5l3.8-0.1c0.4,0,0.7,0.1,0.9,0.3C246.9,55.4,247.1,55.7,247.1,56z"/>
</g>
</svg>
