<?xml version="1.0" encoding="utf-8"?>
<!-- Generator: Adobe Illustrator 26.3.1, SVG Export Plug-In . SVG Version: 6.00 Build 0)  -->
<svg version="1.1" id="OBJECTS" xmlns="http://www.w3.org/2000/svg" xmlns:xlink="http://www.w3.org/1999/xlink" x="0px" y="0px"
	 viewBox="0 0 209.9 89.4" style="enable-background:new 0 0 209.9 89.4;" xml:space="preserve">
<style type="text/css">
	.st0{fill:none;}
	.st1{fill:#FA6116;}
</style>
<line class="st0" x1="34.6" y1="16.3" x2="37.7" y2="58.2"/>
<path class="st1" d="M182,69.7H27.8v-50H182V69.7z"/>
<g>
	<path d="M47.4,55.8l-3-0.8c-0.2-0.1-0.4-0.2-0.5-0.3c-0.1-0.2-0.1-0.4-0.1-0.6l4.7-19.7c0.1-0.4,0.4-0.6,0.7-0.6l3.8-0.1
		c0.4,0,0.7,0.2,0.8,0.6l5.4,19.1c0,0.2,0,0.4-0.1,0.6c-0.1,0.2-0.3,0.3-0.5,0.4L57,54.7c-0.2,0.1-0.4,0-0.6-0.1
		c-0.2-0.1-0.3-0.2-0.4-0.4l-1.3-4.4c0-0.1-0.1-0.1-0.1-0.2c-0.1-0.1-0.2-0.1-0.3-0.1L49.8,50c-0.1,0-0.2,0.1-0.3,0.3l-1.2,4.9
		C48.3,55.7,47.9,55.9,47.4,55.8z M50.7,47.6l2.9-0.4c0.3-0.1,0.4-0.3,0.3-0.5l-1.6-5.4C52.3,41,52.2,41,52,41
		c-0.2,0-0.3,0.1-0.4,0.3l-1.3,5.8c-0.1,0.2,0,0.3,0.1,0.4C50.5,47.6,50.6,47.6,50.7,47.6z"/>
	<path d="M61.3,34.6c0-0.2,0.1-0.4,0.2-0.5c0.1-0.1,0.3-0.2,0.5-0.3c1.3-0.1,2.4-0.2,3.5-0.2c1.6,0,2.9,0.2,4.1,0.5
		c1.2,0.3,2.1,0.7,2.9,1.2c0.7,0.5,1.3,1.1,1.6,1.8c0.3,0.7,0.5,1.4,0.5,2.2c-0.1,1.7-0.8,3.1-2.2,4c-0.1,0.1-0.2,0.2-0.2,0.3
		c0,0.2,0.1,0.3,0.2,0.3c1,0.5,1.9,1.1,2.5,2c0.6,0.8,0.9,1.9,0.8,3.2c-0.1,1.3-0.5,2.4-1.3,3.3c-0.8,0.8-1.8,1.5-3,2
		c-1.2,0.5-2.6,0.8-4.1,0.9c-1.5,0.2-3.1,0.2-4.7,0.2c-0.2,0-0.4-0.1-0.5-0.2c-0.2-0.1-0.2-0.3-0.2-0.5L61.3,34.6z M66.1,42.4
		c0.1,0.2,0.2,0.4,0.4,0.4c0.8,0,1.5-0.1,2.1-0.4c0.5-0.2,1-0.5,1.3-0.8c0.3-0.3,0.5-0.7,0.6-1.1c0.1-0.4,0.2-0.7,0.1-1.1
		c0-0.4-0.1-0.8-0.2-1.2c-0.1-0.4-0.4-0.7-0.7-1c-0.3-0.3-0.7-0.5-1.3-0.7c-0.6-0.2-1.3-0.3-2.1-0.2c-0.1,0-0.2,0-0.3,0.1
		c-0.1,0.1-0.1,0.2-0.1,0.3L66.1,42.4z M71.6,49.3c0-0.4,0-0.8-0.2-1.3c-0.1-0.5-0.4-1-0.8-1.4c-0.4-0.4-0.9-0.8-1.5-1
		s-1.5-0.3-2.4-0.2c-0.1,0-0.2,0.1-0.3,0.2c-0.1,0.1-0.1,0.2-0.1,0.3l0.3,6.8c0,0.2,0.1,0.4,0.4,0.4c0.8,0,1.4-0.2,2-0.4
		c0.6-0.2,1.1-0.5,1.4-0.8s0.7-0.7,0.9-1.2C71.4,50.2,71.5,49.7,71.6,49.3z"/>
	<path d="M85.1,33.8c1.3-0.1,2.5,0.1,3.5,0.5c1,0.5,1.9,1.2,2.6,2.1c0.7,0.9,1.2,2,1.6,3.2c0.4,1.2,0.6,2.5,0.7,3.9
		c0.1,1.5,0,3-0.2,4.4c-0.2,1.4-0.7,2.7-1.3,3.9c-0.6,1.1-1.4,2.1-2.4,2.7c-1,0.7-2.3,1-3.8,1c-1.3,0-2.5-0.3-3.5-0.9
		c-1-0.6-1.8-1.4-2.5-2.3c-0.7-1-1.2-2.1-1.5-3.3c-0.3-1.3-0.5-2.6-0.5-3.9c0-1.4,0.1-2.8,0.4-4.1c0.3-1.3,0.7-2.5,1.2-3.5
		c0.6-1,1.3-1.9,2.2-2.5C82.7,34.3,83.8,33.9,85.1,33.8z M85.6,35.8c-0.7,0-1.3,0.3-1.7,0.9c-0.4,0.6-0.7,1.4-0.9,2.4
		c-0.2,1-0.3,2-0.3,3.1c0,1.1,0,2.1,0,3.1c0.1,1,0.2,2.1,0.2,3.1c0.1,1,0.2,1.9,0.5,2.7c0.2,0.8,0.6,1.5,1,2c0.4,0.5,1,0.8,1.8,0.8
		c0.6,0,1.2-0.3,1.5-0.9c0.4-0.6,0.6-1.4,0.8-2.3c0.2-0.9,0.3-2,0.3-3.1c0-1.1,0-2.2-0.1-3.3c-0.1-1-0.2-2-0.3-3
		c-0.1-1-0.3-1.9-0.5-2.7c-0.2-0.8-0.5-1.4-0.9-1.9C86.7,36,86.2,35.8,85.6,35.8z"/>
	<path d="M100.2,34c0.2,0,0.4,0.1,0.5,0.2c0.2,0.1,0.2,0.3,0.2,0.6c0,2.9-0.1,5.5-0.1,7.8c0,2.3,0,4.3,0.1,5.9
		c0.1,1.6,0.3,2.9,0.7,3.7c0.4,0.9,0.9,1.3,1.7,1.3c0.9,0,1.6-0.5,2.1-1.6c0.5-1.1,0.8-2.5,1-4.2c0.2-1.8,0.3-3.8,0.3-6
		c0-2.2-0.1-4.6-0.1-6.9c0-0.2,0-0.4,0.2-0.6c0.1-0.2,0.3-0.2,0.6-0.2l2.8-0.1c0.2,0,0.4,0.1,0.6,0.2c0.1,0.1,0.2,0.3,0.3,0.6
		c0,1,0.1,2.3,0.2,3.7c0.1,1.4,0.1,2.9,0.1,4.5c0,1.6-0.2,3.1-0.4,4.7c-0.2,1.5-0.7,2.9-1.3,4.1s-1.4,2.2-2.5,2.9
		c-1.1,0.7-2.4,1.1-4.1,1c-1.2,0-2.3-0.3-3.1-0.9c-0.8-0.5-1.5-1.3-2.1-2.3c-0.5-1-1-2.1-1.2-3.4c-0.3-1.3-0.5-2.7-0.6-4.3
		c-0.1-1.5-0.2-3.2-0.1-4.9c0-1.7,0.1-3.5,0.1-5.3c0-0.2,0.1-0.4,0.2-0.5c0.1-0.1,0.3-0.2,0.6-0.2H100.2z"/>
	<path d="M126.4,35.7c0,0.2,0,0.4-0.2,0.6c-0.1,0.2-0.3,0.2-0.6,0.2l-3.6,0.2c-0.1,0-0.2,0-0.3,0.1c-0.1,0.1-0.1,0.2-0.1,0.3
		l0.4,17.4c0,0.2-0.1,0.4-0.2,0.5c-0.1,0.2-0.3,0.3-0.5,0.3l-2.6,0.1c-0.2,0-0.4,0-0.6-0.2c-0.1-0.2-0.2-0.3-0.2-0.5l-0.6-17.4
		c0-0.2-0.1-0.4-0.4-0.4l-3.1,0.1c-0.2,0-0.4,0-0.6-0.2c-0.2-0.2-0.3-0.4-0.3-0.6v-0.7c0-0.2,0.1-0.4,0.2-0.5
		c0.1-0.1,0.3-0.2,0.5-0.2l11.7-0.8c0.5,0,0.8,0.2,0.8,0.7L126.4,35.7z"/>
	<path d="M140.1,34c0.2,0,0.4,0.1,0.5,0.2c0.2,0.1,0.2,0.3,0.2,0.6c0,2.9-0.1,5.5-0.1,7.8c0,2.3,0,4.3,0.1,5.9
		c0.1,1.6,0.3,2.9,0.7,3.7c0.4,0.9,0.9,1.3,1.7,1.3c0.9,0,1.6-0.5,2.1-1.6c0.5-1.1,0.8-2.5,1-4.2c0.2-1.8,0.3-3.8,0.3-6
		c0-2.2-0.1-4.6-0.1-6.9c0-0.2,0-0.4,0.2-0.6c0.1-0.2,0.3-0.2,0.6-0.2l2.8-0.1c0.2,0,0.4,0.1,0.6,0.2c0.1,0.1,0.2,0.3,0.3,0.6
		c0,1,0.1,2.3,0.2,3.7c0.1,1.4,0.1,2.9,0.1,4.5c0,1.6-0.2,3.1-0.4,4.7c-0.2,1.5-0.7,2.9-1.3,4.1c-0.6,1.2-1.4,2.2-2.5,2.9
		c-1.1,0.7-2.4,1.1-4.1,1c-1.2,0-2.3-0.3-3.1-0.9c-0.8-0.5-1.5-1.3-2.1-2.3c-0.5-1-1-2.1-1.2-3.4c-0.3-1.3-0.5-2.7-0.6-4.3
		c-0.1-1.5-0.2-3.2-0.1-4.9c0-1.7,0.1-3.5,0.1-5.3c0-0.2,0.1-0.4,0.2-0.5c0.1-0.1,0.3-0.2,0.6-0.2H140.1z"/>
	<path d="M162.9,40.5c-0.2,0-0.4,0-0.5-0.2c-0.2-0.1-0.2-0.3-0.2-0.6c0-2.6-0.7-3.9-2-3.9c-0.7,0-1.3,0.3-1.6,1
		c-0.4,0.6-0.5,1.4-0.3,2.3c0.1,0.7,0.4,1.3,0.9,1.8c0.4,0.5,0.9,0.9,1.5,1.3c0.6,0.4,1.2,0.8,1.8,1.2c0.6,0.4,1.2,0.9,1.8,1.4
		c0.5,0.6,1,1.3,1.3,2.1c0.3,0.8,0.5,1.9,0.5,3.1c0,0.9-0.2,1.7-0.6,2.4c-0.4,0.7-0.9,1.3-1.5,1.8c-0.6,0.5-1.3,0.9-2.2,1.1
		c-0.8,0.2-1.7,0.4-2.5,0.3c-0.8,0-1.5-0.2-2.1-0.5c-0.7-0.3-1.2-0.7-1.7-1.3c-0.5-0.6-0.8-1.3-1-2.1c-0.2-0.9-0.3-1.9-0.2-3.1
		c0-0.2,0.1-0.4,0.2-0.5c0.1-0.1,0.3-0.2,0.5-0.2l1.9-0.1c0.2,0,0.4,0.1,0.6,0.2c0.2,0.2,0.3,0.3,0.3,0.5c0,0.6,0,1.2,0.1,1.8
		c0,0.6,0.1,1.2,0.2,1.6s0.3,0.9,0.5,1.2c0.2,0.3,0.5,0.5,0.9,0.5c0.3,0,0.6,0,0.9-0.2c0.3-0.1,0.6-0.3,0.8-0.6
		c0.2-0.3,0.4-0.7,0.5-1.1c0.1-0.5,0.1-1,0.1-1.7c-0.1-0.9-0.4-1.6-0.8-2.2c-0.4-0.6-1-1.1-1.6-1.6c-0.6-0.5-1.3-0.9-1.9-1.3
		c-0.7-0.4-1.3-0.9-1.8-1.4c-0.6-0.5-1-1.2-1.4-1.9c-0.4-0.7-0.6-1.6-0.6-2.7c0-0.9,0.1-1.6,0.4-2.3c0.3-0.6,0.7-1.2,1.2-1.6
		c0.5-0.4,1.1-0.8,1.8-1s1.5-0.4,2.3-0.5c0.8,0,1.6,0.1,2.4,0.3c0.7,0.3,1.4,0.7,2,1.2c0.6,0.5,1,1.2,1.4,2c0.3,0.8,0.5,1.6,0.6,2.6
		c0,0.2-0.1,0.4-0.2,0.6c-0.1,0.1-0.3,0.2-0.6,0.3L162.9,40.5z"/>
</g>
</svg>
