<?xml version="1.0" encoding="UTF-8"?><svg xmlns="http://www.w3.org/2000/svg" width="65" height="22" viewBox="0 0 65 22"><defs><style>.d{fill:#fa6116;}</style></defs><g id="a"/><g id="b"><g id="c"><rect class="d" width="65" height="22" rx="5.57" ry="5.57"/><g><path d="M20.17,6.84c0-.08,.03-.16,.08-.22,.05-.06,.12-.1,.21-.11,.54-.06,1.05-.1,1.5-.1,.67,0,1.26,.07,1.75,.2,.5,.13,.9,.31,1.22,.54s.55,.49,.7,.78c.15,.3,.22,.62,.21,.96-.02,.74-.33,1.31-.93,1.73-.05,.03-.08,.08-.07,.14,0,.06,.04,.11,.1,.14,.45,.2,.8,.48,1.06,.84,.26,.36,.37,.81,.35,1.35-.03,.58-.21,1.05-.54,1.41-.33,.36-.75,.64-1.27,.84-.52,.2-1.11,.33-1.77,.4-.66,.07-1.33,.1-2.02,.1-.09,0-.16-.03-.23-.09s-.1-.14-.1-.23l-.26-8.69Zm2.05,3.36c.02,.11,.09,.16,.19,.16,.36-.01,.66-.06,.89-.16,.23-.1,.41-.21,.54-.35s.22-.29,.27-.46c.05-.17,.07-.32,.06-.46-.01-.17-.05-.34-.1-.51-.06-.17-.15-.32-.29-.45s-.32-.23-.56-.31c-.24-.08-.55-.11-.92-.09-.05-.01-.1,0-.13,.03-.03,.03-.04,.07-.03,.11l.08,2.48Zm2.35,2.93c.01-.16-.01-.35-.07-.56-.06-.21-.17-.41-.33-.6s-.38-.34-.65-.45-.62-.15-1.05-.1c-.05,.01-.1,.03-.14,.07s-.05,.08-.04,.14l.11,2.93c0,.11,.05,.16,.16,.16,.33-.01,.62-.06,.86-.16,.25-.1,.45-.22,.62-.36s.29-.31,.38-.5c.09-.19,.13-.38,.14-.57Z"/><path d="M29.45,8.35c.51-.09,.96-.06,1.35,.07,.39,.13,.72,.33,1,.58s.49,.55,.65,.9c.15,.34,.25,.68,.3,1.02,.05,.36,.05,.73-.02,1.11-.06,.38-.19,.73-.38,1.05-.19,.32-.46,.59-.8,.82s-.77,.36-1.28,.42c-.42,.04-.8,0-1.15-.1-.35-.11-.66-.27-.94-.49-.27-.21-.5-.47-.68-.78-.18-.31-.31-.64-.4-.99-.07-.37-.09-.75-.05-1.14,.04-.39,.15-.75,.34-1.09,.18-.34,.44-.63,.78-.88,.34-.25,.77-.41,1.28-.49Zm.22,.75c-.18,.03-.33,.13-.44,.28-.11,.15-.19,.35-.24,.58-.05,.23-.07,.48-.07,.76s.02,.55,.05,.82c.03,.25,.07,.48,.13,.71,.05,.23,.13,.43,.22,.6,.1,.17,.21,.3,.35,.4,.14,.1,.3,.14,.5,.13,.22-.02,.4-.1,.53-.25,.13-.14,.22-.33,.29-.54s.1-.47,.1-.74-.02-.55-.06-.82c-.03-.26-.08-.5-.15-.74-.07-.24-.16-.45-.26-.63-.11-.18-.23-.32-.38-.42-.15-.1-.33-.14-.54-.12Z"/><path d="M36.04,8.35c.51-.09,.96-.06,1.35,.07,.39,.13,.72,.33,1,.58s.49,.55,.65,.9c.15,.34,.25,.68,.3,1.02,.05,.36,.05,.73-.02,1.11-.06,.38-.19,.73-.38,1.05-.19,.32-.46,.59-.8,.82s-.77,.36-1.28,.42c-.42,.04-.8,0-1.15-.1-.35-.11-.66-.27-.94-.49-.27-.21-.5-.47-.68-.78-.18-.31-.31-.64-.4-.99-.07-.37-.09-.75-.05-1.14,.04-.39,.15-.75,.34-1.09,.18-.34,.44-.63,.78-.88,.34-.25,.77-.41,1.28-.49Zm.22,.75c-.18,.03-.33,.13-.44,.28-.11,.15-.19,.35-.24,.58-.05,.23-.07,.48-.07,.76s.02,.55,.05,.82c.03,.25,.07,.48,.13,.71,.05,.23,.13,.43,.22,.6,.1,.17,.21,.3,.35,.4,.14,.1,.3,.14,.5,.13,.22-.02,.4-.1,.53-.25,.13-.14,.22-.33,.29-.54s.1-.47,.1-.74-.02-.55-.06-.82c-.03-.26-.08-.5-.15-.74-.07-.24-.16-.45-.26-.63-.11-.18-.23-.32-.38-.42-.15-.1-.33-.14-.54-.12Z"/><path d="M40.65,7.43l1.26-.1c.1-.01,.18,.02,.24,.08s.1,.14,.11,.22l.22,2.53c.01,.07,.05,.13,.11,.15,.06,.03,.12,.01,.18-.04l2.21-2.08c.06-.06,.14-.1,.22-.1s.15,.03,.21,.08l.19,.14c.06,.05,.1,.13,.1,.22,0,.09-.02,.17-.07,.25l-1.12,1.34c-.04,.07-.05,.14-.02,.21l2.51,4.46c.04,.07,.05,.16,.02,.25-.03,.09-.08,.16-.17,.2l-.58,.3c-.09,.04-.17,.05-.25,.03-.08-.02-.14-.07-.18-.14l-2.32-3.78s-.08-.07-.14-.07-.1,.01-.14,.06l-.58,.66s-.03,.09-.03,.13l.27,3.01c.01,.1-.02,.18-.08,.26s-.15,.11-.26,.11l-1.49,.02c-.1,.01-.18-.02-.24-.08s-.1-.14-.1-.24l-.42-7.71c-.02-.1,0-.18,.06-.24s.14-.11,.22-.13Z"/></g></g></g></svg>