<?xml version="1.0" encoding="UTF-8"?><svg id="OBJECTS" xmlns="http://www.w3.org/2000/svg" viewBox="0 0 209.87 89.36"><defs><style>.cls-1{fill:#fa6116;}.cls-2{fill:none;}</style></defs><line class="cls-2" x1="34.64" y1="16.34" x2="37.7" y2="58.21"/><path class="cls-1" d="M183.32,64.85H29.11V14.81H183.32v50.04Z"/><g><path d="M69.91,30.26c0-.21,.07-.4,.2-.56s.31-.25,.52-.28c1.36-.16,2.61-.24,3.76-.24,1.68,0,3.14,.17,4.38,.5,1.24,.33,2.26,.78,3.06,1.34,.8,.56,1.39,1.21,1.76,1.96,.37,.75,.55,1.55,.52,2.4-.05,1.84-.83,3.28-2.32,4.32-.13,.08-.19,.2-.18,.36s.1,.28,.26,.36c1.12,.51,2,1.21,2.64,2.1s.93,2.02,.88,3.38c-.08,1.44-.53,2.61-1.36,3.52-.83,.91-1.89,1.61-3.18,2.1-1.29,.49-2.77,.83-4.42,1s-3.33,.26-5.04,.26c-.21,0-.41-.07-.58-.22-.17-.15-.26-.34-.26-.58l-.64-21.72Zm5.12,8.4c.05,.27,.21,.4,.48,.4,.91-.03,1.65-.16,2.22-.4s1.03-.53,1.36-.88c.33-.35,.56-.73,.68-1.14s.17-.79,.14-1.14c-.03-.43-.11-.85-.26-1.28s-.39-.8-.72-1.12c-.33-.32-.8-.58-1.4-.78-.6-.2-1.37-.27-2.3-.22-.13-.03-.24,0-.32,.08-.08,.08-.11,.17-.08,.28l.2,6.2Zm5.88,7.32c.03-.4-.03-.87-.18-1.4-.15-.53-.42-1.03-.82-1.5-.4-.47-.94-.84-1.62-1.12-.68-.28-1.55-.37-2.62-.26-.13,.03-.25,.09-.34,.18s-.13,.21-.1,.34l.28,7.32c0,.27,.13,.4,.4,.4,.83-.03,1.55-.16,2.16-.4s1.13-.54,1.54-.9c.41-.36,.73-.77,.94-1.24,.21-.47,.33-.94,.36-1.42Z"/><path d="M95.47,29.42c1.44-.13,2.71,.06,3.8,.58,1.09,.52,2.01,1.27,2.76,2.24,.75,.97,1.32,2.12,1.72,3.44,.4,1.32,.64,2.71,.72,4.18,.08,1.6,0,3.17-.26,4.7-.25,1.53-.7,2.91-1.34,4.14-.64,1.23-1.5,2.21-2.58,2.94-1.08,.73-2.42,1.1-4.02,1.1-1.41-.03-2.65-.35-3.7-.98-1.05-.63-1.93-1.46-2.64-2.5-.71-1.04-1.24-2.23-1.6-3.58-.36-1.35-.54-2.75-.54-4.22s.14-2.98,.42-4.38c.28-1.4,.72-2.65,1.32-3.74,.6-1.09,1.39-1.99,2.38-2.7,.99-.71,2.17-1.11,3.56-1.22Zm.48,2.08c-.75-.03-1.34,.29-1.78,.96-.44,.67-.76,1.51-.96,2.54-.2,1.03-.32,2.13-.36,3.32s-.03,2.29,.02,3.3c.08,1.12,.17,2.22,.26,3.3,.09,1.08,.27,2.05,.52,2.9,.25,.85,.61,1.55,1.08,2.1,.47,.55,1.1,.82,1.9,.82,.69,0,1.24-.33,1.64-.98,.4-.65,.69-1.48,.88-2.48s.29-2.11,.32-3.32c.03-1.21,0-2.41-.08-3.58-.08-1.07-.17-2.13-.28-3.18-.11-1.05-.29-2-.54-2.84-.25-.84-.59-1.52-1-2.04-.41-.52-.95-.79-1.62-.82Z"/><path d="M114.39,29.42c1.44-.13,2.71,.06,3.8,.58,1.09,.52,2.01,1.27,2.76,2.24,.75,.97,1.32,2.12,1.72,3.44,.4,1.32,.64,2.71,.72,4.18,.08,1.6,0,3.17-.26,4.7-.25,1.53-.7,2.91-1.34,4.14s-1.5,2.21-2.58,2.94-2.42,1.1-4.02,1.1c-1.41-.03-2.65-.35-3.7-.98-1.05-.63-1.93-1.46-2.64-2.5-.71-1.04-1.24-2.23-1.6-3.58s-.54-2.75-.54-4.22,.14-2.98,.42-4.38c.28-1.4,.72-2.65,1.32-3.74,.6-1.09,1.39-1.99,2.38-2.7,.99-.71,2.17-1.11,3.56-1.22Zm.48,2.08c-.75-.03-1.34,.29-1.78,.96-.44,.67-.76,1.51-.96,2.54-.2,1.03-.32,2.13-.36,3.32-.04,1.19-.03,2.29,.02,3.3,.08,1.12,.17,2.22,.26,3.3s.27,2.05,.52,2.9c.25,.85,.61,1.55,1.08,2.1,.47,.55,1.1,.82,1.9,.82,.69,0,1.24-.33,1.64-.98,.4-.65,.69-1.48,.88-2.48,.19-1,.29-2.11,.32-3.32,.03-1.21,0-2.41-.08-3.58-.08-1.07-.17-2.13-.28-3.18-.11-1.05-.29-2-.54-2.84-.25-.84-.59-1.52-1-2.04-.41-.52-.95-.79-1.62-.82Z"/><path d="M131.27,30.02l.2,5.76c.03,.19,.12,.32,.28,.4,.16,.08,.31,.05,.44-.08l6.8-6.12c.13-.13,.32-.2,.56-.2s.43,.07,.56,.2l1.08,1c.21,.13,.33,.33,.34,.58,.01,.25-.09,.46-.3,.62l-3.48,3.28c-.13,.13-.16,.29-.08,.48l6.68,14.8c.11,.21,.11,.43,.02,.66-.09,.23-.25,.38-.46,.46l-2.24,.8c-.19,.08-.38,.08-.58,0s-.35-.23-.46-.44l-6.12-12.92c-.08-.13-.19-.21-.32-.24-.13-.03-.25,.01-.36,.12l-2,1.88c-.11,.08-.16,.2-.16,.36l.44,10.24c.03,.24-.05,.45-.22,.62-.17,.17-.38,.26-.62,.26h-3.92c-.21,0-.41-.08-.58-.24-.17-.16-.26-.35-.26-.56l-.68-21.56c0-.24,.08-.44,.24-.6s.35-.24,.56-.24l3.8-.08c.21-.03,.41,.04,.58,.2s.26,.35,.26,.56Z"/></g></svg>