<?xml version="1.0" encoding="UTF-8"?><svg xmlns="http://www.w3.org/2000/svg" width="70" height="28" viewBox="0 0 70 28"><defs><style>.d{fill:#f4bb1f;}</style></defs><g id="a"/><g id="b"><g id="c"><rect class="d" x="0" width="70" height="28" rx="5.57" ry="5.57"/><g><path d="M23.4,8.26c.11-.03,.2,0,.29,.08,.09,.08,.14,.17,.17,.28,.12,.83,.24,1.67,.35,2.54s.2,1.71,.25,2.52c.05,.81,.07,1.58,.04,2.31-.03,.73-.12,1.37-.28,1.94-.16,.57-.41,1.04-.74,1.41-.33,.37-.78,.61-1.34,.7-.27,.05-.54,.08-.82,.08-.68,0-1.21-.15-1.6-.46s-.68-.69-.89-1.14c-.21-.45-.34-.94-.4-1.46-.06-.52-.1-.99-.11-1.4,0-.11,.04-.2,.11-.28,.07-.08,.16-.13,.27-.14l1.06-.14c.11-.01,.2,.02,.29,.1s.14,.17,.17,.28c.05,.44,.11,.87,.18,1.3,.07,.43,.15,.81,.24,1.14,.09,.33,.21,.59,.34,.78,.13,.19,.29,.27,.48,.24,.25-.03,.43-.21,.54-.56,.11-.35,.16-.79,.16-1.34s-.04-1.17-.12-1.86-.17-1.41-.28-2.14c-.11-.73-.22-1.45-.34-2.16-.12-.71-.21-1.35-.28-1.92-.03-.12,0-.22,.07-.31,.07-.09,.17-.14,.29-.15l1.9-.24Z"/><path d="M29.78,8.46c.72-.07,1.35,.03,1.9,.29,.55,.26,1.01,.63,1.38,1.12,.37,.49,.66,1.06,.86,1.72,.2,.66,.32,1.36,.36,2.09,.04,.8,0,1.58-.13,2.35-.13,.77-.35,1.46-.67,2.07-.32,.61-.75,1.1-1.29,1.47s-1.21,.55-2.01,.55c-.71-.01-1.32-.18-1.85-.49-.53-.31-.97-.73-1.32-1.25-.35-.52-.62-1.12-.8-1.79-.18-.67-.27-1.38-.27-2.11s.07-1.49,.21-2.19c.14-.7,.36-1.32,.66-1.87,.3-.55,.7-1,1.19-1.35,.49-.35,1.09-.56,1.78-.61Zm.24,1.04c-.37-.01-.67,.15-.89,.48-.22,.33-.38,.76-.48,1.27-.1,.51-.16,1.07-.18,1.66s-.02,1.14,.01,1.65c.04,.56,.08,1.11,.13,1.65,.05,.54,.13,1.02,.26,1.45,.13,.43,.31,.78,.54,1.05,.23,.27,.55,.41,.95,.41,.35,0,.62-.16,.82-.49,.2-.33,.35-.74,.44-1.24s.15-1.05,.16-1.66c.01-.61,0-1.2-.04-1.79-.04-.53-.09-1.06-.14-1.59-.05-.53-.14-1-.27-1.42-.13-.42-.29-.76-.5-1.02-.21-.26-.48-.4-.81-.41Z"/><path d="M40.38,18.54c.11-.01,.2,.02,.29,.09,.09,.07,.14,.16,.15,.27l.04,.34c.01,.13-.02,.24-.09,.33-.07,.09-.17,.14-.29,.15l-4.96,.32c-.13,.01-.24-.02-.33-.11-.09-.09-.13-.18-.13-.29v-.28c0-.11,.04-.2,.11-.29,.07-.09,.16-.14,.27-.15l1.26-.08c.05,0,.1-.02,.13-.07,.03-.05,.05-.1,.05-.17l-.52-8.56c0-.05-.02-.1-.07-.14-.05-.04-.1-.05-.17-.04l-.66,.06c-.27,.03-.42-.09-.46-.36l-.08-.54c-.03-.13,0-.25,.08-.34,.08-.09,.18-.14,.3-.14l4.42-.1c.25,0,.39,.13,.42,.4l.02,.22c.01,.12-.02,.22-.1,.3s-.17,.13-.28,.14l-.68,.06c-.05,0-.1,.02-.13,.07-.03,.05-.05,.1-.05,.17l.36,8.62c0,.05,.02,.1,.07,.13s.1,.05,.15,.05l.88-.06Z"/><path d="M50.94,19.4c.01,.12-.02,.22-.09,.3-.07,.08-.16,.13-.27,.14l-1.62,.2c-.07,.01-.14,0-.22-.04-.08-.04-.14-.1-.18-.18l-3.88-6.72c-.05-.11-.13-.14-.23-.11-.1,.03-.15,.1-.15,.21v6.06c0,.13-.04,.24-.12,.32-.08,.08-.18,.11-.3,.1l-1.2-.02c-.11-.01-.2-.06-.28-.14s-.12-.17-.12-.28l.12-10.06c0-.11,.04-.2,.11-.27s.16-.12,.27-.15l1.5-.14c.2-.03,.34,.05,.42,.22l4.14,7.34c.05,.11,.13,.14,.24,.11,.11-.03,.16-.1,.16-.21l-.4-6.76c-.01-.12,.02-.22,.09-.31,.07-.09,.17-.13,.29-.13l.68-.06c.12-.01,.22,.02,.31,.09,.09,.07,.14,.18,.15,.31l.58,10.18Z"/></g></g></g></svg>