<?xml version="1.0" encoding="UTF-8"?><svg id="Shoe_right_2" xmlns="http://www.w3.org/2000/svg" width="845.62" height="980.43" viewBox="0 0 845.62 980.43"><defs><style>.cls-1{fill:#1f1f1f;}.cls-2{fill:#fbf8ef;}</style></defs><rect class="cls-1" width="845.62" height="980.43"/><path class="cls-2" d="M819.36,439.36c-4.16-.08-7.53-3.46-7.56-7.59-.03-4.23,3.68-7.86,7.93-7.75,4.13,.11,7.5,3.55,7.53,7.66,.03,4.36-3.48,7.76-7.89,7.67Z"/><path class="cls-2" d="M817.12,409.18c-4.16-.08-7.53-3.46-7.56-7.59-.03-4.23,3.68-7.86,7.93-7.75,4.13,.11,7.5,3.55,7.53,7.66,.03,4.36-3.48,7.76-7.89,7.67Z"/><path class="cls-2" d="M654.38,130.6c-4.18,.04-7.56-3.2-7.71-7.39-.16-4.35,3.28-8.01,7.56-8.06,4.23-.05,7.88,3.65,7.79,7.9-.09,4.12-3.52,7.51-7.64,7.55Z"/><path class="cls-2" d="M610.37,91.45c.08,4.12-3.21,7.62-7.35,7.82-4.37,.2-7.91-3.17-7.97-7.58-.05-4.2,3.13-7.65,7.28-7.87,4.23-.22,7.96,3.32,8.04,7.63Z"/><path class="cls-2" d="M778.99,635.41c-.11,4.3-3.84,7.74-8.14,7.5-4.18-.23-7.28-3.63-7.2-7.89,.08-4.17,3.47-7.55,7.59-7.57,4.22-.02,7.85,3.71,7.75,7.96Z"/><path class="cls-2" d="M100.92,685.23c-4.27-.07-7.83-3.85-7.61-8.09,.21-4.11,3.77-7.47,7.84-7.39,4.3,.08,7.72,3.74,7.54,8.08-.18,4.14-3.68,7.47-7.77,7.4Z"/><path class="cls-2" d="M77.94,241.23c4.15-.06,7.56,3.2,7.72,7.38,.17,4.36-3.23,8.01-7.53,8.08-4.05,.07-7.6-3.31-7.79-7.43-.2-4.29,3.28-7.97,7.6-8.04Z"/><path class="cls-2" d="M92.04,652.13c.1,4.15-3.12,7.63-7.29,7.85-4.34,.23-8.05-3.16-8.17-7.46-.12-4.11,3.18-7.61,7.33-7.8,4.46-.2,8.01,3.04,8.12,7.41Z"/><path class="cls-2" d="M517.89,67.76c-4.18,.01-7.57-3.37-7.63-7.6-.06-4.5,3.38-7.96,7.81-7.84,4.2,.11,7.52,3.58,7.48,7.79-.05,4.19-3.5,7.64-7.65,7.65Z"/><path class="cls-2" d="M175.81,142.53c-4.26,.09-7.94-3.56-7.9-7.81,.04-4.07,3.52-7.58,7.59-7.67,4.08-.09,7.61,3.24,7.8,7.37,.2,4.35-3.19,8.02-7.5,8.11Z"/><path class="cls-2" d="M582.98,78.69c.14,4.15-3.19,7.66-7.41,7.82-4.33,.16-7.78-2.9-8.04-7.14-.27-4.37,3.17-8.03,7.6-8.1,4.24-.06,7.71,3.22,7.86,7.42Z"/><path class="cls-2" d="M652.01,777.2c-4.06,.13-7.68-3.19-7.94-7.29-.28-4.25,3.19-7.99,7.51-8.11,4.15-.11,7.68,3.1,7.94,7.22,.27,4.23-3.23,8.04-7.51,8.18Z"/><path class="cls-2" d="M728.91,183.56c.05,4.34-3.12,7.69-7.37,7.81-4.41,.12-7.87-3.36-7.8-7.85,.06-4.28,3.4-7.62,7.62-7.61,4.21,0,7.51,3.35,7.56,7.65Z"/><path class="cls-2" d="M287.93,74.98c.03,4.17-3.38,7.65-7.55,7.73-4.25,.08-7.65-3.16-7.78-7.41-.13-4.42,3.37-8.07,7.7-8.02,4.12,.04,7.6,3.56,7.63,7.71Z"/><path class="cls-2" d="M708.31,161.93c-.13,4.3-3.83,7.66-8.18,7.43-4.13-.22-7.41-3.76-7.29-7.85,.13-4.27,3.95-7.78,8.17-7.5,4.1,.27,7.43,3.87,7.3,7.92Z"/><path class="cls-2" d="M147.56,723.57c.03,4.29-3.19,7.66-7.42,7.78-4.22,.11-7.63-3.15-7.77-7.42-.14-4.48,3.27-8.07,7.64-8.04,4.19,.03,7.52,3.42,7.55,7.68Z"/><path class="cls-2" d="M466.03,50c0,4.24-3.72,7.85-7.96,7.72-4.07-.12-7.5-3.65-7.51-7.71-.01-4.22,3.74-7.87,7.95-7.73,4.08,.14,7.51,3.66,7.52,7.72Z"/><path class="cls-2" d="M44.53,303.43c.08-4.12,3.64-7.63,7.73-7.62,4.33,.02,7.81,3.71,7.62,8.11-.18,4.26-3.6,7.44-7.87,7.31-4.16-.12-7.56-3.66-7.48-7.8Z"/><path class="cls-2" d="M56.2,275.69c.08-4.12,3.64-7.63,7.73-7.62,4.33,.02,7.81,3.71,7.62,8.11-.18,4.26-3.6,7.44-7.87,7.31-4.16-.12-7.56-3.66-7.48-7.8Z"/><path class="cls-2" d="M827.16,461.9c.04,4.04-3.4,7.61-7.46,7.77-4.24,.16-7.97-3.41-8.01-7.65-.03-4.24,3.68-7.92,7.89-7.81,4.06,.11,7.55,3.64,7.58,7.69Z"/><path class="cls-2" d="M804.85,313.27c.07,4.07-3.29,7.63-7.39,7.84-4.25,.21-7.93-3.31-7.98-7.63-.05-4.24,3.11-7.6,7.3-7.77,4.31-.18,7.99,3.27,8.06,7.56Z"/><path class="cls-2" d="M793.73,285.15c.07,4.07-3.29,7.63-7.39,7.84-4.25,.21-7.93-3.31-7.98-7.63-.05-4.24,3.11-7.6,7.3-7.77,4.31-.18,7.99,3.27,8.06,7.56Z"/><path class="cls-2" d="M772.55,250.42c4.26-.12,7.65,3.07,7.81,7.34,.17,4.44-3.27,8.1-7.61,8.1-4.16,0-7.59-3.44-7.64-7.65-.05-4.26,3.21-7.67,7.44-7.79Z"/><path class="cls-2" d="M746.18,685.94c-.02,4.11-3.4,7.55-7.52,7.66-4.27,.11-7.96-3.49-7.94-7.73,.02-4.07,3.47-7.58,7.56-7.71,4.23-.13,7.92,3.51,7.91,7.78Z"/><path class="cls-2" d="M39.32,511.83c-.11,4.25-3.94,7.79-8.15,7.55-4.11-.24-7.35-3.76-7.26-7.9,.09-4.28,3.86-7.8,8.08-7.55,4.09,.24,7.45,3.86,7.34,7.9Z"/><path class="cls-2" d="M755.9,653.47c4.08,.03,7.58,3.48,7.69,7.55,.11,4.27-3.46,7.82-7.82,7.79-4.4-.03-7.82-3.57-7.65-7.92,.16-4.12,3.67-7.45,7.79-7.42Z"/><path class="cls-2" d="M101.55,223.07c.09,4.31-3.06,7.73-7.29,7.91-4.37,.19-7.92-3.29-7.9-7.77,.02-4.29,3.29-7.64,7.52-7.69,4.2-.05,7.58,3.27,7.67,7.55Z"/><path class="cls-2" d="M805.55,543.59c4.4,.22,7.59,3.92,7.26,8.41-.31,4.22-3.93,7.36-8.12,7.04-4.24-.32-7.23-3.79-7.03-8.13,.2-4.22,3.76-7.53,7.89-7.32Z"/><path class="cls-2" d="M698.16,738.72c-4.24-.1-7.45-3.46-7.43-7.76,.02-4.28,3.33-7.65,7.54-7.69,4.38-.04,7.78,3.53,7.64,8.03-.13,4.28-3.52,7.52-7.76,7.42Z"/><path class="cls-2" d="M683.53,751.32c-.11,4.07-3.64,7.54-7.68,7.56-4.25,.02-7.9-3.71-7.78-7.94,.12-4.26,3.93-7.76,8.15-7.52,4.1,.24,7.41,3.82,7.3,7.89Z"/><path class="cls-2" d="M26.67,429.02c-4.21-.05-7.51-3.41-7.53-7.69-.02-4.48,3.5-7.95,7.88-7.77,4.23,.17,7.4,3.6,7.31,7.9-.09,4.27-3.47,7.61-7.66,7.56Z"/><path class="cls-2" d="M29.62,399.11c-4.21-.05-7.51-3.41-7.53-7.69-.02-4.48,3.5-7.95,7.88-7.77,4.23,.17,7.4,3.6,7.31,7.9-.09,4.27-3.47,7.61-7.66,7.56Z"/><path class="cls-2" d="M819.91,522.05c-.06,4.34-3.67,7.74-8.02,7.56-4.09-.18-7.5-3.74-7.42-7.78,.08-4.04,3.62-7.59,7.63-7.65,4.23-.07,7.87,3.6,7.81,7.87Z"/><path class="cls-2" d="M210.45,772.79c4.18,.02,7.58,3.32,7.68,7.46,.11,4.24-3.52,7.9-7.8,7.86-4.13-.03-7.55-3.4-7.65-7.53-.1-4.34,3.37-7.82,7.77-7.79Z"/><path class="cls-2" d="M633.75,786.36c-.11,4.05-3.66,7.54-7.7,7.55-4.21,.02-7.89-3.75-7.77-7.96,.12-4.23,3.96-7.75,8.17-7.5,4.08,.24,7.41,3.85,7.29,7.9Z"/><path class="cls-2" d="M435.76,48.45c0,4.3-3.24,7.56-7.53,7.61-4.41,.06-8-3.54-7.85-7.86,.14-4.13,3.71-7.51,7.85-7.44,4.21,.07,7.54,3.47,7.53,7.69Z"/><path class="cls-2" d="M119.55,693.63c4.28-.03,7.56,3.19,7.64,7.5,.08,4.45-3.44,8.06-7.76,7.94-4.21-.11-7.46-3.52-7.43-7.82,.02-4.3,3.28-7.6,7.54-7.63Z"/><path class="cls-2" d="M495.87,53.72c.08,4.32-3.07,7.68-7.33,7.82-4.48,.15-7.9-3.2-7.87-7.72,.03-4.26,3.34-7.63,7.54-7.66,4.18-.03,7.58,3.33,7.66,7.56Z"/><path class="cls-2" d="M42.63,361.33c.06,4.28-3.17,7.71-7.38,7.85-4.36,.15-7.88-3.38-7.83-7.85,.05-4.28,3.38-7.62,7.59-7.62,4.2,0,7.56,3.36,7.62,7.62Z"/><path class="cls-2" d="M554.58,68.45c-.03,4.12-3.42,7.58-7.52,7.67-4.23,.09-7.97-3.59-7.92-7.8,.05-4.06,3.52-7.55,7.6-7.64,4.29-.1,7.87,3.46,7.84,7.78Z"/><path class="cls-2" d="M131.35,183.52c-4.25-.04-7.66-3.4-7.68-7.58-.02-4.36,3.59-7.8,8.04-7.65,4.29,.15,7.46,3.49,7.37,7.77-.1,4.25-3.46,7.49-7.73,7.45Z"/><path class="cls-2" d="M405.48,49.17c0,4.3-3.22,7.63-7.47,7.71-4.24,.08-7.61-3.18-7.73-7.46-.12-4.48,3.33-8.05,7.71-7.98,4.21,.07,7.48,3.45,7.49,7.73Z"/><path class="cls-2" d="M119.53,198.98c-.07,4.21-3.46,7.48-7.75,7.47-4.49,0-7.89-3.52-7.69-7.94,.2-4.24,3.6-7.35,7.93-7.24,4.24,.1,7.58,3.54,7.51,7.72Z"/><path class="cls-2" d="M193.24,763.34c-.03,4.26-3.74,7.81-8.02,7.65-4.14-.15-7.45-3.59-7.44-7.73,.02-4.26,3.76-7.88,7.96-7.71,4.09,.17,7.51,3.73,7.49,7.78Z"/><path class="cls-2" d="M252.4,79.21c4.17-.04,7.59,3.33,7.68,7.57,.08,4.29-3.1,7.71-7.34,7.87-4.42,.17-7.91-3.26-7.88-7.76,.03-4.26,3.34-7.64,7.54-7.69Z"/><path class="cls-2" d="M757.61,224.4c4.27,.04,7.63,3.36,7.64,7.56,.02,4.23-3.3,7.57-7.57,7.63-4.52,.06-7.91-3.32-7.8-7.79,.11-4.29,3.39-7.44,7.73-7.4Z"/><path class="cls-2" d="M69.8,633.67c-4.25,.12-7.97-3.51-7.95-7.74,.02-4.05,3.48-7.59,7.56-7.71,4.23-.13,7.93,3.51,7.91,7.77-.02,4.09-3.42,7.57-7.52,7.68Z"/><path class="cls-2" d="M37.66,533.48c4.16-.09,7.62,3.26,7.74,7.5,.13,4.29-3.02,7.74-7.25,7.94-4.43,.22-7.94-3.18-7.95-7.68-.01-4.28,3.25-7.67,7.46-7.76Z"/><path class="cls-2" d="M228.81,795.52c.05-4.09,3.5-7.6,7.56-7.69,4.25-.1,7.83,3.51,7.79,7.84-.04,4.42-3.53,7.76-7.94,7.59-4.13-.16-7.46-3.64-7.41-7.75Z"/><path class="cls-2" d="M263.92,801.14c4.23,.09,7.59,3.52,7.55,7.69-.05,4.38-3.66,7.71-8.15,7.51-4.29-.2-7.4-3.57-7.25-7.88,.15-4.25,3.54-7.41,7.85-7.32Z"/><path class="cls-2" d="M628.93,113.97c-4.19-.09-7.5-3.54-7.49-7.78,.02-4.2,3.43-7.66,7.59-7.69,4.37-.04,7.8,3.55,7.66,8.03-.13,4.25-3.55,7.53-7.76,7.44Z"/><path class="cls-2" d="M740.25,214.74c-4.26-.06-7.63-3.41-7.63-7.6,0-4.39,3.59-7.76,8.09-7.58,4.29,.17,7.46,3.54,7.34,7.81-.13,4.25-3.49,7.43-7.8,7.37Z"/><path class="cls-2" d="M813.72,342.16c.03,4.3-3.17,7.65-7.42,7.76-4.44,.11-7.84-3.32-7.77-7.85,.07-4.27,3.42-7.61,7.63-7.59,4.19,.02,7.53,3.42,7.56,7.67Z"/><path class="cls-2" d="M33.76,451.32c.12,4.1-3.27,7.69-7.43,7.87-4.16,.18-7.74-3.11-7.95-7.29-.22-4.46,3.13-8,7.59-8.04,4.22-.03,7.68,3.28,7.8,7.45Z"/><path class="cls-2" d="M308.89,72.78c-4.36,.03-7.62-3.11-7.7-7.39-.09-4.53,3.23-7.83,7.79-7.76,4.3,.07,7.58,3.38,7.55,7.61-.03,4.24-3.34,7.51-7.63,7.53Z"/><path class="cls-2" d="M685.85,141.35c.05,4.21-3.27,7.64-7.49,7.74-4.29,.1-7.65-3.06-7.79-7.35-.15-4.44,3.3-8.07,7.65-8.05,4.18,.02,7.59,3.44,7.63,7.66Z"/><path class="cls-2" d="M50.24,332.28c-.07,4.18-3.49,7.54-7.7,7.54-4.47,0-7.81-3.5-7.63-7.98,.17-4.18,3.72-7.54,7.85-7.42,4.09,.12,7.54,3.75,7.48,7.86Z"/><path class="cls-2" d="M375.54,52.13c.07,4.19-3.25,7.6-7.5,7.7-4.36,.1-7.69-2.97-7.87-7.24-.18-4.46,3.18-7.95,7.65-7.96,4.26,0,7.65,3.29,7.72,7.5Z"/><path class="cls-2" d="M817.08,499.82c-4.12,.07-7.68-3.35-7.82-7.5-.13-4.16,3.17-7.7,7.36-7.88,4.46-.19,7.97,3.17,7.97,7.64,0,4.22-3.35,7.67-7.51,7.74Z"/><path class="cls-2" d="M812.76,363.94c4.2-.08,7.93,3.66,7.86,7.87-.07,4.06-3.56,7.53-7.64,7.59-4.12,.06-7.6-3.23-7.79-7.36-.2-4.27,3.31-8.01,7.57-8.09Z"/><path class="cls-2" d="M338.26,65.23c-4.33,.1-7.62-3.01-7.77-7.34-.15-4.49,3.22-8.05,7.62-8.03,4.21,.02,7.52,3.38,7.56,7.65,.03,4.34-3.12,7.62-7.41,7.72Z"/><path class="cls-2" d="M784.89,600.52c4.3,.09,7.48,3.36,7.44,7.68-.03,4.23-3.39,7.62-7.58,7.65-4.34,.03-7.92-3.67-7.74-8,.18-4.22,3.62-7.42,7.87-7.33Z"/><path class="cls-2" d="M233.24,101.06c-.06,4.35-3.26,7.52-7.58,7.51-4.49,0-7.75-3.45-7.58-7.98,.16-4.25,3.63-7.5,7.82-7.35,4.24,.15,7.4,3.52,7.34,7.83Z"/><path class="cls-2" d="M719.15,716.82c-4.27-.05-7.61-3.38-7.61-7.58,0-4.23,3.33-7.55,7.6-7.61,4.51-.06,7.88,3.35,7.75,7.84-.12,4.3-3.38,7.4-7.75,7.35Z"/><path class="cls-2" d="M46.07,562.65c4.27-.08,7.71,3.11,7.88,7.31,.17,4.39-3.3,7.93-7.75,7.9-4.3-.03-7.55-3.26-7.58-7.55-.03-4.3,3.15-7.57,7.45-7.66Z"/><path class="cls-2" d="M64.5,598.49c.02,4.32-3.14,7.58-7.45,7.66-4.44,.08-7.98-3.42-7.87-7.79,.1-4.19,3.57-7.54,7.75-7.5,4.23,.04,7.55,3.38,7.57,7.63Z"/><path class="cls-2" d="M35.23,481.57c.05,4.34-3.05,7.59-7.36,7.69-4.36,.11-7.64-2.94-7.79-7.24-.16-4.56,3.06-7.93,7.57-7.92,4.36,.01,7.53,3.13,7.58,7.47Z"/><path class="cls-2" d="M200.14,124.54c-4.31,.05-7.62-3.12-7.73-7.39-.11-4.53,3.19-7.88,7.71-7.83,4.29,.05,7.53,3.31,7.53,7.59,0,4.29-3.24,7.58-7.51,7.63Z"/><path class="cls-2" d="M299.46,819.69c.06,4.33-3.05,7.58-7.37,7.7-4.48,.13-7.95-3.25-7.89-7.69,.05-4.26,3.35-7.49,7.65-7.49,4.31,0,7.56,3.19,7.61,7.48Z"/><path class="cls-2" d="M803.65,580.12c0,4.3-3.19,7.56-7.48,7.62-4.51,.07-7.82-3.28-7.72-7.82,.09-4.25,3.44-7.49,7.7-7.44,4.26,.05,7.5,3.35,7.5,7.64Z"/><path class="cls-2" d="M152.7,146.9c4.32-.03,7.57,3.14,7.65,7.44,.08,4.52-3.25,7.84-7.77,7.76-4.29-.08-7.5-3.37-7.46-7.66,.03-4.29,3.28-7.51,7.59-7.54Z"/><path class="cls-2" d="M161.98,736.75c4.34,.01,7.54,3.16,7.59,7.48,.06,4.51-3.32,7.82-7.84,7.7-4.26-.11-7.48-3.46-7.4-7.72,.07-4.27,3.36-7.48,7.66-7.47Z"/><path class="cls-2" d="M611.87,771.1c-1.82,6.61-3.88,14.12-5.96,21.62-.37,1.32-.69,2.67-1.19,3.95-1,2.54-.51,3.68,2.49,4.21,8.28,1.47,16.49,3.28,24.71,5.07,5.14,1.12,7.73,4.66,6.87,9.07-.89,4.55-4.48,6.93-9.67,5.92-13.96-2.71-27.87-5.66-41.83-8.35-2.33-.45-2.71-1.35-2.14-3.38,3.97-13.96,7.82-27.96,11.88-41.89,1.19-4.09,5.15-6.19,8.96-5.33,3.79,.86,6.11,4.06,5.88,9.11Z"/><path class="cls-2" d="M421.94,243.47c-6.89-6.1-13.96-12.01-20.98-17.96-4.85-4.11-6.79-4.1-11.41,.23-34.93,32.76-69.99,65.38-104.66,98.41-11.91,11.35-23.28,23.09-38.87,29.55-2.18,.9-3.21,1.15-4.98-.42-6.43-5.7-13.02-11.22-19.57-16.79-7.56-6.42-15.97-11.41-25.45-14.35-17.52-5.43-33.65-3.58-47.3,9.8-5.55,5.44-8.2,5.59-13.91,.32-20.75-19.16-41.48-38.34-62.21-57.52-2.94-4.51-5.94-5.7-9.21-3.65-3.99,2.5-4.57,5.75-1.78,9.9,1.67,1.34,3.43,2.59,5,4.04,20.2,18.63,40.37,37.3,60.55,55.95,10.03,9.27,19.93,9.14,29.43-.5,6.38-6.47,14-9.79,23.09-9.55,11.81,.31,22.3,4.71,31.2,12.04,19.42,16.01,38.43,32.52,57.55,48.89,3.24,2.77,4.62,6.48,3.7,10.77-1.91,8.92-11.74,12.01-18.97,5.92-11.73-9.88-23.33-19.93-35.13-29.74-4.68-3.89-6.86-3.5-10.82,1.1-5.91,6.86-11.78,13.76-17.66,20.65-4.4,5.15-9.77,8.85-16.36,10.55-10.8,2.77-20.64,.74-29.44-6.18-2.94-2.31-5.94-2.53-8.59,.36-2.45,2.66-1.82,5.93,1.48,8.77,2.93,2.52,6.25,4.42,9.73,6.06,5.23,2.46,10.92,3.24,17.13,4.2-13.01,15.17-25.63,29.79-38.11,44.52-1.57,1.85-2.35,1.09-3.58-.03-3.85-3.52-7.74-7.01-11.63-10.49-24.13-21.59-48.26-43.18-72.39-64.77-.99-.84-.79-2.23-1.53-3.23-2.08-2.81-6.37-4.44-9.28-3.38-3.4,1.23-4.16,3.7-3.26,6.95-.29,2.79,1.89,4.04,3.55,5.54,26.71,24.02,53.45,48.02,80.17,72.04,2.84,2.56,7.33,4.89,7.91,7.92,.61,3.19-4.27,5.77-6.48,8.84-.18,.25-.37,.49-.57,.73-10.64,13.31-9.15,30.85,3.79,41.99,18.03,15.53,36.14,30.96,54.3,46.34,13.53,11.45,31.64,10.03,42.92-3.57,2.84-3.42,4.41-3.66,7.65-.57,6.82,6.5,15.07,8.26,23.81,4.53,8.69-3.71,13.22-10.67,13.34-20.21,.02-1.92,.53-2.39,2.43-2.81,11.59-2.56,17.81-9.69,18.55-21.37,.16-2.43,.96-2.92,3.13-3.33,10.16-1.93,17.17-9.81,17.6-20.11,.13-3.12,1.21-4.08,4.01-4.57,5.37-.93,9.58-3.9,12.85-8.22,6.15-8.12,6.87-22.38-5.69-31.62-3.07-2.26-4.8-4.11-1.19-7.59,1.76-1.71,2.56-4.48,3.6-6.86,5.41-12.38,8.81-25.44,12.96-38.25,2.36-7.28,4.5-14.72,9.08-20.99,21.06-28.87,40.79-58.66,60.88-88.2,10.59-15.57,21.06-31.22,31.86-47.24,3.7-6.37,3.7-7.65-2.21-12.81Zm-223.22,324.73c-4.64,4.41-10.22,6.03-16.55,4.63-3.05-.67-5.7-2.15-8.08-4.18-18.09-15.46-36.19-30.9-54.29-46.34-4.45-3.79-6.95-8.5-6.81-14.73-.12-4.42,1.72-8.37,4.72-11.85,3.7-4.3,7.64-8.43,11.06-12.95,2.09-2.76,3.35-2.89,6-.59,19.39,16.77,38.93,33.37,58.42,50.02,1.17,1,2.27,2.08,3.51,2.98,4.74,3.47,9.22,6.88,6.01,13.93-.68,1.49-.58,3.98,.23,5.4,3.53,6.23-.33,10-4.23,13.69Zm7.24-40.26c-21.36-18.45-42.85-36.75-64.38-54.98-2.18-1.84-2.12-2.78-.31-4.88,13.05-15.07,25.95-30.28,38.91-45.44,.69-.81,1.33-1.87,2.23-2.27,12.51-5.57,19.61-16.87,28.13-26.62,2.23-2.55,3.42-3.1,6.3-.63,23.95,20.58,48.07,40.96,72.72,61.91-16.27,1.85-22.2,7.59-24.19,23.01-.2,1.53-.66,1.9-2.11,2.25-12.28,2.96-17.92,9.35-18.72,21.57-.16,2.37-1.13,2.68-2.9,3.08-11.27,2.57-17.52,9.88-17.98,21.21-.08,1.98-.18,3.19-2.58,3.14-1.18-.03-2.63,.21-3.52,.89-4.81,3.72-7.94,.92-11.58-2.23Zm31.09,38.7c-3.52,1.89-7.2,1.79-10.43-.56-3.58-2.61-7.09-5.38-9.99-8.78-3.47-4.07-3.15-9.74,.66-13.7,3.49-3.62,9.25-3.99,13.33-.71,2.99,2.39,5.85,4.94,8.76,7.44,2.25,1.93,3.13,4.46,3.1,7.36-.04,4.06-1.93,7.08-5.42,8.96Zm25.63-29.78c-1.61,4.13-4.85,6.16-9.22,6.45-2.33-.13-4.51-.52-6.37-2.17-2.87-2.55-5.94-4.86-8.76-7.45-4-3.67-4.33-9.47-.96-13.71,3.45-4.34,9.46-5.22,13.93-1.81,3.17,2.41,6.21,5.02,9.12,7.73,3.28,3.05,3.86,6.89,2.27,10.96Zm20.77-24.01c-1.83,3.97-5.18,5.83-9.29,6.06-2.23-.15-4.17-.63-5.74-1.94-3.17-2.64-6.38-5.24-9.36-8.07-3.93-3.73-4.08-9.48-.59-13.63,3.45-4.1,9.29-5.01,13.56-1.79,3.4,2.57,6.65,5.39,9.7,8.38,3.18,3.12,3.55,7.03,1.72,10.99Zm20.72-24.12c-1.82,3.59-4.87,5.38-8.88,5.51-2.41,.11-4.56-.55-6.4-2.12-2.92-2.48-5.92-4.88-8.71-7.51-3.86-3.64-4.27-9.18-1.19-13.32,3.1-4.16,8.53-5.54,13.09-2.85,4.23,2.49,7.98,5.77,11.15,9.5,2.72,3.2,2.82,7.05,.93,10.78Zm54.59-156.3c-11.92,17.11-23.43,34.51-35.86,51.26-7.01,9.44-9.99,20.57-13.47,31.5-3.07,9.62-5.87,19.33-9.59,28.74-.96,2.43-1.53,3.57-4.18,1.21-8.59-7.65-17.43-15-26.49-22.73,12.89-7.86,17.42-17.99,13.52-29.4-1.48-4.31-4.09-7.81-7.59-10.75-6.7-5.62-13.26-11.42-20.01-16.98-2.18-1.8-1.91-2.59,.48-3.64,12-5.26,21.74-13.43,30.88-22.74,12.14-12.37,25.07-23.98,37.51-36.07,2.14-2.08,3.36-1.95,5.48-.09,9.47,8.29,19.02,16.49,28.7,24.53,2.19,1.82,2.16,2.98,.62,5.18Zm37.01-54.7c-8.99,13.17-17.92,26.37-26.78,39.63-1.28,1.92-2.06,2.37-4.02,.65-9.12-7.99-18.34-15.85-27.62-23.65-1.61-1.35-2.17-2.07-.34-3.77,11.95-11.04,23.79-22.2,35.68-33.31,.55-.51,1.14-.98,1.78-1.51,.81,.59,1.58,1.07,2.28,1.66,6.19,5.27,12.3,10.65,18.6,15.79,1.95,1.6,1.65,2.72,.43,4.51Zm16.36-24.32c-2.75,3.84-5.32,7.8-8.15,11.99-7.13-6.09-13.86-11.84-20.87-17.83,3.68-3.4,7.28-6.63,10.76-10,1.23-1.19,2-1.23,3.31-.07,4.69,4.15,9.45,8.22,14.29,12.2,1.44,1.19,1.84,2.06,.66,3.7Z"/><path class="cls-2" d="M425.08,250.74c6.89-6.1,13.96-12.01,20.98-17.96,4.85-4.11,6.79-4.1,11.41,.23,34.93,32.76,69.99,65.38,104.66,98.41,11.91,11.35,23.28,23.09,38.87,29.55,2.18,.9,3.21,1.15,4.98-.42,6.43-5.7,13.02-11.22,19.57-16.79,7.56-6.42,15.97-11.41,25.45-14.35,17.52-5.43,33.65-3.58,47.3,9.8,5.55,5.44,8.2,5.59,13.91,.32,20.75-19.16,44.56-37.43,65.3-56.61,2.94-4.51,5.94-5.7,9.21-3.65,3.99,2.5,4.57,5.75,1.78,9.9-1.67,1.34-3.43,2.59-5,4.04-20.2,18.63-43.46,36.39-63.64,55.04-10.03,9.27-19.93,9.14-29.43-.5-6.38-6.47-14-9.79-23.09-9.55-11.81,.31-22.3,4.71-31.2,12.04-19.42,16.01-38.43,32.52-57.55,48.89-3.24,2.77-4.62,6.48-3.7,10.77,1.91,8.92,11.74,12.01,18.97,5.92,11.73-9.88,23.33-19.93,35.13-29.74,4.68-3.89,6.86-3.5,10.82,1.1,5.91,6.86,11.78,13.76,17.66,20.65,4.4,5.15,9.77,8.85,16.36,10.55,10.8,2.77,20.64,.74,29.44-6.18,2.94-2.31,5.94-2.53,8.59,.36,2.45,2.66,1.82,5.93-1.48,8.77-2.93,2.52-6.25,4.42-9.73,6.06-5.23,2.46-10.92,3.24-17.13,4.2,13.01,15.17,25.63,29.79,38.11,44.52,1.57,1.85,2.35,1.09,3.58-.03,3.85-3.52,7.74-7.01,11.63-10.49,24.13-21.59,48.26-43.18,72.39-64.77,.99-.84,.79-2.23,1.53-3.23,2.08-2.81,6.37-4.44,9.28-3.38,3.4,1.23,4.16,3.7,3.26,6.95,.29,2.79-1.89,4.04-3.55,5.54-26.71,24.02-53.45,48.02-80.17,72.04-2.84,2.56-7.33,4.89-7.91,7.92-.61,3.19,4.27,5.77,6.48,8.84,.18,.25,.37,.49,.57,.73,10.64,13.31,9.15,30.85-3.79,41.99-18.03,15.53-36.14,30.96-54.3,46.34-13.53,11.45-31.64,10.03-42.92-3.57-2.84-3.42-4.41-3.66-7.65-.57-6.82,6.5-15.07,8.26-23.81,4.53-8.69-3.71-13.22-10.67-13.34-20.21-.02-1.92-.53-2.39-2.43-2.81-11.59-2.56-17.81-9.69-18.55-21.37-.16-2.43-.96-2.92-3.13-3.33-10.16-1.93-17.17-9.81-17.6-20.11-.13-3.12-1.21-4.08-4.01-4.57-5.37-.93-9.58-3.9-12.85-8.22-6.15-8.12-6.87-22.38,5.69-31.62,3.07-2.26,4.8-4.11,1.19-7.59-1.76-1.71-2.56-4.48-3.6-6.86-5.41-12.38-8.81-25.44-12.96-38.25-2.36-7.28-4.5-14.72-9.08-20.99-21.06-28.87-40.79-58.66-60.88-88.2-10.59-15.57-21.06-31.22-31.86-47.24-3.7-6.37-3.7-7.65,2.21-12.81Zm223.22,324.73c4.64,4.41,10.22,6.03,16.55,4.63,3.05-.67,5.7-2.15,8.08-4.18,18.09-15.46,36.19-30.9,54.29-46.34,4.45-3.79,6.95-8.5,6.81-14.73,.12-4.42-1.72-8.37-4.72-11.85-3.7-4.3-7.64-8.43-11.06-12.95-2.09-2.76-3.35-2.89-6-.59-19.39,16.77-38.93,33.37-58.42,50.02-1.17,1-2.27,2.08-3.51,2.98-4.74,3.47-9.22,6.88-6.01,13.93,.68,1.49,.58,3.98-.23,5.4-3.53,6.23,.33,10,4.23,13.69Zm-7.24-40.26c21.36-18.45,42.85-36.75,64.38-54.98,2.18-1.84,2.12-2.78,.31-4.88-13.05-15.07-25.95-30.28-38.91-45.44-.69-.81-1.33-1.87-2.23-2.27-12.51-5.57-19.61-16.87-28.13-26.62-2.23-2.55-3.42-3.1-6.3-.63-23.95,20.58-48.07,40.96-72.72,61.91,16.27,1.85,22.2,7.59,24.19,23.01,.2,1.53,.66,1.9,2.11,2.25,12.28,2.96,17.92,9.35,18.72,21.57,.16,2.37,1.13,2.68,2.9,3.08,11.27,2.57,17.52,9.88,17.98,21.21,.08,1.98,.18,3.19,2.58,3.14,1.18-.03,2.63,.21,3.52,.89,4.81,3.72,7.94,.92,11.58-2.23Zm-31.09,38.7c3.52,1.89,7.2,1.79,10.43-.56,3.58-2.61,7.09-5.38,9.99-8.78,3.47-4.07,3.15-9.74-.66-13.7-3.49-3.62-9.25-3.99-13.33-.71-2.99,2.39-5.85,4.94-8.76,7.44-2.25,1.93-3.13,4.46-3.1,7.36,.04,4.06,1.93,7.08,5.42,8.96Zm-25.63-29.78c1.61,4.13,4.85,6.16,9.22,6.45,2.33-.13,4.51-.52,6.37-2.17,2.87-2.55,5.94-4.86,8.76-7.45,4-3.67,4.33-9.47,.96-13.71-3.45-4.34-9.46-5.22-13.93-1.81-3.17,2.41-6.21,5.02-9.12,7.73-3.28,3.05-3.86,6.89-2.27,10.96Zm-20.77-24.01c1.83,3.97,5.18,5.83,9.29,6.06,2.23-.15,4.17-.63,5.74-1.94,3.17-2.64,6.38-5.24,9.36-8.07,3.93-3.73,4.08-9.48,.59-13.63-3.45-4.1-9.29-5.01-13.56-1.79-3.4,2.57-6.65,5.39-9.7,8.38-3.18,3.12-3.55,7.03-1.72,10.99Zm-20.72-24.12c1.82,3.59,4.87,5.38,8.88,5.51,2.41,.11,4.56-.55,6.4-2.12,2.92-2.48,5.92-4.88,8.71-7.51,3.86-3.64,4.27-9.18,1.19-13.32-3.1-4.16-8.53-5.54-13.09-2.85-4.23,2.49-7.98,5.77-11.15,9.5-2.72,3.2-2.82,7.05-.93,10.78Zm-54.59-156.3c11.92,17.11,23.43,34.51,35.86,51.26,7.01,9.44,9.99,20.57,13.47,31.5,3.07,9.62,5.87,19.33,9.59,28.74,.96,2.43,1.53,3.57,4.18,1.21,8.59-7.65,17.43-15,26.49-22.73-12.89-7.86-17.42-17.99-13.52-29.4,1.48-4.31,4.09-7.81,7.59-10.75,6.7-5.62,13.26-11.42,20.01-16.98,2.18-1.8,1.91-2.59-.48-3.64-12-5.26-21.74-13.43-30.88-22.74-12.14-12.37-25.07-23.98-37.51-36.07-2.14-2.08-3.36-1.95-5.48-.09-9.47,8.29-19.02,16.49-28.7,24.53-2.19,1.82-2.16,2.98-.62,5.18Zm-37.01-54.7c8.99,13.17,17.92,26.37,26.78,39.63,1.28,1.92,2.06,2.37,4.02,.65,9.12-7.99,18.34-15.85,27.62-23.65,1.61-1.35,2.17-2.07,.34-3.77-11.95-11.04-23.79-22.2-35.68-33.31-.55-.51-1.14-.98-1.78-1.51-.81,.59-1.58,1.07-2.28,1.66-6.19,5.27-12.3,10.65-18.6,15.79-1.95,1.6-1.65,2.72-.43,4.51Zm-16.36-24.32c2.75,3.84,5.32,7.8,8.15,11.99,7.13-6.09,13.86-11.84,20.87-17.83-3.68-3.4-7.28-6.63-10.76-10-1.23-1.19-2-1.23-3.31-.07-4.69,4.15-9.45,8.22-14.29,12.2-1.44,1.19-1.84,2.06-.66,3.7Z"/><path class="cls-2" d="M400.97,181.9c.01,2.93-1.18,4.85-3.55,5.71-2.5,.91-4.87,.44-6.63-1.74-4.05-5-8.06-10.03-12.08-15.06-3.73-4.67-7.49-9.31-11.15-14.04-2.63-3.41-2.42-6.71,.39-8.89,2.8-2.18,6.03-1.61,8.76,1.79,7.49,9.31,14.9,18.69,22.35,28.04,1.07,1.34,2,2.72,1.92,4.19Z"/><path class="cls-2" d="M414.51,157.44c0-7.66,.06-15.33-.03-22.99-.04-3.94,1.44-6.62,5.55-7.05,3.63-.38,6.07,2.34,6.1,6.98,.09,15.33,.06,30.66,.01,45.99-.01,3.8-1.51,6.64-5.81,6.79-3.7,.13-5.78-2.46-5.81-7.17-.04-7.51-.01-15.02-.01-22.53Z"/><path class="cls-2" d="M444.63,187.95c-4.76-.5-6.65-5.5-3.44-9.7,4.84-6.33,9.9-12.49,14.86-18.73,2.77-3.48,5.49-7,8.34-10.4,2.44-2.92,5.49-3.53,8.45-1.02,2.78,2.36,2.72,5.43,.54,8.2-7.77,9.88-15.64,19.68-23.47,29.51-1.36,1.71-3.16,2.32-5.29,2.14Z"/><path class="cls-2" d="M582.89,846.54c-16.52,.07-31.43,5.93-46.04,12.83-2.85,1.34-3.92,3.83-3.15,6.9,3.55,14.25,7.09,28.51,10.78,42.73,1.21,4.66,4.36,6.62,9.36,6.22,4.74-.37,9.49-.72,14.18-1.43,12.18-1.84,24.06-4.64,34.38-11.89,5.81-4.09,10.14-9.3,12.11-16.25,5.83-20.59-9.17-39.14-31.61-39.1Zm20.64,34.98c-1.17,5.75-5.1,9.3-9.78,12.15-9.52,5.79-20.18,7.85-31.03,9.08-7.68,.87-7.72,.72-9.6-6.77-2.13-8.46-4.13-16.95-6.37-25.38-.54-2.03-.31-2.98,1.73-3.83,10.5-4.39,21.11-8.26,32.67-8.55,15.69-.64,25.23,9.3,22.39,23.3Z"/><path class="cls-2" d="M538.42,912.89c-3.55-14.42-7.12-28.84-10.87-43.21-1.02-3.91-3.94-6.45-8.04-6.44-12.04,.02-22.57-4.62-33.21-9.59-33.1-15.48-73.03-9.02-99.97,15.94-9.23,8.55-12.73,19.24-10.63,31.68,2.31,13.68,11.65,21.52,23.24,27.14,16.42,7.96,33.94,11.22,46.97,11.26,36.02-.15,63.23-9.1,89.01-20.11,2.91-1.24,4.27-3.57,3.51-6.67Zm-14.6-1.28c-23.06,9.6-47.88,16.39-76.37,16.41-11.44,.11-26.1-2.62-40.15-8.52-4.13-1.73-7.98-3.91-11.53-6.6-11.5-8.72-12.2-25.12-1.52-34.9,23.69-21.7,58.63-27.3,87.63-13.69,10.46,4.91,20.74,9.99,32.62,10.01,1.95,0,2.68,1,3.09,2.66,2.55,10.41,5.06,20.83,7.77,31.21,.49,1.86,.29,2.66-1.54,3.42Z"/><path class="cls-2" d="M480.73,771.05c-2.41-7.97-8.14-13.61-14.62-18.43-11.29-8.39-24.32-12.7-37.83-15.82-6.66-1.54-9.29-.37-12.06,5.72-5.57,12.25-10.93,24.6-16.66,36.78-2.12,4.51-.99,7.52,2.75,10.25,8.95,6.53,18.49,12,28.8,16.04,6.45,2.53,13.14,4.14,20.13,4.22,20,.34,35.29-19.63,29.49-38.76Zm-31.77,27.01c-13.55-1.39-24.81-8.14-35.99-15.14-1.53-.96-1.4-2.01-.73-3.47,4.45-9.72,8.85-19.46,13.2-29.23,.59-1.33,1.14-1.95,2.71-1.53,14.31,3.8,28.22,8.3,38.28,20.17,2.48,2.92,3.85,6.22,3.79,10.08,.05,11.9-9.4,20.34-21.25,19.13Z"/><path class="cls-2" d="M406.72,727.3c-7.87-4.73-15.74-9.49-23.8-13.89-22.87-12.5-46.98-20.88-73.38-21.09-14.81-.12-29.46,1.04-42.99,7.84-19.55,9.82-25.72,33.75-12.78,51.11,16.7,22.41,56.88,47.44,96.7,33.76,8.13-2.79,16.47-4.96,25.25-3.87,1.99,.09,3.99,.15,5.98,.28,8.27,.54,9.75-.33,13.07-7.73,5.2-11.58,10.4-23.16,15.6-34.74,2.76-6.14,2.22-8.14-3.64-11.66Zm-8.97,11.59c-4.36,9.45-8.56,18.97-12.85,28.45-.6,1.33-.94,3-3.1,2.65-14.42-2.36-27.89,2.11-41.55,5.61-21.27,5.45-39.83-2.02-57.41-13.05-6.79-4.26-12.71-9.66-17.9-15.78-11.01-12.99-7.24-29.82,8.27-36.93,10.85-4.97,22.47-5.74,33.66-6.07,25.19,.08,47.83,7.56,69.27,19.19,6.86,3.72,13.48,7.89,20.32,11.66,2.11,1.17,2.23,2.23,1.29,4.27Z"/></svg>