<?xml version="1.0" encoding="UTF-8"?><svg id="Layer_2" xmlns="http://www.w3.org/2000/svg" width="645.93" height="717.82" viewBox="0 0 645.93 717.82"><defs><style>.cls-1{fill:#fbf8ef;}</style></defs><g id="Layer_1-2"><path class="cls-1" d="M473.94,583.21c-1.45,5.27-3.1,11.27-4.76,17.27-.29,1.06-.55,2.13-.95,3.15-.8,2.03-.41,2.94,1.99,3.36,6.61,1.17,13.17,2.62,19.73,4.05,4.1,.89,6.17,3.72,5.48,7.24-.71,3.63-3.57,5.53-7.72,4.73-11.15-2.16-22.25-4.52-33.4-6.67-1.86-.36-2.17-1.07-1.71-2.7,3.17-11.15,6.24-22.33,9.49-33.45,.95-3.26,4.11-4.94,7.16-4.25,3.03,.69,4.88,3.24,4.69,7.28Z"/><path class="cls-1" d="M639.63,318.3c-3.33-.07-6.02-2.77-6.04-6.06-.02-3.38,2.94-6.28,6.33-6.19,3.29,.09,5.99,2.83,6.01,6.12,.02,3.48-2.78,6.2-6.3,6.13Z"/><path class="cls-1" d="M637.84,294.2c-3.33-.07-6.02-2.77-6.04-6.06-.02-3.38,2.94-6.28,6.33-6.19,3.29,.09,5.99,2.83,6.01,6.12,.02,3.48-2.78,6.2-6.3,6.13Z"/><path class="cls-1" d="M507.89,71.75c-3.34,.03-6.04-2.55-6.16-5.9-.12-3.47,2.62-6.39,6.04-6.44,3.38-.04,6.29,2.91,6.22,6.31-.07,3.29-2.81,6-6.1,6.03Z"/><path class="cls-1" d="M472.75,40.48c.06,3.29-2.57,6.09-5.87,6.24-3.49,.16-6.32-2.53-6.36-6.05-.04-3.36,2.5-6.11,5.81-6.28,3.38-.18,6.35,2.65,6.42,6.09Z"/><path class="cls-1" d="M607.39,474.86c-.08,3.43-3.07,6.18-6.5,5.99-3.34-.18-5.81-2.9-5.75-6.3,.07-3.33,2.77-6.03,6.06-6.05,3.37-.02,6.27,2.96,6.19,6.36Z"/><path class="cls-1" d="M65.92,514.64c-3.41-.06-6.25-3.07-6.08-6.46,.17-3.29,3.01-5.96,6.26-5.9,3.44,.06,6.17,2.99,6.02,6.45-.14,3.3-2.94,5.97-6.2,5.91Z"/><path class="cls-1" d="M47.58,160.09c3.31-.05,6.04,2.56,6.17,5.9,.14,3.48-2.58,6.39-6.01,6.45-3.23,.06-6.07-2.65-6.22-5.93-.16-3.43,2.62-6.37,6.07-6.42Z"/><path class="cls-1" d="M58.83,488.21c.08,3.32-2.49,6.09-5.82,6.26-3.46,.18-6.43-2.52-6.52-5.96-.09-3.28,2.54-6.08,5.86-6.23,3.56-.16,6.4,2.43,6.49,5.92Z"/><path class="cls-1" d="M398.89,21.57c-3.34,.01-6.05-2.69-6.1-6.07-.05-3.59,2.7-6.35,6.24-6.26,3.35,.09,6.01,2.86,5.97,6.22-.04,3.34-2.8,6.1-6.11,6.11Z"/><path class="cls-1" d="M125.73,81.27c-3.4,.07-6.34-2.84-6.3-6.24,.03-3.25,2.81-6.05,6.06-6.12,3.26-.07,6.08,2.59,6.23,5.88,.16,3.47-2.55,6.41-5.99,6.48Z"/><path class="cls-1" d="M450.87,30.29c.11,3.32-2.54,6.12-5.92,6.25-3.46,.13-6.21-2.32-6.42-5.7-.22-3.49,2.53-6.42,6.07-6.47,3.38-.05,6.16,2.57,6.27,5.92Z"/><path class="cls-1" d="M505.99,588.08c-3.24,.11-6.13-2.55-6.34-5.82-.22-3.39,2.55-6.38,6-6.47,3.31-.09,6.13,2.47,6.34,5.77,.21,3.38-2.58,6.42-6,6.53Z"/><path class="cls-1" d="M567.41,114.04c.04,3.46-2.49,6.14-5.89,6.24-3.52,.1-6.28-2.68-6.23-6.27,.05-3.42,2.72-6.08,6.08-6.08,3.36,0,6,2.67,6.04,6.11Z"/><path class="cls-1" d="M215.26,27.32c.02,3.33-2.7,6.11-6.03,6.17-3.4,.06-6.11-2.52-6.21-5.92-.11-3.53,2.69-6.45,6.15-6.41,3.29,.04,6.07,2.84,6.09,6.15Z"/><path class="cls-1" d="M550.95,96.76c-.11,3.43-3.06,6.11-6.53,5.93-3.3-.17-5.92-3-5.82-6.27,.1-3.41,3.15-6.21,6.52-5.99,3.28,.21,5.93,3.09,5.83,6.33Z"/><path class="cls-1" d="M103.17,545.26c.03,3.42-2.55,6.12-5.93,6.21-3.37,.09-6.1-2.51-6.21-5.93-.12-3.58,2.61-6.45,6.1-6.42,3.35,.03,6.01,2.73,6.03,6.13Z"/><path class="cls-1" d="M357.48,7.38c0,3.38-2.97,6.27-6.35,6.17-3.25-.1-5.99-2.91-6-6.16,0-3.37,2.99-6.28,6.35-6.17,3.26,.11,6,2.92,6,6.16Z"/><path class="cls-1" d="M20.9,209.76c.06-3.29,2.91-6.1,6.17-6.08,3.46,.01,6.23,2.96,6.09,6.48-.14,3.4-2.88,5.94-6.28,5.84-3.32-.1-6.04-2.92-5.98-6.23Z"/><path class="cls-1" d="M30.22,187.61c.06-3.29,2.91-6.1,6.17-6.08,3.46,.01,6.23,2.96,6.09,6.48-.14,3.4-2.88,5.94-6.28,5.84-3.32-.1-6.04-2.92-5.98-6.23Z"/><path class="cls-1" d="M645.86,336.3c.03,3.22-2.72,6.08-5.96,6.21-3.38,.13-6.37-2.72-6.4-6.11-.03-3.39,2.94-6.32,6.3-6.23,3.24,.09,6.03,2.91,6.06,6.14Z"/><path class="cls-1" d="M628.04,217.61c.05,3.25-2.63,6.1-5.9,6.26-3.39,.17-6.33-2.64-6.37-6.09-.04-3.38,2.49-6.07,5.83-6.21,3.45-.14,6.38,2.62,6.44,6.04Z"/><path class="cls-1" d="M619.16,195.15c.05,3.25-2.63,6.1-5.9,6.26-3.39,.17-6.33-2.64-6.37-6.09-.04-3.38,2.49-6.07,5.83-6.21,3.45-.14,6.38,2.62,6.44,6.04Z"/><path class="cls-1" d="M602.25,167.42c3.4-.1,6.11,2.45,6.24,5.87,.13,3.54-2.61,6.47-6.08,6.46-3.32,0-6.06-2.75-6.1-6.11-.04-3.4,2.56-6.12,5.94-6.22Z"/><path class="cls-1" d="M581.19,515.21c-.01,3.28-2.71,6.03-6,6.12-3.41,.09-6.36-2.78-6.34-6.17,.01-3.25,2.77-6.06,6.03-6.15,3.37-.1,6.33,2.8,6.31,6.21Z"/><path class="cls-1" d="M16.74,376.17c-.09,3.39-3.15,6.22-6.51,6.03-3.28-.19-5.87-3-5.8-6.31,.07-3.42,3.08-6.23,6.45-6.03,3.27,.19,5.95,3.08,5.86,6.31Z"/><path class="cls-1" d="M588.96,489.28c3.26,.03,6.06,2.78,6.14,6.03,.08,3.41-2.76,6.24-6.25,6.22-3.51-.03-6.25-2.85-6.11-6.32,.13-3.29,2.93-5.95,6.22-5.93Z"/><path class="cls-1" d="M66.43,145.59c.07,3.44-2.44,6.17-5.82,6.32-3.49,.15-6.32-2.63-6.31-6.2,.01-3.43,2.63-6.1,6.01-6.14,3.36-.04,6.05,2.61,6.13,6.03Z"/><path class="cls-1" d="M628.61,401.54c3.51,.17,6.06,3.13,5.8,6.72-.25,3.37-3.14,5.88-6.49,5.62-3.38-.26-5.77-3.02-5.61-6.49,.16-3.37,3-6.01,6.3-5.85Z"/><path class="cls-1" d="M542.85,557.36c-3.38-.08-5.95-2.76-5.93-6.2,.02-3.42,2.66-6.11,6.02-6.14,3.5-.03,6.21,2.82,6.1,6.41-.11,3.42-2.81,6.01-6.19,5.93Z"/><path class="cls-1" d="M531.16,567.42c-.09,3.25-2.91,6.02-6.13,6.04-3.39,.02-6.31-2.96-6.21-6.34,.1-3.4,3.14-6.2,6.51-6,3.27,.19,5.92,3.05,5.83,6.3Z"/><path class="cls-1" d="M6.63,310.05c-3.36-.04-6-2.73-6.01-6.14-.02-3.58,2.79-6.35,6.29-6.21,3.38,.14,5.91,2.88,5.84,6.31-.07,3.41-2.77,6.08-6.12,6.04Z"/><path class="cls-1" d="M8.98,286.16c-3.36-.04-6-2.73-6.01-6.14-.02-3.58,2.79-6.35,6.29-6.21,3.38,.14,5.91,2.88,5.84,6.31-.07,3.41-2.77,6.08-6.12,6.04Z"/><path class="cls-1" d="M640.07,384.33c-.05,3.47-2.93,6.18-6.4,6.04-3.27-.14-5.99-2.99-5.93-6.21,.06-3.22,2.89-6.06,6.1-6.11,3.38-.05,6.28,2.88,6.23,6.28Z"/><path class="cls-1" d="M153.39,584.56c3.34,.02,6.05,2.65,6.14,5.96,.09,3.38-2.81,6.3-6.23,6.28-3.3-.02-6.03-2.71-6.11-6.02-.08-3.46,2.69-6.24,6.2-6.22Z"/><path class="cls-1" d="M491.41,595.4c-.09,3.24-2.93,6.02-6.15,6.03-3.37,.01-6.3-2.99-6.2-6.35,.1-3.38,3.16-6.19,6.52-5.99,3.26,.19,5.92,3.08,5.82,6.31Z"/><path class="cls-1" d="M333.31,6.14c0,3.43-2.58,6.04-6.01,6.08-3.52,.04-6.39-2.82-6.27-6.27,.11-3.3,2.96-6,6.27-5.94,3.36,.06,6.02,2.77,6.01,6.14Z"/><path class="cls-1" d="M80.8,521.35c3.42-.02,6.04,2.55,6.1,5.99,.07,3.56-2.75,6.43-6.19,6.34-3.36-.09-5.95-2.81-5.93-6.24,.02-3.44,2.62-6.07,6.02-6.09Z"/><path class="cls-1" d="M381.31,10.35c.06,3.45-2.46,6.13-5.85,6.25-3.58,.12-6.31-2.56-6.29-6.16,.02-3.41,2.67-6.1,6.02-6.12,3.33-.02,6.06,2.66,6.12,6.04Z"/><path class="cls-1" d="M19.37,255.99c.05,3.42-2.53,6.16-5.89,6.27-3.49,.12-6.3-2.7-6.25-6.27,.04-3.42,2.7-6.09,6.06-6.09,3.35,0,6.04,2.69,6.08,6.08Z"/><path class="cls-1" d="M428.19,22.11c-.02,3.29-2.73,6.05-6,6.12-3.38,.07-6.36-2.87-6.32-6.23,.04-3.24,2.81-6.03,6.07-6.1,3.43-.08,6.28,2.76,6.26,6.21Z"/><path class="cls-1" d="M90.22,114c-3.39-.03-6.11-2.72-6.13-6.05-.02-3.48,2.87-6.23,6.42-6.11,3.43,.12,5.96,2.79,5.88,6.21-.08,3.39-2.76,5.98-6.17,5.95Z"/><path class="cls-1" d="M309.13,6.72c0,3.43-2.57,6.1-5.96,6.16-3.38,.06-6.08-2.54-6.17-5.96-.1-3.58,2.66-6.43,6.15-6.38,3.36,.05,5.97,2.75,5.98,6.18Z"/><path class="cls-1" d="M80.78,126.35c-.06,3.36-2.76,5.97-6.19,5.97-3.58,0-6.3-2.81-6.14-6.34,.16-3.38,2.87-5.87,6.33-5.79,3.39,.08,6.06,2.82,6,6.16Z"/><path class="cls-1" d="M139.64,577.02c-.02,3.4-2.99,6.23-6.4,6.11-3.3-.12-5.95-2.87-5.94-6.17,.02-3.4,3-6.3,6.36-6.16,3.26,.13,6,2.98,5.98,6.21Z"/><path class="cls-1" d="M186.89,30.71c3.33-.03,6.06,2.66,6.13,6.05,.07,3.42-2.48,6.15-5.86,6.29-3.53,.14-6.32-2.6-6.29-6.19,.02-3.41,2.67-6.1,6.02-6.14Z"/><path class="cls-1" d="M590.32,146.65c3.41,.03,6.09,2.68,6.1,6.04,.01,3.38-2.64,6.05-6.04,6.1-3.61,.05-6.32-2.65-6.23-6.22,.08-3.43,2.71-5.94,6.17-5.91Z"/><path class="cls-1" d="M41.07,473.47c-3.39,.09-6.37-2.8-6.35-6.18,.01-3.24,2.78-6.06,6.03-6.16,3.37-.1,6.33,2.8,6.32,6.2-.01,3.27-2.73,6.04-6,6.13Z"/><path class="cls-1" d="M15.41,393.46c3.32-.07,6.08,2.6,6.18,5.99,.1,3.43-2.41,6.18-5.79,6.34-3.54,.17-6.34-2.54-6.35-6.13,0-3.42,2.59-6.13,5.96-6.2Z"/><path class="cls-1" d="M168.05,602.71c.04-3.27,2.79-6.07,6.04-6.14,3.4-.08,6.25,2.8,6.22,6.26-.03,3.53-2.82,6.2-6.34,6.06-3.3-.13-5.96-2.91-5.92-6.19Z"/><path class="cls-1" d="M196.09,607.2c3.38,.07,6.06,2.81,6.03,6.14-.04,3.5-2.93,6.16-6.51,5.99-3.43-.16-5.91-2.85-5.79-6.29,.12-3.39,2.83-5.92,6.27-5.84Z"/><path class="cls-1" d="M487.56,58.47c-3.34-.07-5.99-2.83-5.98-6.21,.01-3.35,2.74-6.11,6.06-6.14,3.49-.03,6.22,2.84,6.12,6.41-.1,3.39-2.84,6.02-6.2,5.94Z"/><path class="cls-1" d="M576.46,138.93c-3.4-.04-6.09-2.72-6.09-6.07,0-3.5,2.87-6.19,6.46-6.05,3.43,.13,5.96,2.83,5.86,6.24-.1,3.4-2.78,5.93-6.23,5.89Z"/><path class="cls-1" d="M635.13,240.68c.02,3.44-2.53,6.11-5.93,6.2-3.55,.09-6.26-2.65-6.21-6.27,.05-3.41,2.73-6.07,6.09-6.06,3.34,.01,6.02,2.73,6.04,6.13Z"/><path class="cls-1" d="M12.29,327.86c.09,3.28-2.61,6.14-5.94,6.29-3.32,.14-6.18-2.48-6.35-5.82-.18-3.56,2.5-6.39,6.06-6.42,3.37-.03,6.13,2.62,6.23,5.95Z"/><path class="cls-1" d="M231.99,25.57c-3.48,.02-6.09-2.48-6.15-5.9-.07-3.61,2.58-6.26,6.22-6.19,3.43,.06,6.05,2.7,6.03,6.08-.02,3.38-2.67,6-6.09,6.02Z"/><path class="cls-1" d="M533.02,80.33c.04,3.37-2.61,6.1-5.98,6.18-3.43,.08-6.1-2.45-6.22-5.87-.12-3.55,2.63-6.44,6.11-6.43,3.34,.02,6.06,2.75,6.09,6.12Z"/><path class="cls-1" d="M25.46,232.8c-.05,3.34-2.79,6.02-6.15,6.02-3.57,0-6.24-2.79-6.1-6.37,.13-3.34,2.97-6.02,6.27-5.92,3.27,.1,6.02,3,5.97,6.27Z"/><path class="cls-1" d="M285.22,9.08c.05,3.35-2.6,6.07-5.99,6.15-3.48,.08-6.14-2.37-6.28-5.78-.15-3.56,2.54-6.35,6.11-6.35,3.4,0,6.11,2.63,6.16,5.99Z"/><path class="cls-1" d="M637.81,366.58c-3.29,.05-6.14-2.68-6.24-5.99-.11-3.32,2.53-6.15,5.88-6.29,3.56-.15,6.36,2.53,6.37,6.1,0,3.37-2.67,6.12-6,6.18Z"/><path class="cls-1" d="M634.36,258.08c3.35-.06,6.33,2.92,6.28,6.28-.06,3.25-2.84,6.01-6.1,6.06-3.29,.05-6.07-2.58-6.22-5.88-.16-3.41,2.64-6.4,6.04-6.46Z"/><path class="cls-1" d="M255.45,19.55c-3.46,.08-6.09-2.4-6.2-5.86-.12-3.59,2.57-6.43,6.09-6.41,3.36,.02,6.01,2.7,6.03,6.11,.03,3.46-2.49,6.08-5.92,6.16Z"/><path class="cls-1" d="M612.1,446.99c3.44,.07,5.97,2.69,5.94,6.13-.03,3.38-2.71,6.09-6.05,6.11-3.47,.02-6.32-2.93-6.18-6.39,.14-3.37,2.89-5.93,6.29-5.86Z"/><path class="cls-1" d="M171.59,48.16c-.05,3.47-2.61,6-6.06,6-3.59,0-6.19-2.75-6.05-6.38,.13-3.39,2.9-5.99,6.25-5.87,3.39,.12,5.91,2.81,5.86,6.25Z"/><path class="cls-1" d="M559.61,539.87c-3.41-.04-6.08-2.7-6.07-6.05,0-3.37,2.66-6.03,6.07-6.07,3.6-.05,6.29,2.67,6.19,6.26-.09,3.44-2.7,5.91-6.19,5.87Z"/><path class="cls-1" d="M22.12,416.75c3.41-.07,6.16,2.48,6.29,5.83,.14,3.51-2.64,6.34-6.19,6.31-3.44-.02-6.03-2.61-6.05-6.03-.02-3.43,2.52-6.05,5.95-6.11Z"/><path class="cls-1" d="M36.84,445.38c.02,3.45-2.51,6.05-5.95,6.12-3.54,.07-6.37-2.73-6.29-6.22,.08-3.35,2.85-6.02,6.19-5.99,3.38,.03,6.03,2.7,6.04,6.09Z"/><path class="cls-1" d="M13.47,352.01c.04,3.47-2.44,6.06-5.88,6.14-3.48,.09-6.1-2.35-6.22-5.78-.13-3.64,2.44-6.33,6.05-6.32,3.48,0,6.01,2.5,6.05,5.96Z"/><path class="cls-1" d="M145.15,66.9c-3.44,.04-6.09-2.49-6.17-5.9-.09-3.61,2.55-6.29,6.16-6.25,3.43,.04,6.01,2.64,6.01,6.06,0,3.43-2.58,6.05-6,6.1Z"/><path class="cls-1" d="M224.47,622.01c.05,3.46-2.43,6.05-5.88,6.15-3.58,.1-6.35-2.6-6.3-6.14,.04-3.4,2.67-5.98,6.11-5.98,3.44,0,6.03,2.55,6.08,5.97Z"/><path class="cls-1" d="M627.09,430.71c0,3.44-2.55,6.04-5.97,6.09-3.6,.05-6.24-2.62-6.17-6.25,.07-3.4,2.75-5.98,6.15-5.94,3.4,.04,5.99,2.67,5.99,6.1Z"/><path class="cls-1" d="M107.27,84.76c3.45-.02,6.05,2.51,6.11,5.94,.07,3.61-2.59,6.26-6.21,6.2-3.42-.06-5.99-2.69-5.96-6.12,.03-3.43,2.62-6,6.06-6.02Z"/><path class="cls-1" d="M114.68,555.78c3.47,0,6.02,2.52,6.06,5.98,.05,3.6-2.65,6.24-6.26,6.15-3.4-.09-5.97-2.76-5.91-6.17,.06-3.41,2.68-5.97,6.11-5.96Z"/></g><g id="Layer_4"><path class="cls-1" d="M322.27,161.87c-5.5-4.87-11.15-9.59-16.76-14.34-3.87-3.28-5.42-3.27-9.11,.18-27.89,26.16-55.89,52.21-83.57,78.59-9.51,9.06-18.59,18.43-31.04,23.6-1.74,.72-2.56,.92-3.98-.33-5.14-4.55-10.4-8.96-15.62-13.4-6.04-5.13-12.76-9.11-20.33-11.46-13.99-4.34-26.87-2.86-37.77,7.83-4.43,4.35-6.55,4.47-11.11,.26-16.57-15.3-33.12-30.62-49.68-45.93-2.35-3.6-4.74-4.55-7.35-2.91-3.19,2-3.65,4.59-1.42,7.91,1.33,1.07,2.74,2.07,3.99,3.22,16.13,14.88,32.24,29.79,48.35,44.68,8.01,7.4,15.91,7.3,23.5-.4,5.09-5.17,11.18-7.82,18.44-7.62,9.43,.25,17.81,3.76,24.91,9.61,15.51,12.78,30.69,25.96,45.96,39.04,2.59,2.21,3.69,5.18,2.95,8.6-1.53,7.12-9.37,9.59-15.15,4.73-9.37-7.89-18.63-15.92-28.05-23.75-3.74-3.11-5.48-2.8-8.64,.88-4.72,5.48-9.4,10.99-14.1,16.49-3.51,4.11-7.8,7.07-13.06,8.42-8.62,2.21-16.48,.59-23.51-4.94-2.35-1.85-4.74-2.02-6.86,.28-1.95,2.12-1.46,4.74,1.18,7,2.34,2.01,4.99,3.53,7.77,4.84,4.17,1.97,8.72,2.58,13.68,3.35-10.39,12.11-20.47,23.79-30.43,35.55-1.25,1.48-1.87,.87-2.86-.03-3.08-2.81-6.18-5.6-9.28-8.38-19.27-17.24-38.54-34.48-57.81-51.72-.79-.67-.63-1.78-1.22-2.58-1.66-2.24-5.09-3.54-7.41-2.7-2.71,.98-3.32,2.95-2.6,5.55-.23,2.23,1.51,3.23,2.84,4.42,21.33,19.18,42.68,38.35,64.02,57.52,2.27,2.04,5.85,3.9,6.32,6.33,.49,2.55-3.41,4.61-5.17,7.06-.14,.2-.3,.39-.45,.58-8.5,10.63-7.3,24.63,3.03,33.53,14.4,12.4,28.86,24.72,43.36,37,10.8,9.14,25.27,8.01,34.27-2.85,2.27-2.73,3.52-2.93,6.11-.45,5.44,5.19,12.03,6.6,19.01,3.61,6.94-2.96,10.56-8.52,10.66-16.14,.02-1.53,.43-1.91,1.94-2.25,9.26-2.05,14.22-7.74,14.82-17.06,.12-1.94,.76-2.33,2.5-2.66,8.12-1.54,13.71-7.83,14.06-16.06,.11-2.49,.97-3.26,3.21-3.65,4.29-.74,7.65-3.11,10.26-6.57,4.91-6.49,5.48-17.87-4.55-25.25-2.45-1.81-3.83-3.28-.95-6.06,1.41-1.36,2.05-3.58,2.88-5.48,4.32-9.88,7.04-20.31,10.35-30.54,1.88-5.81,3.59-11.75,7.25-16.76,16.81-23.06,32.58-46.84,48.61-70.43,8.45-12.44,16.82-24.93,25.44-37.73,2.95-5.09,2.95-6.11-1.76-10.23ZM144.02,421.18c-3.71,3.52-8.16,4.81-13.21,3.7-2.44-.54-4.55-1.72-6.45-3.34-14.44-12.34-28.9-24.67-43.35-37.01-3.55-3.03-5.55-6.79-5.44-11.76-.09-3.53,1.38-6.68,3.77-9.46,2.96-3.44,6.1-6.74,8.83-10.34,1.67-2.2,2.67-2.31,4.79-.47,15.48,13.39,31.08,26.64,46.65,39.94,.93,.8,1.82,1.66,2.8,2.38,3.78,2.77,7.36,5.5,4.8,11.12-.54,1.19-.46,3.17,.18,4.31,2.82,4.98-.27,7.98-3.37,10.93Zm5.78-32.15c-17.06-14.73-34.21-29.34-51.41-43.91-1.74-1.47-1.7-2.22-.25-3.89,10.42-12.04,20.72-24.18,31.07-36.29,.55-.65,1.06-1.49,1.78-1.81,9.99-4.45,15.66-13.47,22.47-21.26,1.78-2.04,2.73-2.48,5.03-.5,19.12,16.44,38.38,32.71,58.07,49.44-13,1.47-17.73,6.06-19.32,18.37-.16,1.22-.53,1.51-1.69,1.79-9.81,2.37-14.31,7.46-14.95,17.22-.12,1.89-.9,2.14-2.31,2.46-9,2.05-13.99,7.89-14.36,16.93-.07,1.58-.15,2.55-2.06,2.51-.94-.02-2.1,.17-2.81,.71-3.84,2.97-6.34,.73-9.25-1.78Zm24.83,30.9c-2.81,1.51-5.75,1.43-8.33-.45-2.86-2.08-5.66-4.3-7.97-7.01-2.77-3.25-2.52-7.78,.53-10.94,2.78-2.89,7.38-3.18,10.65-.57,2.38,1.91,4.67,3.95,6.99,5.94,1.8,1.54,2.5,3.56,2.47,5.88-.03,3.24-1.54,5.65-4.33,7.16Zm20.47-23.78c-1.29,3.3-3.87,4.92-7.36,5.15-1.86-.1-3.61-.41-5.09-1.73-2.29-2.03-4.74-3.88-7-5.95-3.2-2.93-3.46-7.56-.77-10.95,2.75-3.46,7.56-4.17,11.12-1.45,2.53,1.93,4.96,4.01,7.29,6.17,2.62,2.43,3.08,5.5,1.81,8.75Zm16.58-19.17c-1.46,3.17-4.14,4.65-7.42,4.84-1.78-.12-3.33-.5-4.58-1.55-2.53-2.11-5.09-4.18-7.48-6.45-3.14-2.98-3.26-7.57-.47-10.89,2.76-3.27,7.42-4,10.83-1.43,2.72,2.06,5.31,4.31,7.74,6.69,2.54,2.49,2.83,5.61,1.38,8.78Zm16.55-19.26c-1.45,2.87-3.89,4.3-7.09,4.4-1.92,.09-3.64-.44-5.11-1.69-2.33-1.98-4.73-3.9-6.95-6-3.09-2.91-3.41-7.33-.95-10.64,2.47-3.32,6.81-4.42,10.45-2.28,3.38,1.99,6.37,4.6,8.9,7.59,2.17,2.55,2.25,5.63,.74,8.61Zm43.59-124.82c-9.52,13.66-18.71,27.56-28.64,40.93-5.6,7.54-7.98,16.43-10.76,25.15-2.45,7.68-4.68,15.44-7.66,22.95-.77,1.94-1.22,2.85-3.33,.97-6.86-6.11-13.92-11.98-21.16-18.15,10.3-6.28,13.91-14.37,10.79-23.48-1.18-3.45-3.27-6.24-6.06-8.58-5.35-4.49-10.59-9.12-15.98-13.56-1.74-1.43-1.53-2.07,.39-2.91,9.58-4.2,17.36-10.72,24.66-18.16,9.7-9.88,20.02-19.15,29.95-28.8,1.71-1.66,2.68-1.56,4.38-.08,7.56,6.62,15.19,13.17,22.92,19.59,1.75,1.45,1.72,2.38,.5,4.14Zm29.55-43.68c-7.17,10.52-14.31,21.06-21.38,31.64-1.02,1.53-1.64,1.89-3.21,.52-7.28-6.38-14.65-12.66-22.06-18.89-1.29-1.08-1.73-1.66-.27-3.01,9.54-8.82,19-17.73,28.49-26.6,.44-.41,.91-.78,1.42-1.21,.64,.47,1.26,.86,1.82,1.33,4.95,4.21,9.82,8.5,14.85,12.61,1.56,1.28,1.32,2.17,.34,3.6Zm13.06-19.42c-2.19,3.06-4.25,6.23-6.51,9.58-5.69-4.86-11.07-9.46-16.67-14.24,2.94-2.72,5.81-5.3,8.59-7.98,.98-.95,1.6-.98,2.65-.05,3.74,3.32,7.55,6.57,11.41,9.74,1.15,.95,1.47,1.64,.53,2.96Z"/><path class="cls-1" d="M324.78,167.68c5.5-4.87,11.15-9.59,16.76-14.34,3.87-3.28,5.42-3.27,9.11,.18,27.89,26.16,55.89,52.21,83.57,78.59,9.51,9.06,18.59,18.43,31.04,23.6,1.74,.72,2.56,.92,3.98-.33,5.14-4.55,10.4-8.96,15.62-13.4,6.04-5.13,12.76-9.11,20.33-11.46,13.99-4.34,26.87-2.86,37.77,7.83,4.43,4.35,6.55,4.47,11.11,.26,16.57-15.3,35.59-29.89,52.14-45.2,2.35-3.6,4.74-4.55,7.35-2.91,3.19,2,3.65,4.59,1.42,7.91-1.33,1.07-2.74,2.07-3.99,3.22-16.13,14.88-34.7,29.06-50.82,43.95-8.01,7.4-15.91,7.3-23.5-.4-5.09-5.17-11.18-7.82-18.44-7.62-9.43,.25-17.81,3.76-24.91,9.61-15.51,12.78-30.69,25.96-45.96,39.04-2.59,2.21-3.69,5.18-2.95,8.6,1.53,7.12,9.37,9.59,15.15,4.73,9.37-7.89,18.63-15.92,28.05-23.75,3.74-3.11,5.48-2.8,8.64,.88,4.72,5.48,9.4,10.99,14.1,16.49,3.51,4.11,7.8,7.07,13.06,8.42,8.62,2.21,16.48,.59,23.51-4.94,2.35-1.85,4.74-2.02,6.86,.28,1.95,2.12,1.46,4.74-1.18,7-2.34,2.01-4.99,3.53-7.77,4.84-4.17,1.97-8.72,2.58-13.68,3.35,10.39,12.11,20.47,23.79,30.43,35.55,1.25,1.48,1.87,.87,2.86-.03,3.08-2.81,6.18-5.6,9.28-8.38,19.27-17.24,38.54-34.48,57.81-51.72,.79-.67,.63-1.78,1.22-2.58,1.66-2.24,5.09-3.54,7.41-2.7,2.71,.98,3.32,2.95,2.6,5.55,.23,2.23-1.51,3.23-2.84,4.42-21.33,19.18-42.68,38.35-64.02,57.52-2.27,2.04-5.85,3.9-6.32,6.33-.49,2.55,3.41,4.61,5.17,7.06,.14,.2,.3,.39,.45,.58,8.5,10.63,7.3,24.63-3.03,33.53-14.4,12.4-28.86,24.72-43.36,37-10.8,9.14-25.27,8.01-34.27-2.85-2.27-2.73-3.52-2.93-6.11-.45-5.44,5.19-12.03,6.6-19.01,3.61-6.94-2.96-10.56-8.52-10.66-16.14-.02-1.53-.43-1.91-1.94-2.25-9.26-2.05-14.22-7.74-14.82-17.06-.12-1.94-.76-2.33-2.5-2.66-8.12-1.54-13.71-7.83-14.06-16.06-.11-2.49-.97-3.26-3.21-3.65-4.29-.74-7.65-3.11-10.26-6.57-4.91-6.49-5.48-17.87,4.55-25.25,2.45-1.81,3.83-3.28,.95-6.06-1.41-1.36-2.05-3.58-2.88-5.48-4.32-9.88-7.04-20.31-10.35-30.54-1.88-5.81-3.59-11.75-7.25-16.76-16.81-23.06-32.58-46.84-48.61-70.43-8.45-12.44-16.82-24.93-25.44-37.73-2.95-5.09-2.95-6.11,1.76-10.23Zm178.25,259.31c3.71,3.52,8.16,4.81,13.21,3.7,2.44-.54,4.55-1.72,6.45-3.34,14.44-12.34,28.9-24.67,43.35-37.01,3.55-3.03,5.55-6.79,5.44-11.76,.09-3.53-1.38-6.68-3.77-9.46-2.96-3.44-6.1-6.74-8.83-10.34-1.67-2.2-2.67-2.31-4.79-.47-15.48,13.39-31.08,26.64-46.65,39.94-.93,.8-1.82,1.66-2.8,2.38-3.78,2.77-7.36,5.5-4.8,11.12,.54,1.19,.46,3.17-.18,4.31-2.82,4.98,.27,7.98,3.37,10.93Zm-5.78-32.15c17.06-14.73,34.21-29.34,51.41-43.91,1.74-1.47,1.7-2.22,.25-3.89-10.42-12.04-20.72-24.18-31.07-36.29-.55-.65-1.06-1.49-1.78-1.81-9.99-4.45-15.66-13.47-22.47-21.26-1.78-2.04-2.73-2.48-5.03-.5-19.12,16.44-38.38,32.71-58.07,49.44,13,1.47,17.73,6.06,19.32,18.37,.16,1.22,.53,1.51,1.69,1.79,9.81,2.37,14.31,7.46,14.95,17.22,.12,1.89,.9,2.14,2.31,2.46,9,2.05,13.99,7.89,14.36,16.93,.07,1.58,.15,2.55,2.06,2.51,.94-.02,2.1,.17,2.81,.71,3.84,2.97,6.34,.73,9.25-1.78Zm-24.83,30.9c2.81,1.51,5.75,1.43,8.33-.45,2.86-2.08,5.66-4.3,7.97-7.01,2.77-3.25,2.52-7.78-.53-10.94-2.78-2.89-7.38-3.18-10.65-.57-2.38,1.91-4.67,3.95-6.99,5.94-1.8,1.54-2.5,3.56-2.47,5.88,.03,3.24,1.54,5.65,4.33,7.16Zm-20.47-23.78c1.29,3.3,3.87,4.92,7.36,5.15,1.86-.1,3.61-.41,5.09-1.73,2.29-2.03,4.74-3.88,7-5.95,3.2-2.93,3.46-7.56,.77-10.95-2.75-3.46-7.56-4.17-11.12-1.45-2.53,1.93-4.96,4.01-7.29,6.17-2.62,2.43-3.08,5.5-1.81,8.75Zm-16.58-19.17c1.46,3.17,4.14,4.65,7.42,4.84,1.78-.12,3.33-.5,4.58-1.55,2.53-2.11,5.09-4.18,7.48-6.45,3.14-2.98,3.26-7.57,.47-10.89-2.76-3.27-7.42-4-10.83-1.43-2.72,2.06-5.31,4.31-7.74,6.69-2.54,2.49-2.83,5.61-1.38,8.78Zm-16.55-19.26c1.45,2.87,3.89,4.3,7.09,4.4,1.92,.09,3.64-.44,5.11-1.69,2.33-1.98,4.73-3.9,6.95-6,3.09-2.91,3.41-7.33,.95-10.64-2.47-3.32-6.81-4.42-10.45-2.28-3.38,1.99-6.37,4.6-8.9,7.59-2.17,2.55-2.25,5.63-.74,8.61Zm-43.59-124.82c9.52,13.66,18.71,27.56,28.64,40.93,5.6,7.54,7.98,16.43,10.76,25.15,2.45,7.68,4.68,15.44,7.66,22.95,.77,1.94,1.22,2.85,3.33,.97,6.86-6.11,13.92-11.98,21.16-18.15-10.3-6.28-13.91-14.37-10.79-23.48,1.18-3.45,3.27-6.24,6.06-8.58,5.35-4.49,10.59-9.12,15.98-13.56,1.74-1.43,1.53-2.07-.39-2.91-9.58-4.2-17.36-10.72-24.66-18.16-9.7-9.88-20.02-19.15-29.95-28.8-1.71-1.66-2.68-1.56-4.38-.08-7.56,6.62-15.19,13.17-22.92,19.59-1.75,1.45-1.72,2.38-.5,4.14Zm-29.55-43.68c7.17,10.52,14.31,21.06,21.38,31.64,1.02,1.53,1.64,1.89,3.21,.52,7.28-6.38,14.65-12.66,22.06-18.89,1.29-1.08,1.73-1.66,.27-3.01-9.54-8.82-19-17.73-28.49-26.6-.44-.41-.91-.78-1.42-1.21-.64,.47-1.26,.86-1.82,1.33-4.95,4.21-9.82,8.5-14.85,12.61-1.56,1.28-1.32,2.17-.34,3.6Zm-13.06-19.42c2.19,3.06,4.25,6.23,6.51,9.58,5.69-4.86,11.07-9.46,16.67-14.24-2.94-2.72-5.81-5.3-8.59-7.98-.98-.95-1.6-.98-2.65-.05-3.74,3.32-7.55,6.57-11.41,9.74-1.15,.95-1.47,1.64-.53,2.96Z"/></g><g id="Layer_5"><path class="cls-1" d="M340.39,117.54c-3.8-.4-5.31-4.4-2.74-7.75,3.87-5.05,7.9-9.98,11.87-14.95,2.21-2.78,4.38-5.59,6.66-8.31,1.95-2.33,4.38-2.82,6.75-.81,2.22,1.88,2.18,4.33,.43,6.55-6.21,7.89-12.49,15.71-18.74,23.56-1.09,1.37-2.53,1.86-4.22,1.71Z"/></g><g id="Layer_6"><path class="cls-1" d="M305.52,112.71c0,2.34-.94,3.87-2.84,4.56-2,.73-3.89,.35-5.3-1.39-3.23-3.99-6.44-8.01-9.64-12.03-2.98-3.73-5.98-7.43-8.9-11.21-2.1-2.72-1.93-5.36,.31-7.1,2.24-1.74,4.81-1.28,6.99,1.43,5.98,7.44,11.9,14.93,17.84,22.39,.85,1.07,1.6,2.17,1.53,3.34Z"/></g><g id="Layer_7"><path class="cls-1" d="M316.34,93.18c0-6.12,.05-12.24-.02-18.36-.04-3.15,1.15-5.29,4.43-5.63,2.9-.31,4.85,1.87,4.87,5.57,.07,12.24,.05,24.48,0,36.72-.01,3.04-1.21,5.3-4.64,5.42-2.96,.1-4.62-1.97-4.64-5.73-.04-6,0-12,0-17.99Z"/></g><g id="Layer_2-2"><g><path class="cls-1" d="M415.29,696.44c-2.84-11.52-5.69-23.03-8.68-34.51-.81-3.12-3.14-5.15-6.42-5.14-9.62,.02-18.02-3.69-26.52-7.66-26.43-12.36-58.32-7.2-79.83,12.73-7.37,6.83-10.16,15.36-8.49,25.3,1.84,10.93,9.31,17.19,18.55,21.67,13.11,6.36,27.1,8.96,37.51,8.99,28.76-.12,50.49-7.26,71.08-16.06,2.32-.99,3.41-2.85,2.8-5.33Zm-11.66-1.03c-18.42,7.67-38.23,13.09-60.98,13.11-9.14,.08-20.84-2.09-32.06-6.8-3.3-1.38-6.37-3.12-9.21-5.27-9.19-6.96-9.74-20.06-1.22-27.87,18.92-17.33,46.82-21.8,69.98-10.93,8.35,3.92,16.56,7.98,26.05,7.99,1.55,0,2.14,.8,2.47,2.13,2.04,8.31,4.04,16.64,6.2,24.92,.39,1.49,.23,2.12-1.23,2.73Z"/><path class="cls-1" d="M450.8,643.46c-13.19,.05-25.1,4.74-36.76,10.24-2.27,1.07-3.13,3.06-2.52,5.51,2.84,11.38,5.66,22.77,8.61,34.12,.97,3.72,3.48,5.28,7.47,4.97,3.78-.3,7.58-.58,11.32-1.14,9.72-1.47,19.21-3.7,27.45-9.5,4.64-3.26,8.1-7.43,9.67-12.98,4.66-16.44-7.32-31.25-25.24-31.23Zm16.48,27.93c-.93,4.59-4.07,7.43-7.81,9.7-7.6,4.62-16.12,6.27-24.78,7.25-6.14,.69-6.17,.58-7.67-5.4-1.7-6.76-3.3-13.54-5.09-20.27-.43-1.62-.24-2.38,1.38-3.06,8.38-3.5,16.85-6.59,26.09-6.83,12.53-.51,20.15,7.43,17.88,18.61Z"/></g></g><g id="Layer_3"><g><path class="cls-1" d="M310.12,548.24c-6.29-3.78-12.57-7.58-19-11.09-18.26-9.98-37.52-16.67-58.6-16.84-11.82-.09-23.52,.83-34.33,6.26-15.61,7.84-20.54,26.95-10.21,40.81,13.33,17.9,45.42,37.88,77.22,26.96,6.49-2.23,13.15-3.96,20.16-3.09,1.59,.07,3.18,.12,4.77,.22,6.6,.43,7.78-.26,10.43-6.17,4.15-9.25,8.31-18.49,12.46-27.74,2.2-4.9,1.77-6.5-2.91-9.31Zm-7.16,9.25c-3.48,7.54-6.84,15.15-10.26,22.72-.48,1.06-.75,2.39-2.47,2.11-11.52-1.88-22.27,1.68-33.18,4.48-16.99,4.36-31.8-1.61-45.85-10.42-5.42-3.4-10.15-7.71-14.29-12.6-8.8-10.37-5.78-23.81,6.6-29.49,8.66-3.97,17.94-4.58,26.88-4.85,20.12,.07,38.19,6.04,55.32,15.32,5.48,2.97,10.77,6.3,16.23,9.31,1.69,.93,1.78,1.78,1.03,3.41Z"/><path class="cls-1" d="M369.22,583.17c-1.93-6.36-6.5-10.87-11.68-14.71-9.01-6.7-19.42-10.14-30.21-12.64-5.32-1.23-7.42-.29-9.63,4.57-4.45,9.78-8.73,19.64-13.3,29.37-1.69,3.6-.79,6,2.2,8.18,7.15,5.21,14.76,9.58,23,12.81,5.15,2.02,10.49,3.3,16.07,3.37,15.97,.27,28.18-15.68,23.55-30.95Zm-25.37,21.57c-10.82-1.11-19.81-6.5-28.74-12.09-1.22-.77-1.12-1.61-.58-2.77,3.55-7.76,7.07-15.54,10.54-23.34,.47-1.06,.91-1.56,2.16-1.22,11.42,3.03,22.53,6.63,30.57,16.11,1.98,2.33,3.07,4.96,3.03,8.05,.04,9.5-7.51,16.25-16.97,15.28Z"/></g></g></svg>