<?xml version="1.0" encoding="utf-8"?>
<!-- Generator: Adobe Illustrator 26.3.1, SVG Export Plug-In . SVG Version: 6.00 Build 0)  -->
<svg version="1.1" id="OBJECTS" xmlns="http://www.w3.org/2000/svg" xmlns:xlink="http://www.w3.org/1999/xlink" x="0px" y="0px"
	 viewBox="0 0 209.9 89.4" style="enable-background:new 0 0 209.9 89.4;" xml:space="preserve">
<style type="text/css">
	.st0{fill:none;}
	.st1{fill:#FA6116;}
</style>
<line class="st0" x1="34.6" y1="16.3" x2="37.7" y2="58.2"/>
<path class="st1" d="M182,69.7H27.8v-50H182V69.7z"/>
<g>
	<path d="M59.1,41c-0.2,0-0.4,0-0.5-0.2c-0.2-0.1-0.2-0.3-0.2-0.6c0-2.4-0.6-3.6-1.9-3.6c-0.7,0-1.2,0.3-1.5,0.9
		c-0.3,0.6-0.4,1.3-0.3,2.1c0.1,0.7,0.4,1.2,0.8,1.7c0.4,0.4,0.9,0.9,1.4,1.2s1.1,0.7,1.7,1.1s1.1,0.8,1.6,1.3
		c0.5,0.5,0.9,1.2,1.2,1.9c0.3,0.8,0.5,1.7,0.4,2.9c0,0.8-0.2,1.5-0.5,2.2c-0.4,0.7-0.8,1.2-1.4,1.7c-0.6,0.4-1.2,0.8-2,1
		c-0.8,0.2-1.5,0.3-2.3,0.3c-0.7,0-1.4-0.2-2-0.4c-0.6-0.3-1.1-0.7-1.6-1.2c-0.4-0.5-0.7-1.2-0.9-2c-0.2-0.8-0.3-1.7-0.2-2.8
		c0-0.2,0.1-0.3,0.2-0.5c0.1-0.1,0.3-0.2,0.5-0.2l1.7-0.1c0.2,0,0.4,0.1,0.6,0.2c0.2,0.2,0.2,0.3,0.2,0.5c0,0.6,0,1.1,0.1,1.7
		c0,0.6,0.1,1.1,0.2,1.5s0.3,0.8,0.5,1.1c0.2,0.3,0.5,0.4,0.8,0.5c0.3,0,0.6,0,0.8-0.1c0.3-0.1,0.5-0.3,0.7-0.6
		c0.2-0.3,0.4-0.6,0.5-1c0.1-0.4,0.1-0.9,0.1-1.5c-0.1-0.8-0.3-1.5-0.8-2s-0.9-1-1.5-1.5c-0.6-0.4-1.2-0.8-1.8-1.2
		c-0.6-0.4-1.2-0.8-1.7-1.3c-0.5-0.5-0.9-1.1-1.3-1.7c-0.3-0.7-0.5-1.5-0.5-2.5c0-0.8,0.1-1.5,0.4-2.1c0.3-0.6,0.6-1.1,1.1-1.5
		s1.1-0.7,1.7-1c0.7-0.2,1.4-0.4,2.1-0.4c0.8,0,1.5,0.1,2.2,0.3c0.7,0.2,1.3,0.6,1.8,1.1c0.5,0.5,1,1.1,1.3,1.8
		c0.3,0.7,0.5,1.5,0.6,2.4c0,0.2-0.1,0.4-0.2,0.5c-0.1,0.1-0.3,0.2-0.5,0.2L59.1,41z"/>
	<path d="M73.9,43.3l-4.9,0.8c-0.2,0-0.3,0.2-0.3,0.4l0.5,7.3c0,0.1,0,0.2,0.1,0.3c0.1,0.1,0.2,0.1,0.3,0.1l4-0.2
		c0.4,0,0.6,0.2,0.7,0.5l0.2,0.7c0.1,0.2,0,0.4-0.1,0.6c-0.1,0.2-0.3,0.3-0.5,0.3l-8.3,1c-0.2,0-0.4,0-0.6-0.1
		c-0.2-0.1-0.3-0.3-0.3-0.6L64,35.5c0-0.2,0.1-0.4,0.2-0.6c0.1-0.1,0.3-0.2,0.5-0.2l8.7-0.2c0.2,0,0.3,0.1,0.5,0.2
		c0.1,0.1,0.2,0.3,0.3,0.4l0.1,0.7c0,0.2,0,0.4-0.1,0.6c-0.1,0.2-0.3,0.3-0.5,0.3l-5.1,0.3c-0.2,0-0.3,0.2-0.3,0.4l0.3,4.1
		c0,0.2,0.2,0.3,0.4,0.3l4.6-0.6c0.2,0,0.4,0,0.5,0.1c0.1,0.1,0.2,0.2,0.3,0.4l0.1,0.5c0,0.2,0,0.4-0.1,0.6
		C74.2,43.1,74.1,43.3,73.9,43.3z"/>
	<path d="M86.8,43.3l-4.9,0.8c-0.2,0-0.3,0.2-0.3,0.4l0.5,7.3c0,0.1,0,0.2,0.1,0.3c0.1,0.1,0.2,0.1,0.3,0.1l4-0.2
		c0.4,0,0.6,0.2,0.7,0.5l0.2,0.7c0.1,0.2,0,0.4-0.1,0.6c-0.1,0.2-0.3,0.3-0.5,0.3l-8.3,1c-0.2,0-0.4,0-0.6-0.1
		c-0.2-0.1-0.3-0.3-0.3-0.6L77,35.5c0-0.2,0.1-0.4,0.2-0.6c0.1-0.1,0.3-0.2,0.5-0.2l8.7-0.2c0.2,0,0.3,0.1,0.5,0.2
		c0.1,0.1,0.2,0.3,0.3,0.4l0.1,0.7c0,0.2,0,0.4-0.1,0.6c-0.1,0.2-0.3,0.3-0.5,0.3l-5.1,0.3c-0.2,0-0.3,0.2-0.3,0.4l0.3,4.1
		c0,0.2,0.2,0.3,0.4,0.3l4.6-0.6c0.2,0,0.4,0,0.5,0.1c0.1,0.1,0.2,0.2,0.3,0.4l0.1,0.5c0,0.2,0,0.4-0.1,0.6
		C87.1,43.1,87,43.3,86.8,43.3z"/>
	<path d="M116.2,54.1c0,0.2,0,0.4-0.1,0.6c-0.1,0.2-0.3,0.3-0.5,0.3l-1.4,0.1c-0.2,0-0.4-0.1-0.5-0.2c-0.2-0.1-0.2-0.3-0.3-0.5
		l-1.1-10.5c0-0.2-0.2-0.3-0.3-0.3c-0.2,0-0.3,0.1-0.3,0.3l-3,9.9c0,0.2-0.1,0.3-0.3,0.4c-0.1,0.1-0.3,0.1-0.4,0.1l-1.6,0.1
		c-0.4,0-0.6-0.1-0.7-0.5l-3.6-9.2c-0.1-0.2-0.2-0.2-0.3-0.2c-0.2,0-0.3,0.1-0.3,0.3l-0.4,9.5c0,0.2-0.1,0.3-0.2,0.5
		c-0.1,0.1-0.3,0.2-0.5,0.2l-2.9,0.1c-0.2,0-0.4-0.1-0.5-0.2c-0.1-0.2-0.2-0.3-0.2-0.6l1.4-18.6c0-0.2,0.1-0.3,0.2-0.5
		c0.1-0.1,0.3-0.2,0.5-0.2l2.4-0.1c0.3,0,0.5,0.2,0.7,0.5l4.5,12.3c0.1,0.2,0.2,0.2,0.4,0.2s0.3-0.1,0.3-0.3l3.7-12.7
		c0.1-0.4,0.3-0.6,0.7-0.6h2c0.4,0,0.7,0.2,0.7,0.7L116.2,54.1z"/>
	<path d="M124.5,34.9c1.2-0.1,2.3,0.1,3.3,0.5c0.9,0.4,1.7,1.1,2.4,1.9c0.6,0.8,1.1,1.8,1.5,3c0.3,1.1,0.6,2.3,0.6,3.6
		c0.1,1.4,0,2.7-0.2,4.1c-0.2,1.3-0.6,2.5-1.2,3.6c-0.6,1.1-1.3,1.9-2.2,2.5c-0.9,0.6-2.1,0.9-3.5,0.9c-1.2,0-2.3-0.3-3.2-0.8
		c-0.9-0.5-1.7-1.3-2.3-2.2s-1.1-1.9-1.4-3.1c-0.3-1.2-0.5-2.4-0.5-3.6c0-1.3,0.1-2.6,0.4-3.8c0.2-1.2,0.6-2.3,1.1-3.2
		c0.5-0.9,1.2-1.7,2.1-2.3C122.3,35.3,123.3,35,124.5,34.9z M125,36.7c-0.6,0-1.2,0.3-1.5,0.8c-0.4,0.6-0.7,1.3-0.8,2.2
		c-0.2,0.9-0.3,1.8-0.3,2.9c0,1,0,2,0,2.8c0.1,1,0.1,1.9,0.2,2.8c0.1,0.9,0.2,1.8,0.4,2.5c0.2,0.7,0.5,1.3,0.9,1.8
		c0.4,0.5,0.9,0.7,1.6,0.7c0.6,0,1.1-0.3,1.4-0.8c0.3-0.6,0.6-1.3,0.8-2.1c0.2-0.9,0.3-1.8,0.3-2.9c0-1,0-2.1-0.1-3.1
		c-0.1-0.9-0.1-1.8-0.2-2.7c-0.1-0.9-0.2-1.7-0.5-2.4c-0.2-0.7-0.5-1.3-0.9-1.8C126,36.9,125.5,36.7,125,36.7z"/>
	<path d="M147,52.8l-1.5,0.6c-0.4,0.1-0.7,0-0.9-0.3l-4.2-6.9c-0.1-0.2-0.2-0.2-0.4-0.1c-0.1,0-0.2,0.1-0.4,0.1
		c-0.1,0-0.2,0-0.4,0.1c-0.2,0-0.3,0.2-0.3,0.3l0.2,7.1c0,0.2,0,0.3-0.2,0.5s-0.3,0.2-0.5,0.3l-2.6,0.3c-0.2,0-0.4,0-0.5-0.1
		c-0.2-0.1-0.2-0.3-0.3-0.5l-0.8-18.1c0-0.2,0-0.4,0.1-0.5c0.1-0.1,0.3-0.2,0.5-0.2c0.3,0,0.8-0.1,1.3-0.1c0.5,0,1.1-0.1,1.8-0.1
		c0.8,0,1.7,0.1,2.6,0.2c0.9,0.1,1.7,0.3,2.5,0.7c0.8,0.3,1.4,0.8,1.9,1.4c0.5,0.6,0.8,1.4,0.9,2.3c0.1,1-0.1,1.9-0.5,2.7
		c-0.4,0.8-1,1.4-1.7,2c-0.1,0.1-0.2,0.3-0.1,0.4l3.5,7.2c0.1,0.2,0.1,0.4,0,0.6C147.4,52.5,147.2,52.7,147,52.8z M142.7,40
		c-0.1-0.9-0.4-1.6-1.1-2.1c-0.6-0.5-1.5-0.7-2.6-0.8c-0.3,0-0.4,0.1-0.4,0.3l0.3,5.9c0,0.1,0,0.2,0.1,0.3c0.1,0.1,0.2,0.1,0.3,0
		c1.1-0.4,2-1,2.5-1.6C142.4,41.4,142.7,40.7,142.7,40z"/>
	<path d="M158.9,43.3l-4.9,0.8c-0.2,0-0.3,0.2-0.3,0.4l0.5,7.3c0,0.1,0,0.2,0.1,0.3c0.1,0.1,0.2,0.1,0.3,0.1l4-0.2
		c0.4,0,0.6,0.2,0.7,0.5l0.2,0.7c0.1,0.2,0,0.4-0.1,0.6c-0.1,0.2-0.3,0.3-0.5,0.3l-8.3,1c-0.2,0-0.4,0-0.6-0.1
		c-0.2-0.1-0.3-0.3-0.3-0.6l-0.7-18.7c0-0.2,0.1-0.4,0.2-0.6c0.1-0.1,0.3-0.2,0.5-0.2l8.7-0.2c0.2,0,0.3,0.1,0.5,0.2
		c0.1,0.1,0.2,0.3,0.3,0.4l0.1,0.7c0,0.2,0,0.4-0.1,0.6c-0.1,0.2-0.3,0.3-0.5,0.3l-5.1,0.3c-0.2,0-0.3,0.2-0.3,0.4l0.3,4.1
		c0,0.2,0.2,0.3,0.4,0.3l4.6-0.6c0.2,0,0.4,0,0.5,0.1c0.1,0.1,0.2,0.2,0.3,0.4l0.1,0.5c0,0.2,0,0.4-0.1,0.6
		C159.2,43.1,159.1,43.3,158.9,43.3z"/>
</g>
</svg>
